<?xml version="1.0" encoding="UTF-8"?>
<svg version="1.1" xmlns="http://www.w3.org/2000/svg" width="1200" height="800">
<path d="M0 0 C396 0 792 0 1200 0 C1200 264 1200 528 1200 800 C804 800 408 800 0 800 C0 536 0 272 0 0 Z " fill="#FEFEFE" transform="translate(0,0)"/>
<path d="M0 0 C0.76586426 0.15033691 1.53172852 0.30067383 2.32080078 0.45556641 C18.27789003 3.62069039 33.80855395 9.57318639 48.19799805 17.15869141 C50.88466752 18.41302862 52.1745268 17.89703834 55 17 C57.94187149 15.69529103 60.80927654 14.25102827 63.6875 12.8125 C104.86044849 -7.10160141 152.11683593 -7.74309801 195.11767578 6.98168945 C232.26170182 20.46190277 268.8585883 50.00936067 286 86 C272.77719559 93.23411945 259.54014032 100.37675064 246 107 C244.95070313 107.58523438 243.90140625 108.17046875 242.8203125 108.7734375 C240 110 240 110 237.9140625 110.0859375 C234.8504194 108.34778897 233.26566434 105.50273552 231.375 102.625 C219.86718526 85.92676106 205.77454058 74.41400636 188 65 C187.29746094 64.60296875 186.59492187 64.2059375 185.87109375 63.796875 C162.69070226 51.18033363 131.22793413 48.73601944 106.1875 56.125 C103.2684117 56.92631836 101.00110726 57.18188529 98 57 C98.51216064 57.68437134 98.51216064 57.68437134 99.03466797 58.38256836 C109.46123954 72.38421396 119.46231796 86.71157717 126 103 C126.49113281 104.20914063 126.98226563 105.41828125 127.48828125 106.6640625 C143.98247778 148.29202849 143.35484717 196.06676445 125.75 237.328125 C119.80886561 250.09315668 112.46062031 261.77732151 104 273 C103.02933594 274.30710937 103.02933594 274.30710937 102.0390625 275.640625 C100.7029011 277.43471965 99.35356233 279.21899693 98 281 C99.95786872 281.46031396 101.91632552 281.91812674 103.875 282.375 C105.51082031 282.75785156 105.51082031 282.75785156 107.1796875 283.1484375 C109.07074219 283.56996094 109.07074219 283.56996094 111 284 C111.76078857 284.17789062 112.52157715 284.35578125 113.30541992 284.5390625 C119.45053172 285.89429046 125.27874011 286.31640549 131.5625 286.25 C132.52140137 286.24178223 133.48030273 286.23356445 134.46826172 286.22509766 C162.98401177 285.78376553 188.8966719 277.4852238 211 259 C211.845625 258.31679688 212.69125 257.63359375 213.5625 256.9296875 C222.0748393 249.72080016 229.4754372 240.69989245 235 231 C239.54585465 231.61594595 243.23472576 233.46546994 247.25 235.5625 C252.35515928 238.17982974 257.47985358 240.71661891 262.69042969 243.11791992 C282.26467134 252.14158407 282.26467134 252.14158407 283.73706055 255.86279297 C284.07352603 258.59762938 283.48260019 259.40153933 281.89453125 261.6171875 C281.41145508 262.29982666 280.92837891 262.98246582 280.43066406 263.68579102 C279.89666992 264.40822998 279.36267578 265.13066895 278.8125 265.875 C278.26948242 266.62515381 277.72646484 267.37530762 277.16699219 268.14819336 C266.67297385 282.44818348 254.98889652 295.05971817 241 306 C240.15824219 306.65871094 239.31648438 307.31742187 238.44921875 307.99609375 C202.9491935 334.76925392 157.53426108 347.28392658 113.27954102 341.12597656 C109.4966701 340.51869821 105.74758548 339.7949676 102 339 C101.25395508 338.8448291 100.50791016 338.6896582 99.73925781 338.52978516 C85.7976347 335.5783971 73.20878729 331.36714483 60.56640625 324.8046875 C54.50453417 321.42293809 54.50453417 321.42293809 48 322 C46.6906328 322.58297093 45.39789252 323.20425262 44.12109375 323.85546875 C33.00123997 329.39980146 21.97550399 333.69429105 10 337 C8.87335938 337.31710937 7.74671875 337.63421875 6.5859375 337.9609375 C-16.97231946 343.98469434 -43.33297062 344.22306855 -67 339 C-68.40215399 338.71780549 -69.80449964 338.43656166 -71.20703125 338.15625 C-91.71607331 333.87781096 -110.41597413 325.48252849 -127.875 314 C-128.4328418 313.63350342 -128.99068359 313.26700684 -129.56542969 312.8894043 C-139.38557515 306.21633807 -148.12971034 298.2600933 -156.5 289.875 C-157.86692993 288.50674072 -157.86692993 288.50674072 -159.26147461 287.11083984 C-166.32771669 279.92031871 -172.57816227 272.49798476 -178 264 C-178.39429199 263.38608398 -178.78858398 262.77216797 -179.19482422 262.13964844 C-180.21553607 260.47604047 -181.11718114 258.74071106 -182 257 C-180.75374754 253.26124263 -179.78799957 253.03892688 -176.390625 251.21484375 C-174.93112427 250.42533325 -174.93112427 250.42533325 -173.44213867 249.61987305 C-172.38873291 249.06468994 -171.33532715 248.50950684 -170.25 247.9375 C-169.17919189 247.36620361 -168.10838379 246.79490723 -167.00512695 246.20629883 C-159.80013587 242.39438982 -152.533577 238.71966728 -145.1875 235.1875 C-143.86443848 234.54832642 -143.86443848 234.54832642 -142.51464844 233.89624023 C-141.69899414 233.51153564 -140.88333984 233.12683105 -140.04296875 232.73046875 C-139.33164795 232.39426514 -138.62032715 232.05806152 -137.88745117 231.71166992 C-136 231 -136 231 -133 231 C-131.46775145 232.98885862 -130.10934533 234.95979746 -128.75 237.0625 C-120.68241193 248.91444795 -110.27877809 259.52054127 -98 267 C-97.22785156 267.5053125 -96.45570313 268.010625 -95.66015625 268.53125 C-88.80088404 272.88916687 -81.49234317 275.92201782 -74 279 C-72.85917969 279.50789063 -71.71835937 280.01578125 -70.54296875 280.5390625 C-47.34345516 290.10534484 -19.55190895 287.91976338 4 281 C3.62415771 280.50661133 3.24831543 280.01322266 2.86108398 279.50488281 C-7.60206126 265.67687957 -17.33722964 251.06166271 -24 235 C-24.48339844 233.85402344 -24.96679688 232.70804688 -25.46484375 231.52734375 C-32.1492135 215.07892815 -36.14032709 197.3351535 -36.16796875 179.5546875 C-36.17129715 178.78174347 -36.17462555 178.00879944 -36.17805481 177.21243286 C-36.18307916 175.5872659 -36.18546454 173.96208878 -36.18530273 172.33691406 C-36.18747634 169.90151132 -36.20564499 167.46657221 -36.22460938 165.03125 C-36.36983511 125.19031547 -21.32264968 90.0201909 3 59 C-0.8646283 56.96151474 -4.75073158 55.92755562 -9 55 C-9.7724707 54.82774902 -10.54494141 54.65549805 -11.34082031 54.47802734 C-28.79808031 50.93776723 -48.10050873 51.22109635 -65 57 C-66.21816406 57.350625 -67.43632812 57.70125 -68.69140625 58.0625 C-94.67367042 65.86530717 -115.91525341 82.75440593 -130.9765625 105.1015625 C-132.546385 107.35022716 -133.97440823 109.18083797 -136 111 C-147.16950584 105.56709837 -158.1184158 99.75826679 -169.03662109 93.83740234 C-170.64657959 92.96462646 -170.64657959 92.96462646 -172.2890625 92.07421875 C-173.24506348 91.55432373 -174.20106445 91.03442871 -175.18603516 90.4987793 C-178.09952541 88.94699059 -181.04152642 87.4639334 -184 86 C-178.85347946 75.093643 -171.38671547 65.52914337 -163.40722656 56.57910156 C-162.00712894 55.00799965 -160.62454326 53.42265004 -159.2421875 51.8359375 C-149.50021941 40.78752205 -138.01395635 32.38249762 -126 24 C-125.22011719 23.4328125 -124.44023437 22.865625 -123.63671875 22.28125 C-117.49718561 17.9338593 -110.78680608 14.85731663 -103.92333984 11.84814453 C-102.14422672 11.06360036 -100.37807598 10.24983676 -98.61328125 9.43359375 C-86.56787588 4.17317157 -73.82509925 1.64104322 -61 -1 C-59.74574219 -1.27070313 -58.49148438 -1.54140625 -57.19921875 -1.8203125 C-38.62591589 -5.17153106 -18.38328463 -3.95154716 0 0 Z " fill="#010101" transform="translate(551,159)"/>
<path d="M0 0 C10.23 0 20.46 0 31 0 C35.00375674 8.48796429 38.88229509 16.98430631 42.546875 25.625 C44.38584717 29.89616116 46.33947118 34.10817428 48.30078125 38.32421875 C53.59023705 49.72550794 58.69386738 61.20869589 63.60546875 72.77734375 C65.48610534 77.12335268 67.49061781 81.40789526 69.4921875 85.69921875 C71.62396591 90.36593573 73.60819588 95.09257027 75.609375 99.81640625 C76.78715333 102.51272461 78.03142903 105.13382132 79.375 107.75 C81 111 81 111 81 113 C72.42 113 63.84 113 55 113 C53.53229146 110.06458292 52.06510783 107.12890125 50.6015625 104.19140625 C49.65083203 102.29690188 48.69081961 100.4069358 47.7109375 98.52734375 C45 93.3102518 45 93.3102518 45 90 C25.53 90 6.06 90 -14 90 C-14.33 91.65 -14.66 93.3 -15 95 C-15.93238064 97.37308542 -16.9156713 99.72653464 -17.9375 102.0625 C-18.46214844 103.27035156 -18.98679687 104.47820312 -19.52734375 105.72265625 C-20.62899078 108.17433227 -21.79797325 110.59594651 -23 113 C-31.91 113 -40.82 113 -50 113 C-46.82980957 104.88121963 -43.57045021 96.92578654 -39.8203125 89.05493164 C-37.21739628 83.55414919 -34.81658347 77.97573829 -32.4375 72.375 C-29.53247586 65.53753542 -26.54572361 58.76290853 -23.39453125 52.03515625 C-21.8687037 48.71423746 -20.4289271 45.36370178 -19 42 C-16.13677697 35.26695208 -13.09425253 28.62939597 -10 22 C-8.95702785 19.75060485 -7.91535103 17.50060863 -6.875 15.25 C-6.41867187 14.26515625 -5.96234375 13.2803125 -5.4921875 12.265625 C-3.63039821 8.19113327 -1.81937985 4.09360467 0 0 Z " fill="#030303" transform="translate(529,529)"/>
<path d="M0 0 C4.36196277 1.55638108 6.66345104 4.94956266 9.375 8.5 C9.86178223 9.13075439 10.34856445 9.76150879 10.85009766 10.41137695 C19.16804698 21.33580222 24.74478036 32.98859765 29.1875 45.9375 C29.56261719 47.00967773 29.56261719 47.00967773 29.9453125 48.10351562 C33.33640661 58.3042933 34.36950032 68.54316106 34.3125 79.25 C34.30831055 80.33901611 34.30412109 81.42803223 34.29980469 82.55004883 C34.17693841 91.37746789 33.18115582 99.44460431 31 108 C30.7215625 109.17304688 30.443125 110.34609375 30.15625 111.5546875 C25.37321932 130.06831486 15.31822337 148.20310899 2 162 C1.34 162 0.68 162 0 162 C-21.79712265 137.85436582 -33.79047256 105.04341304 -32.20849609 72.53613281 C-31.32571422 61.79803196 -29.58684862 50.79419932 -25 41 C-24.41195664 39.46012374 -23.82817186 37.91860979 -23.25 36.375 C-17.75743593 22.69540646 -9.57054156 11.11417729 0 0 Z " fill="#FDFDFD" transform="translate(601,248)"/>
<path d="M0 0 C7.26 0 14.52 0 22 0 C22 37.29 22 74.58 22 113 C4 113 4 113 0.29296875 110.1328125 C-0.83154297 108.22705078 -0.83154297 108.22705078 -1.8125 106.125 C-2.66116064 104.64341735 -3.5142026 103.1643377 -4.37109375 101.6875 C-5.0050708 100.52734375 -5.0050708 100.52734375 -5.65185547 99.34375 C-7.92656358 95.38916871 -10.65981873 91.78457469 -13.375 88.125 C-14.47802379 86.60783216 -15.57957871 85.08959536 -16.6796875 83.5703125 C-17.22850586 82.81524414 -17.77732422 82.06017578 -18.34277344 81.28222656 C-21.06956858 77.52705847 -23.78413384 73.76307533 -26.5 70 C-27.57810146 68.5077955 -28.65622651 67.01560803 -29.734375 65.5234375 C-31.95613128 62.44746806 -34.17445332 59.3690577 -36.390625 56.2890625 C-37.51029986 54.73429088 -38.63008997 53.17960224 -39.75 51.625 C-40.28713623 50.87863281 -40.82427246 50.13226562 -41.37768555 49.36328125 C-45.32176037 43.8982411 -49.36450691 38.5180521 -53.48828125 33.1875 C-55 31 -55 31 -55 29 C-55.66 29 -56.32 29 -57 29 C-57 56.39 -57 83.78 -57 112 C-63.93 112 -70.86 112 -78 112 C-78 75.37 -78 38.74 -78 1 C-67.77 1 -57.54 1 -47 1 C-38.48434545 9.79485633 -38.48434545 9.79485633 -36.61328125 13.875 C-34.08824621 18.98081886 -30.98887159 23.34163123 -27.5625 27.875 C-26.4850776 29.35610779 -25.41220629 30.84053619 -24.34375 32.328125 C-23.80234375 33.08158203 -23.2609375 33.83503906 -22.703125 34.61132812 C-19.04236728 39.74562478 -15.43932518 44.9208146 -11.84399414 50.10107422 C-11.29864014 50.88498535 -10.75328613 51.66889648 -10.19140625 52.4765625 C-9.71904541 53.15799316 -9.24668457 53.83942383 -8.76000977 54.54150391 C-6.23311415 58.07123602 -3.60459511 61.52720652 -1 65 C-0.67 43.55 -0.34 22.1 0 0 Z " fill="#020202" transform="translate(706,529)"/>
<path d="M0 0 C26.07 0 52.14 0 79 0 C79 7.59 79 15.18 79 23 C60.19 23 41.38 23 22 23 C22 30.26 22 37.52 22 45 C39.16 45 56.32 45 74 45 C74 52.59 74 60.18 74 68 C56.84 68 39.68 68 22 68 C22 75.26 22 82.52 22 90 C43.45 90 64.9 90 87 90 C87 97.59 87 105.18 87 113 C58.29 113 29.58 113 0 113 C0 75.71 0 38.42 0 0 Z " fill="#050505" transform="translate(768,529)"/>
<path d="M0 0 C7.26 0 14.52 0 22 0 C22 13.53 22 27.06 22 41 C40.81 41 59.62 41 79 41 C79 27.47 79 13.94 79 0 C86.26 0 93.52 0 101 0 C101 37.29 101 74.58 101 113 C93.74 113 86.48 113 79 113 C79 96.5 79 80 79 63 C60.19 63 41.38 63 22 63 C22 79.5 22 96 22 113 C14.74 113 7.48 113 0 113 C0 75.71 0 38.42 0 0 Z " fill="#040404" transform="translate(361,529)"/>
<path d="M0 0 C7.42941356 5.71572287 12.84165949 12.26248923 18 20 C18 20.99 18 21.98 18 23 C16.43945312 24.44213867 16.43945312 24.44213867 14.28125 25.91796875 C13.51425781 26.44970703 12.74726563 26.98144531 11.95703125 27.52929688 C11.14621094 28.07650391 10.33539063 28.62371094 9.5 29.1875 C8.68917969 29.74630859 7.87835938 30.30511719 7.04296875 30.88085938 C5.03465764 32.26304996 3.02035521 33.63550165 1 35 C-0.47558239 33.04323286 -1.93736953 31.09126682 -3.32421875 29.0703125 C-8.3874451 21.84542218 -15.0673365 15.70608325 -24 14 C-34.71060418 12.86228561 -42.82359227 13.76418025 -52 20 C-54.98246784 22.39545381 -54.98246784 22.39545381 -57 25 C-57.680625 25.7425 -58.36125 26.485 -59.0625 27.25 C-65.44913278 36.31489814 -66.25860436 45.14791351 -65 56 C-62.98405311 64.81127349 -57.92492274 72.19125338 -50.5625 77.375 C-42.42168439 82.33496713 -34.38314298 82.73255307 -25 82 C-21.84296964 81.14233618 -21.84296964 81.14233618 -19 80 C-18.32195312 79.75121094 -17.64390625 79.50242187 -16.9453125 79.24609375 C-10.23203252 76.26401445 -4.75025548 70.97430623 -1.7734375 64.21484375 C-1.51820313 63.48394531 -1.26296875 62.75304687 -1 62 C1.69673919 63.29630899 4.18965614 64.7137343 6.671875 66.3828125 C7.33574219 66.82753906 7.99960937 67.27226563 8.68359375 67.73046875 C9.36550781 68.19066406 10.04742187 68.65085937 10.75 69.125 C11.44738281 69.59292969 12.14476562 70.06085938 12.86328125 70.54296875 C14.57692526 71.69322295 16.28865316 72.84633086 18 74 C12.86516228 87.89285533 0.87860448 96.74755251 -12 103 C-24.13810127 108.15524472 -39.77136669 107.53810471 -52 103 C-66.79182253 96.84023254 -76.71757836 85.56484328 -83.75 71.5 C-84.1625 70.345 -84.575 69.19 -85 68 C-85.27714844 67.27296875 -85.55429688 66.5459375 -85.83984375 65.796875 C-90.23323406 52.59645802 -89.27374997 37.74489577 -84 25 C-83.71125 24.2678125 -83.4225 23.535625 -83.125 22.78125 C-77.09857205 9.22178711 -64.44077553 -1.95639029 -50.7421875 -7.26171875 C-32.86341557 -12.96132725 -15.62644855 -10.25237805 0 0 Z " fill="#030303" transform="translate(320,538)"/>
<path d="M0 0 C7.26 0 14.52 0 22 0 C22 29.7 22 59.4 22 90 C42.46 90 62.92 90 84 90 C84 97.59 84 105.18 84 113 C56.28 113 28.56 113 0 113 C0 75.71 0 38.42 0 0 Z " fill="#060606" transform="translate(885,529)"/>
<path d="M0 0 C3.63693397 4.05780187 5.45587274 8.05914086 7.375 13.0625 C9.87460976 19.36568711 12.61335543 25.43485591 15.7109375 31.47265625 C20 39.88181818 20 39.88181818 20 44 C7.46 44 -5.08 44 -18 44 C-15.72859883 34.91439531 -11.95488385 26.45938903 -8 18 C-5.26426304 12.02818481 -2.55509463 6.05153992 0 0 Z " fill="#FAFAFA" transform="translate(544,553)"/>
</svg>
