<?xml version="1.0" encoding="UTF-8"?>
<svg version="1.1" xmlns="http://www.w3.org/2000/svg" width="524" height="524">
<path d="M0 0 C172.92 0 345.84 0 524 0 C524 172.92 524 345.84 524 524 C351.08 524 178.16 524 0 524 C0 351.08 0 178.16 0 0 Z " fill="#FEFEFE" transform="translate(0,0)"/>
<path d="M0 0 C4.91876397 3.10519092 10.18809605 7.53071152 11.9375 13.24609375 C12.040625 13.82488281 12.14375 14.40367187 12.25 15 C13.14460938 14.99097656 14.03921875 14.98195312 14.9609375 14.97265625 C23.90860505 15.19205535 29.83873374 16.55237495 36.25 23 C40.65586047 28.31500628 42.0337899 33.43734444 41.66015625 40.296875 C40.49006161 48.00835584 37.19744675 52.67623051 31.25 57.58984375 C27.60765361 60.15798251 24.92596307 61.24175135 20.44140625 61.30859375 C19.52939453 61.33373047 18.61738281 61.35886719 17.67773438 61.38476562 C15.77155107 61.41984875 13.86529359 61.45111488 11.95898438 61.47851562 C5.60974416 61.66222688 1.87313301 62.37686699 -2.75 67 C-3.08 68.98 -3.41 70.96 -3.75 73 C-8.04 73 -12.33 73 -16.75 73 C-16.95625 71.9275 -17.1625 70.855 -17.375 69.75 C-18.7176987 66.08809445 -19.53302663 64.7963797 -22.78808594 62.78125 C-27.63480298 60.85124819 -33.30310223 61.57578235 -38.43164062 61.6875 C-45.70182246 61.6274572 -50.27042311 59.82300143 -55.75 55 C-61.40180542 48.73399718 -62.13505472 43.22604471 -62.015625 35.03515625 C-61.44817332 28.55118627 -58.70685717 24.507867 -54 20.125 C-49.11224653 16.47961865 -44.18739767 16.05511268 -38.24707031 15.96923828 C-35.95663581 15.92944391 -35.95663581 15.92944391 -32.75 15 C-30.95021317 11.70886083 -30.95021317 11.70886083 -29.75 8 C-27.6640625 5.63671875 -27.6640625 5.63671875 -25.375 3.6875 C-24.62476563 3.03136719 -23.87453125 2.37523437 -23.1015625 1.69921875 C-16.23261164 -3.26422581 -7.56793013 -3.84875899 0 0 Z " fill="#1644F9" transform="translate(103.75,240)"/>
<path d="M0 0 C0.33 0 0.66 0 1 0 C1.50164285 7.45497009 1.29150319 13.67003279 -3 20 C-6.9035136 24.18347871 -11.40549568 28.57655664 -17.30249023 29.27124023 C-18.12950439 29.28356689 -18.95651855 29.29589355 -19.80859375 29.30859375 C-20.72060547 29.33373047 -21.63261719 29.35886719 -22.57226562 29.38476562 C-24.47844893 29.41984875 -26.38470641 29.45111488 -28.29101562 29.47851562 C-34.64025584 29.66222688 -38.37686699 30.37686699 -43 35 C-43.33 36.98 -43.66 38.96 -44 41 C-48.29 41 -52.58 41 -57 41 C-57.20625 39.9275 -57.4125 38.855 -57.625 37.75 C-58.9676987 34.08809445 -59.78302663 32.7963797 -63.03808594 30.78125 C-67.88480298 28.85124819 -73.55310223 29.57578235 -78.68164062 29.6875 C-85.97580714 29.62725912 -90.47861336 27.79004381 -96 23 C-99.39955327 19.40578432 -100.88908684 17.14610264 -101.375 12.125 C-101 9 -101 9 -100 8 C-94.99703411 6.44735541 -94.99703411 6.44735541 -92 7 C-89.75865197 9.1197245 -88.15270279 11.33338139 -86.4453125 13.8984375 C-85.16903776 16.11695946 -85.16903776 16.11695946 -83 17 C-81.49991925 17.1049298 -79.99579289 17.15520622 -78.4921875 17.17578125 C-77.13480469 17.21155273 -77.13480469 17.21155273 -75.75 17.24804688 C-73.85698858 17.29048531 -71.96369627 17.32201919 -70.0703125 17.34179688 C-63.71805349 17.5346974 -59.45154637 18.80617285 -54 22 C-52.34302621 22.69040574 -50.68076231 23.36971413 -49 24 C-48.2575 23.38125 -47.515 22.7625 -46.75 22.125 C-42.82406172 19.09132042 -40.21148646 17.76277734 -35.2265625 17.7265625 C-33.8653125 17.695625 -33.8653125 17.695625 -32.4765625 17.6640625 C-30.58342319 17.63812908 -28.69016303 17.61983515 -26.796875 17.609375 C-21.07520393 17.4634967 -17.44857791 16.9810522 -13 13 C-11.70754973 11.16775053 -11.70754973 11.16775053 -11.125 9.25 C-10.568125 7.64125 -10.568125 7.64125 -10 6 C-6.7 6 -3.4 6 0 6 C0 4.02 0 2.04 0 0 Z " fill="#04C9FE" transform="translate(144,272)"/>
<path d="M0 0 C2.64 0 5.28 0 8 0 C8 14.19 8 28.38 8 43 C5.36 43 2.72 43 0 43 C-0.33 42.34 -0.66 41.68 -1 41 C-1.66 41.495 -2.32 41.99 -3 42.5 C-6.75775376 44.37887688 -9.92817865 44.96397286 -14 44 C-18.10933813 41.51995023 -21.25833652 38.5217836 -23 34 C-23.76527132 28.28865927 -24.0935935 22.74817594 -20.6875 17.875 C-16.28750682 13.16803055 -16.28750682 13.16803055 -12.6953125 12.69921875 C-11.84710938 12.69535156 -10.99890625 12.69148438 -10.125 12.6875 C-9.28195312 12.67074219 -8.43890625 12.65398437 -7.5703125 12.63671875 C-5 13 -5 13 0 16 C0 10.72 0 5.44 0 0 Z " fill="#18235D" transform="translate(419,257)"/>
<path d="M0 0 C2.64 0 5.28 0 8 0 C8 14.19 8 28.38 8 43 C5.36 43 2.72 43 0 43 C-0.33 42.34 -0.66 41.68 -1 41 C-1.680625 41.495 -2.36125 41.99 -3.0625 42.5 C-6.74140375 44.37858915 -8.9091225 44.50238846 -13 44 C-17.78893551 41.5585819 -20.73191149 38.88511372 -23 34 C-23.76420174 28.32307279 -23.79775329 23.62399778 -21.25 18.4375 C-16.45325654 13.24102791 -16.45325654 13.24102791 -12.59765625 12.6015625 C-11.34275391 12.61316406 -11.34275391 12.61316406 -10.0625 12.625 C-9.22847656 12.61726563 -8.39445312 12.60953125 -7.53515625 12.6015625 C-5 13 -5 13 0 16 C0 10.72 0 5.44 0 0 Z " fill="#19225D" transform="translate(309,257)"/>
<path d="M0 0 C4.87986993 2.2656539 7.66705454 5.15465173 10 10 C10.94878986 15.28484817 10.5641657 19.71472028 7.9375 24.4375 C5.19567369 28.23919194 2.58730618 29.77671835 -2 31 C-6.72454547 31.65137712 -9.98896156 31.49598112 -14.3125 29.375 C-19.25303031 25.00894996 -21.26282828 21.73655587 -21.6875 15.125 C-21.52122574 9.3198595 -19.78251213 6.45669415 -15.7265625 2.42578125 C-11.23116752 -1.28647931 -5.5480146 -0.51558774 0 0 Z " fill="#17215C" transform="translate(383,270)"/>
<path d="M0 0 C3.85405943 2.23802848 6.99031203 4.98062407 9 9 C9.78258687 15.64080854 9.50234253 20.91859454 5.4765625 26.40625 C2.00485574 30.15348904 -1.55135856 31.16349804 -6.5 31.4375 C-10.99477127 31.27130678 -13.550028 29.96858056 -17 27 C-21.39893104 22.00661882 -22.35676337 19.08984773 -22.28125 12.5390625 C-21.74936498 7.7373227 -19.14104391 5.0756716 -15.75 1.87890625 C-10.88210797 -1.44702566 -5.65211704 -1.04064249 0 0 Z " fill="#16215C" transform="translate(242,270)"/>
<path d="M0 0 C0.99 0.70125 1.98 1.4025 3 2.125 C3.99 2.785 4.98 3.445 6 4.125 C4.84826645 6.59300047 3.95216435 8.17283565 2 10.125 C-0.24608968 9.82552138 -1.87582813 9.1933467 -3.859375 8.1015625 C-7.50499838 6.43841315 -11.07804802 6.56763421 -15 7.125 C-19.09291254 9.20866456 -21.3052084 10.88418664 -23 15.125 C-23.7112188 20.06218164 -23.62448698 24.66582563 -21.25 29.125 C-18.70732857 32.51522858 -17.02374234 33.80856029 -12.8515625 34.4609375 C-7.29518433 34.55841782 -4.53526948 33.58044341 0 30.125 C0.99 30.125 1.98 30.125 3 30.125 C3 30.785 3 31.445 3 32.125 C4.32 32.785 5.64 33.445 7 34.125 C5.15346458 38.79623554 2.25828411 40.08461289 -2.14453125 42.13671875 C-8.26299284 44.25432584 -14.358575 44.17088619 -20.3125 41.5625 C-25.50811651 38.5646186 -29.83040473 33.74042305 -32 28.125 C-32.81259025 20.70049115 -33.37179517 12.96216435 -28.62890625 6.7734375 C-21.13435547 -0.81097599 -10.3031539 -5.90948486 0 0 Z " fill="#18225D" transform="translate(198,257.875)"/>
<path d="M0 0 C3.94112835 1.83341868 5.77559219 3.16032182 7.5078125 7.2421875 C5.7578125 9.3046875 5.7578125 9.3046875 3.5078125 11.2421875 C1.1379722 11.09407248 -0.28150927 10.35839318 -2.34765625 9.21875 C-6.03417572 7.54000707 -9.54098589 7.45858785 -13.4921875 8.2421875 C-16.86823402 10.28410061 -19.71413935 12.68609121 -21.4921875 16.2421875 C-22.08325237 21.92550358 -21.76462166 26.38995753 -18.4921875 31.2421875 C-16.27368443 33.72169093 -14.70103568 35.04331969 -11.37890625 35.58984375 C-6.25574616 35.78788187 -3.0074223 34.76231855 1.5078125 32.2421875 C5.5078125 32.2421875 5.5078125 32.2421875 7.2578125 33.7421875 C7.6703125 34.2371875 8.0828125 34.7321875 8.5078125 35.2421875 C6.67174552 39.67934936 4.24236876 41.43836875 -0.0546875 43.4296875 C-6.73833134 45.00945786 -13.03870348 45.38576394 -19.3046875 42.2421875 C-24.14747572 39.19044843 -28.26796031 34.8622949 -30.12890625 29.359375 C-31.25529226 22.79484577 -31.80185916 15.52378049 -27.8984375 9.8359375 C-20.12605588 1.02723833 -11.95336194 -3.63472134 0 0 Z " fill="#17215C" transform="translate(351.4921875,256.7578125)"/>
<path d="M0 0 C4.45860742 2.11197193 7.12154533 4.40822192 9 9 C9 11.64 9 14.28 9 17 C1.74 17 -5.52 17 -13 17 C-11.23148964 20.18074165 -11.23148964 20.18074165 -9 23 C-5.58375742 23.33354403 -5.58375742 23.33354403 -2 23 C-0.9805881 22.01979625 0.02246356 21.02196992 1 20 C3.67479327 20.26095544 5.60095141 20.8004757 8 22 C7.43925205 25.23987703 6.6830797 26.75219336 4.0625 28.75 C-0.43227003 31.73726485 -4.76632567 31.93427575 -10 31 C-15.31565158 28.34217421 -19.10236008 24.69291975 -21 19 C-21.54225459 14.33305478 -21.4698456 10.92228952 -19.3125 6.6875 C-18.1678125 5.3571875 -18.1678125 5.3571875 -17 4 C-16.34 3.21625 -15.68 2.4325 -15 1.625 C-10.1728451 -0.98970891 -5.36162643 -0.71924257 0 0 Z " fill="#18225D" transform="translate(451,270)"/>
<path d="M0 0 C2.64 0 5.28 0 8 0 C8.02505615 0.59538574 8.0501123 1.19077148 8.07592773 1.80419922 C8.19177494 4.49469136 8.31455196 7.1848234 8.4375 9.875 C8.47681641 10.81214844 8.51613281 11.74929688 8.55664062 12.71484375 C8.61948242 14.05869141 8.61948242 14.05869141 8.68359375 15.4296875 C8.72025146 16.25710449 8.75690918 17.08452148 8.79467773 17.93701172 C8.88238327 20.06179429 8.88238327 20.06179429 10 22 C13.41656024 22.16677282 13.41656024 22.16677282 17 22 C19.43914492 19.56085508 19.28662523 18.78553569 19.4140625 15.4296875 C19.45273437 14.53378906 19.49140625 13.63789063 19.53125 12.71484375 C19.5621875 11.77769531 19.593125 10.84054687 19.625 9.875 C19.66367187 8.93011719 19.70234375 7.98523438 19.7421875 7.01171875 C19.83661346 4.67467625 19.92218394 2.33764499 20 0 C22.64 0 25.28 0 28 0 C28 9.9 28 19.8 28 30 C25.69 30 23.38 30 21 30 C21 29.01 21 28.02 21 27 C20.175 27.66 19.35 28.32 18.5 29 C14.5218269 31.63330607 11.70598109 31.5975849 7 31 C2.91561313 28.60264249 1.44786606 26.42358857 0 22 C-0.22705078 19.4128418 -0.22705078 19.4128418 -0.1953125 16.69921875 C-0.18886719 15.72275391 -0.18242187 14.74628906 -0.17578125 13.74023438 C-0.15902344 12.73283203 -0.14226562 11.72542969 -0.125 10.6875 C-0.11597656 9.66076172 -0.10695312 8.63402344 -0.09765625 7.57617188 C-0.07416201 5.05054101 -0.04131131 2.5253919 0 0 Z " fill="#1B255F" transform="translate(254,270)"/>
<path d="M0 0 C2.64 0 5.28 0 8 0 C8 14.19 8 28.38 8 43 C5.36 43 2.72 43 0 43 C0 28.81 0 14.62 0 0 Z " fill="#1A235E" transform="translate(209,257)"/>
<path d="M0 0 C2.875 1.5 2.875 1.5 5 4 C5.94237143 7.99893269 5.61136591 10.98105682 3.5 14.5 C-0.28726141 16.77235685 -2.61177849 16.55723448 -7 16 C-9.36110026 14.22917481 -9.84291198 12.9703665 -10.30859375 10.09375 C-10.5291362 6.51160594 -10.36111402 4.55556004 -8.375 1.5 C-5.25991849 -0.4674199 -3.62829011 -0.5923739 0 0 Z " fill="#F4F5F7" transform="translate(414,277)"/>
<path d="M0 0 C2.875 1.5 2.875 1.5 5 4 C5.94237143 7.99893269 5.61136591 10.98105682 3.5 14.5 C-0.28726141 16.77235685 -2.61177849 16.55723448 -7 16 C-9.36110026 14.22917481 -9.84291198 12.9703665 -10.30859375 10.09375 C-10.5291362 6.51160594 -10.36111402 4.55556004 -8.375 1.5 C-5.25991849 -0.4674199 -3.62829011 -0.5923739 0 0 Z " fill="#F3F4F7" transform="translate(380,277)"/>
<path d="M0 0 C2.875 1.5 2.875 1.5 5 4 C5.94237143 7.99893269 5.61136591 10.98105682 3.5 14.5 C-0.28726141 16.77235685 -2.61177849 16.55723448 -7 16 C-9.36110026 14.22917481 -9.84291198 12.9703665 -10.30859375 10.09375 C-10.5291362 6.51160594 -10.36111402 4.55556004 -8.375 1.5 C-5.25991849 -0.4674199 -3.62829011 -0.5923739 0 0 Z " fill="#F4F5F7" transform="translate(304,277)"/>
<path d="M0 0 C2.4375 1.5 2.4375 1.5 4 4 C4.80414661 8.04560357 4.63828902 10.97873756 2.4375 14.5 C-0.97532932 16.60020266 -3.06688873 16.63210717 -7 16 C-10.22456813 13.27151928 -10.91290117 11.62057913 -11.5 7.4375 C-11 4 -11 4 -9.4375 1.5625 C-6.05782196 -0.60396028 -3.94016013 -0.56288002 0 0 Z " fill="#F4F5F8" transform="translate(239,277)"/>
<path d="M0 0 C7.26 0 14.52 0 22 0 C22 0.33 22 0.66 22 1 C21.278125 1.0825 20.55625 1.165 19.8125 1.25 C16.07634482 2.24630805 13.70765946 4.29234054 11 7 C4.78810624 7.58602771 4.78810624 7.58602771 1.5625 5.1875 C0 3 0 3 0 0 Z " fill="#E0E2EA" transform="translate(438,287)"/>
<path d="M0 0 C0.33 0.66 0.66 1.32 1 2 C4.3 2 7.6 2 11 2 C12.35439668 4.70879335 12.06501451 7.00933268 12 10 C11.01 9.34 10.02 8.68 9 8 C5.42823885 8.08167489 5.42823885 8.08167489 2 9 C1.34 9.99 0.68 10.98 0 12 C0 8.04 0 4.08 0 0 Z " fill="#0978F7" transform="translate(42,272)"/>
<path d="M0 0 C3.96 0 7.92 0 12 0 C12 2.31 12 4.62 12 7 C8.7 7 5.4 7 2 7 C1.67 7.66 1.34 8.32 1 9 C0.67 6.03 0.34 3.06 0 0 Z " fill="#0E71FA" transform="translate(132,271)"/>
<path d="M0 0 C2.64 0 5.28 0 8 0 C8 0.99 8 1.98 8 3 C8.66 3 9.32 3 10 3 C10.33 2.01 10.66 1.02 11 0 C11.66 0 12.32 0 13 0 C13 2.31 13 4.62 13 7 C12.34 7 11.68 7 11 7 C10.67 6.34 10.34 5.68 10 5 C9.34 5 8.68 5 8 5 C7.67 5.66 7.34 6.32 7 7 C5.02 7 3.04 7 1 7 C0.67 4.69 0.34 2.38 0 0 Z " fill="#7E84A4" transform="translate(462,270)"/>
<path d="M0 0 C3.47214266 0.27232491 4.7550428 0.8175428 7.1875 3.25 C7.1875 3.91 7.1875 4.57 7.1875 5.25 C2.8975 5.25 -1.3925 5.25 -5.8125 5.25 C-3.33575581 0.29651163 -3.33575581 0.29651163 0 0 Z " fill="#ECEDF2" transform="translate(444.8125,275.75)"/>
<path d="M0 0 C0.33 0 0.66 0 1 0 C1 3.63 1 7.26 1 11 C0.01 11.495 0.01 11.495 -1 12 C-1.33 10.68 -1.66 9.36 -2 8 C-4.31 7.67 -6.62 7.34 -9 7 C-9.0825 7.721875 -9.165 8.44375 -9.25 9.1875 C-10.14750201 12.55313254 -11.7114278 14.41612816 -14 17 C-14.99 16.67 -15.98 16.34 -17 16 C-16.21625 15.278125 -15.4325 14.55625 -14.625 13.8125 C-12.15587562 11.16700959 -11.06739722 9.39626389 -10 6 C-6.7 6 -3.4 6 0 6 C0 4.02 0 2.04 0 0 Z " fill="#14A5FC" transform="translate(144,272)"/>
<path d="M0 0 C1.125 3.75 1.125 3.75 0 6 C2.97 6 5.94 6 9 6 C8.67 7.32 8.34 8.64 8 10 C8 9.34 8 8.68 8 8 C4.7 8 1.4 8 -2 8 C-1.125 1.125 -1.125 1.125 0 0 Z " fill="#1B62F6" transform="translate(45,266)"/>
<path d="M0 0 C0.33 0 0.66 0 1 0 C1 1.98 1 3.96 1 6 C4.3 6 7.6 6 11 6 C10.67 6.66 10.34 7.32 10 8 C7.97399825 8.22511131 5.94540724 8.4440878 3.91015625 8.55859375 C1.59575188 8.86342704 1.59575188 8.86342704 0 12 C0 8.04 0 4.08 0 0 Z " fill="#1EA1FA" transform="translate(42,272)"/>
<path d="M0 0 C0.66 0 1.32 0 2 0 C2 2.31 2 4.62 2 7 C1.34 7 0.68 7 0 7 C-0.33 6.34 -0.66 5.68 -1 5 C-1.66 5 -2.32 5 -3 5 C-3.66 5.66 -4.32 6.32 -5 7 C-5 5.02 -5 3.04 -5 1 C-4.34 1 -3.68 1 -3 1 C-3 1.66 -3 2.32 -3 3 C-2.34 3 -1.68 3 -1 3 C-0.67 2.01 -0.34 1.02 0 0 Z " fill="#3E4576" transform="translate(473,270)"/>
<path d="M0 0 C2 3 2 3 1.7578125 5.69921875 C1.44457031 7.17841797 1.44457031 7.17841797 1.125 8.6875 C0.81949219 10.17830078 0.81949219 10.17830078 0.5078125 11.69921875 C0.34023438 12.45847656 0.17265625 13.21773438 0 14 C-0.33 14 -0.66 14 -1 14 C-1.02694851 12.04174127 -1.04637218 10.08337774 -1.0625 8.125 C-1.07410156 7.03445313 -1.08570313 5.94390625 -1.09765625 4.8203125 C-1 2 -1 2 0 0 Z " fill="#232C64" transform="translate(397,277)"/>
<path d="M0 0 C0.99 0.33 1.98 0.66 3 1 C-0.465 3.97 -0.465 3.97 -4 7 C-3.04065919 3.16263678 -2.76390737 2.40339772 0 0 Z " fill="#0B1553" transform="translate(329,261)"/>
</svg>
