<?xml version="1.0" encoding="UTF-8"?>
<svg version="1.1" xmlns="http://www.w3.org/2000/svg" width="524" height="524">
<path d="M0 0 C172.92 0 345.84 0 524 0 C524 172.92 524 345.84 524 524 C351.08 524 178.16 524 0 524 C0 351.08 0 178.16 0 0 Z " fill="#FEFEFE" transform="translate(0,0)"/>
<path d="M0 0 C0.87664307 0.00604248 1.75328613 0.01208496 2.65649414 0.01831055 C11.12447594 0.14827213 17.75972918 0.83266305 25.0625 5.25 C26.90113062 6.1038657 28.74008627 6.95708427 30.58374023 7.80004883 C39.42888224 11.91635639 46.54612687 16.95590422 53.0625 24.25 C55.73636968 32.27160904 54.86035065 42.39953882 51.69140625 50.15234375 C48.99289865 55.28403806 45.85111899 60.17309569 42.59643555 64.9699707 C39.68712677 69.10778081 39.68712677 69.10778081 39.50390625 73.9140625 C40.01824219 74.68492187 40.53257812 75.45578125 41.0625 76.25 C41.64644531 77.19875 42.23039062 78.1475 42.83203125 79.125 C43.50621094 80.15625 44.18039063 81.1875 44.875 82.25 C50.35288201 90.85080997 55.15819329 100.81216812 55.3125 111.125 C55.33828125 112.15367187 55.3640625 113.18234375 55.390625 114.2421875 C54.68145141 120.74294545 49.89791359 125.24515915 45.0625 129.25 C40.82153372 132.08601563 36.47190308 134.68249947 32.0625 137.25 C31.23234375 137.78753906 30.4021875 138.32507813 29.546875 138.87890625 C20.34218352 143.95885391 8.57656898 143.5794473 -1.625 143.6875 C-2.75244629 143.70965576 -3.87989258 143.73181152 -5.04150391 143.75463867 C-22.25693442 143.71066406 -37.19948444 135.81882785 -49.28515625 123.9296875 C-50.16042969 123.04539062 -51.03570312 122.16109375 -51.9375 121.25 C-52.61683594 120.59257812 -53.29617187 119.93515625 -53.99609375 119.2578125 C-67.33537369 105.41348187 -71.48508947 85.00007173 -71.21484375 66.4765625 C-70.50187801 46.96045549 -60.35177651 30.95915768 -46.734375 17.671875 C-33.56982605 6.27240524 -17.34325069 -0.19161051 0 0 Z " fill="#54BEE1" transform="translate(88.9375,173.75)"/>
<path d="M0 0 C1.83863062 0.8538657 3.67758627 1.70708427 5.52124023 2.55004883 C14.36638224 6.66635639 21.48362687 11.70590422 28 19 C30.67272755 27.01818266 29.8032008 37.1554793 26.625 44.90234375 C23.9380163 50.02440644 20.8329239 54.9105845 17.62182617 59.7199707 C14.69118661 64.01887917 14.69118661 64.01887917 14.17578125 69.0390625 C14.44777344 69.68617188 14.71976562 70.33328125 15 71 C14.12057739 71.15275391 14.12057739 71.15275391 13.22338867 71.30859375 C10.61174719 72.12073481 9.39555514 73.17983681 7.42578125 75.0625 C6.76263916 75.69027344 6.09949707 76.31804687 5.41625977 76.96484375 C4.72201904 77.63644531 4.02777832 78.30804688 3.3125 79 C2.23730103 80.02287109 2.23730103 80.02287109 1.14038086 81.06640625 C-2.61451361 84.65164803 -6.30511888 88.29033418 -9.9375 92 C-18.30704716 100.43368162 -18.30704716 100.43368162 -23 103 C-27.15396024 102.95699834 -30.02027469 99.78119522 -33 97.1875 C-33.85223145 96.45370117 -33.85223145 96.45370117 -34.72167969 95.70507812 C-44.42367961 87.24471919 -53.08329176 78.15577724 -61 68 C-57.59299118 60.820593 -52.21823806 55.91589386 -46.5625 50.4375 C-39.57476394 43.78119968 -39.57476394 43.78119968 -33.15234375 36.59765625 C-30.98395098 33.98063049 -28.72156623 32.02173492 -26 30 C-38.5620977 19.94509851 -51.1032431 14.36760209 -67 12 C-66.05408745 8.34966633 -65.17346598 7.12337912 -62.05078125 4.90234375 C-60.81636716 4.22563979 -59.56923481 3.57179018 -58.3125 2.9375 C-57.30546021 2.42316406 -57.30546021 2.42316406 -56.27807617 1.8984375 C-39.94995386 -6.12547219 -16.32281224 -9.87342522 0 0 Z " fill="#7EE3D5" transform="translate(114,179)"/>
<path d="M0 0 C6.31363903 3.50128562 10.67152995 7.93646484 12.98828125 14.88671875 C13.62718948 22.54314356 13.89658845 29.61896786 8.98828125 35.88671875 C6.80052556 38.11000643 4.48896228 40.02765983 1.98828125 41.88671875 C1.405625 42.42683594 0.82296875 42.96695313 0.22265625 43.5234375 C-4.7214506 46.54003416 -11.43165646 45.50411236 -17.01171875 44.88671875 C-23.70132518 42.58172419 -28.41045664 36.9410997 -32.14453125 31.12109375 C-34.43276453 25.22528549 -34.16985544 17.01324745 -31.984375 11.11328125 C-24.86595796 -0.44182232 -12.99651924 -4.80416081 0 0 Z " fill="#393939" transform="translate(253.01171875,223.11328125)"/>
<path d="M0 0 C0.66 0.33 1.32 0.66 2 1 C1.67 1.33 1.34 1.66 1 2 C2.05316406 2.1959375 3.10632813 2.391875 4.19140625 2.59375 C17.76073539 5.32819941 28.99973629 10.49979622 40 19 C40.99 19.66 41.98 20.32 43 21 C42.03900391 21.72703125 42.03900391 21.72703125 41.05859375 22.46875 C36.26279932 26.185312 32.04922232 29.85800162 28.1875 34.52734375 C24.45583968 38.74545265 20.37410604 42.628874 16.3293457 46.54516602 C12.6692859 50.13856833 9.66610396 53.61274032 7 58 C6.01 57.34 5.02 56.68 4 56 C4 55.34 4 54.68 4 54 C2.515 53.505 2.515 53.505 1 53 C-1 50 -1 50 -1 46 C-1.66 46 -2.32 46 -3 46 C-8.59535325 35.48594087 -13.74295495 25.22371158 -13 13 C-11.62672968 9.74323244 -9.79856225 8.08577604 -7 6 C-5.70679056 4.85590815 -4.41508113 3.71011818 -3.125 2.5625 C-2.08792692 1.70276192 -1.04796218 0.84643099 0 0 Z " fill="#4ED5E0" transform="translate(47,188)"/>
<path d="M0 0 C3.66260971 0.89142882 5.37065079 2.1558354 7.31640625 5.2734375 C8.0841296 6.6300329 8.83198545 7.99801099 9.5625 9.375 C10.14729126 10.45539551 10.14729126 10.45539551 10.74389648 11.55761719 C15.82879453 21.18271721 19.78789027 30.90219463 18 42 C15.69122145 46.40995577 13.79964078 49.40011974 9 51 C-6.42467125 52.79059202 -19.65285442 46.48749157 -32 38 C-32.99 37.34 -33.98 36.68 -35 36 C-34.70128664 32.80266072 -34.35612186 31.34767628 -32.0234375 29.0703125 C-31.14945312 28.42835938 -30.27546875 27.78640625 -29.375 27.125 C-24.31127853 23.19021774 -19.80407289 18.94963584 -15.3125 14.375 C-10.37506138 9.35555032 -5.40542149 4.5229037 0 0 Z " fill="#4BD2E1" transform="translate(126,249)"/>
<path d="M0 0 C2.62764349 0.97320129 4.63996967 2.1556624 6.92578125 3.7734375 C19.22855336 12.3940419 31.4441661 15.95183232 46.42578125 14.8984375 C42.27314549 19.45294124 37.61739857 22.61283353 32.42578125 25.8984375 C31.39453125 26.6203125 30.36328125 27.3421875 29.30078125 28.0859375 C19.4416087 33.36921606 7.62317035 33.21410281 -3.26171875 33.3359375 C-4.95312988 33.36929199 -4.95312988 33.36929199 -6.67871094 33.40332031 C-17.26792947 33.37549463 -26.30123486 30.50892036 -35.51171875 25.3984375 C-36.55199219 24.83125 -37.59226562 24.2640625 -38.6640625 23.6796875 C-41.52148045 21.93071759 -44.08216821 20.1380704 -46.57421875 17.8984375 C-46.57421875 17.2384375 -46.57421875 16.5784375 -46.57421875 15.8984375 C-45.84460937 15.90746094 -45.115 15.91648437 -44.36328125 15.92578125 C-29.86644112 15.51414258 -17.0076803 9.5263269 -5.2734375 1.3046875 C-2.57421875 -0.1015625 -2.57421875 -0.1015625 0 0 Z " fill="#28ABD4" transform="translate(90.57421875,284.1015625)"/>
<path d="M0 0 C0.66 0 1.32 0 2 0 C2.06316406 0.99257812 2.12632813 1.98515625 2.19140625 3.0078125 C2.96289463 12.25308199 4.97836751 19.1187783 9.5390625 27.20703125 C11 30 11 30 11 33 C11.66 33 12.32 33 13 33 C13.433125 34.093125 13.86625 35.18625 14.3125 36.3125 C15.28998393 38.64162439 15.90929498 39.91253445 17.75 41.6875 C18.1625 42.120625 18.575 42.55375 19 43 C18.53585192 45.98212188 17.44250504 48.18320059 15.85546875 50.72265625 C15.42741943 51.42100586 14.99937012 52.11935547 14.55834961 52.83886719 C14.10596924 53.57266602 13.65358887 54.30646484 13.1875 55.0625 C7.46288253 64.55797513 2.786566 73.99245036 2.9375 85.3125 C2.94652344 86.19550781 2.95554687 87.07851563 2.96484375 87.98828125 C2.97644531 88.65214844 2.98804687 89.31601562 3 90 C2.01 90 1.02 90 0 90 C-12.65258923 74.06514913 -16.5655849 53.84378864 -15 34 C-13.28305804 21.67874022 -7.87016784 9.61909402 0 0 Z " fill="#27AED4" transform="translate(33,201)"/>
<path d="M0 0 C5.8720158 2.92595308 9.2132273 7.46725761 12.21875 13.19921875 C13.21168628 16.1780276 13.35281411 18.21523073 13.34375 21.32421875 C13.34761719 22.65839844 13.34761719 22.65839844 13.3515625 24.01953125 C13.21875 26.19921875 13.21875 26.19921875 12.21875 27.19921875 C9.8430648 27.28761545 7.49666326 27.3145218 5.12109375 27.296875 C4.05780602 27.29475258 4.05780602 27.29475258 2.97303772 27.29258728 C0.70073288 27.28697318 -1.57147475 27.27441838 -3.84375 27.26171875 C-5.38085796 27.25670556 -6.91796745 27.25214234 -8.45507812 27.24804688 C-12.23050642 27.23699917 -16.00586171 27.21972516 -19.78125 27.19921875 C-17.74322865 31.25946196 -17.74322865 31.25946196 -13.78125 33.19921875 C-12.13845783 33.31714874 -10.49072306 33.37433549 -8.84375 33.38671875 C-7.56177734 33.40798828 -7.56177734 33.40798828 -6.25390625 33.4296875 C-3.6254064 33.18469304 -2.08688014 32.42071216 0.21875 31.19921875 C3.81311764 31.56787184 6.91140585 32.78178554 10.21875 34.19921875 C9.88895317 37.27732253 9.26874261 38.15463075 6.90625 40.26171875 C6.019375 40.90109375 5.1325 41.54046875 4.21875 42.19921875 C3.65414062 42.72644531 3.08953125 43.25367188 2.5078125 43.796875 C-2.63944956 46.95023179 -11.26508588 45.91802573 -17.07421875 44.73046875 C-23.20288756 42.37436724 -28.26709135 37.82149757 -31.21875 32.01171875 C-33.99810602 24.80956142 -33.90937829 17.948866 -30.78125 10.88671875 C-24.38129842 -0.6295265 -12.2168563 -3.51749374 0 0 Z " fill="#3B3B3B" transform="translate(354.78125,222.80078125)"/>
<path d="M0 0 C5.240424 -0.40187301 8.17179467 0.09150427 12.234375 3.5546875 C15.94768323 7.11581096 17.62979765 9.65798787 17.96142578 14.87988281 C17.96111103 16.29756548 17.94992451 17.71527424 17.9296875 19.1328125 C17.9268576 19.88181824 17.92402771 20.63082397 17.92111206 21.40252686 C17.9099476 23.78674526 17.88485031 26.17058329 17.859375 28.5546875 C17.84934035 30.17447373 17.84021535 31.79426586 17.83203125 33.4140625 C17.81002055 37.37774996 17.77551675 41.34115431 17.734375 45.3046875 C13.774375 45.3046875 9.814375 45.3046875 5.734375 45.3046875 C5.7250293 44.38131592 5.71568359 43.45794434 5.70605469 42.5065918 C5.66202766 39.07874244 5.60041393 35.65214699 5.52685547 32.22485352 C5.49863959 30.74189808 5.47742798 29.25879207 5.46337891 27.77563477 C5.4419558 25.64260753 5.39531718 23.51139144 5.34375 21.37890625 C5.32280273 20.09588623 5.30185547 18.81286621 5.28027344 17.4909668 C5.03197408 14.26062923 5.03197408 14.26062923 2.91113281 12.39379883 C-0.37581023 10.74922133 -2.64619958 10.79669797 -6.265625 11.3046875 C-9.5509426 13.88568763 -11.07989135 15.39499834 -11.92504883 19.53442383 C-11.94075928 20.72318115 -11.95646973 21.91193848 -11.97265625 23.13671875 C-12.00166016 24.42900391 -12.03066406 25.72128906 -12.06054688 27.05273438 C-12.0669352 28.40754969 -12.07278788 29.76236763 -12.078125 31.1171875 C-12.10128248 32.4915759 -12.12665045 33.86592894 -12.15429688 35.24023438 C-12.21315842 38.59534265 -12.24944837 41.94914624 -12.265625 45.3046875 C-15.895625 45.3046875 -19.525625 45.3046875 -23.265625 45.3046875 C-23.265625 30.7846875 -23.265625 16.2646875 -23.265625 1.3046875 C-19.305625 1.3046875 -15.345625 1.3046875 -11.265625 1.3046875 C-10.935625 1.9646875 -10.605625 2.6246875 -10.265625 3.3046875 C-9.275625 2.6446875 -8.285625 1.9846875 -7.265625 1.3046875 C-4.86384662 0.57687587 -2.48196031 0.33378087 0 0 Z " fill="#3A3A3A" transform="translate(297.265625,221.6953125)"/>
<path d="M0 0 C1.99307405 1.19808384 3.67222786 2.45076133 5.3984375 4.00390625 C6.2234375 4.70515625 7.0484375 5.40640625 7.8984375 6.12890625 C9.3984375 8.00390625 9.3984375 8.00390625 9.3984375 11.00390625 C2.7734375 15.00390625 2.7734375 15.00390625 -0.6015625 15.00390625 C-0.6015625 14.34390625 -0.6015625 13.68390625 -0.6015625 13.00390625 C-5.14054871 10.66120369 -9.60244391 10.17222648 -14.6015625 11.00390625 C-17.89100626 12.62622176 -17.89100626 12.62622176 -19.6015625 16.00390625 C-20.45476078 21.08500674 -20.25494531 25.41711943 -18.2890625 30.19140625 C-14.00726159 33.07913245 -9.6013504 32.87409834 -4.6015625 32.00390625 C-2.1814495 30.0876905 -2.1814495 30.0876905 -0.6015625 28.00390625 C3.29762857 28.00390625 6.32072393 30.83551714 9.3984375 33.00390625 C9.14598356 36.41203438 8.1880101 37.19562899 5.5859375 39.56640625 C4.53334629 40.3917027 3.46998804 41.20338021 2.3984375 42.00390625 C1.82222656 42.53886719 1.24601562 43.07382812 0.65234375 43.625 C-4.30146135 46.65566413 -11.00690144 45.62291511 -16.6015625 45.00390625 C-23.29116893 42.69891169 -28.00030039 37.0582872 -31.734375 31.23828125 C-34.02260828 25.34247299 -33.75969919 17.13043495 -31.57421875 11.23046875 C-24.66360809 0.01269079 -12.7536779 -4.88316496 0 0 Z " fill="#3A3A3A" transform="translate(206.6015625,222.99609375)"/>
<path d="M0 0 C3.58376568 2.57562833 5.59306674 4.33560977 6.33984375 8.796875 C-0.95549304 12.6103465 -0.95549304 12.6103465 -3.66015625 12.796875 C-4.09328125 12.3225 -4.52640625 11.848125 -4.97265625 11.359375 C-6.7288911 9.39824736 -6.7288911 9.39824736 -10.34765625 9.609375 C-11.44078125 9.67125 -12.53390625 9.733125 -13.66015625 9.796875 C-13.66015625 11.116875 -13.66015625 12.436875 -13.66015625 13.796875 C-12.93570312 14.05082031 -12.21125 14.30476562 -11.46484375 14.56640625 C4.34947164 20.19630253 4.34947164 20.19630253 7.33984375 24.796875 C8.07850871 29.20125112 8.33576626 33.60232009 6.45703125 37.7421875 C3.60794246 41.4969469 -0.1192925 43.77645618 -4.66015625 44.796875 C-11.32050282 45.50416844 -16.8671621 45.27267149 -22.66015625 41.796875 C-24.56209409 39.89493716 -26.06064376 37.97802839 -27.66015625 35.796875 C-26.551998 32.58321609 -25.67486071 31.8054526 -22.66015625 30.046875 C-19.66015625 28.796875 -19.66015625 28.796875 -17.66015625 28.796875 C-17.33015625 30.116875 -17.00015625 31.436875 -16.66015625 32.796875 C-13.03015625 32.796875 -9.40015625 32.796875 -5.66015625 32.796875 C-5.66015625 31.476875 -5.66015625 30.156875 -5.66015625 28.796875 C-6.76875 28.42175781 -7.87734375 28.04664063 -9.01953125 27.66015625 C-10.4833663 27.14406056 -11.94689205 26.62708699 -13.41015625 26.109375 C-14.13976562 25.86509766 -14.869375 25.62082031 -15.62109375 25.36914062 C-21.06855281 23.4130076 -24.00384367 21.10950015 -26.66015625 15.796875 C-27.45175769 9.12480575 -27.45175769 9.12480575 -25.4609375 5.78515625 C-19.08583807 -1.87459798 -9.44224287 -4.27050045 0 0 Z " fill="#393939" transform="translate(496.66015625,223.203125)"/>
<path d="M0 0 C4.4760684 -0.60578369 8.55071282 -0.8815604 13 0 C15.55217774 2.41651381 17.04492858 4.74012299 18.73046875 7.8125 C19.35888672 8.8953125 19.35888672 8.8953125 20 10 C20.66 10 21.32 10 22 10 C22.95985027 8.34610415 23.89274113 6.67652249 24.8125 5 C26.6484375 2.2265625 26.6484375 2.2265625 29 0 C33.44928718 -0.8815604 37.5239316 -0.60578369 42 0 C40.6766521 2.79755979 39.19010298 5.25451447 37.36328125 7.75 C36.62174805 8.78640625 36.62174805 8.78640625 35.86523438 9.84375 C34.82606155 11.28682774 33.77909743 12.72432526 32.72460938 14.15625 C32.23412109 14.8471875 31.74363281 15.538125 31.23828125 16.25 C30.78493408 16.87390625 30.33158691 17.4978125 29.86450195 18.140625 C28.83065891 19.95826304 28.83065891 19.95826304 29.17626953 21.96826172 C30.14856852 24.36644553 31.38986578 26.18553843 32.94140625 28.2578125 C33.52470703 29.04800781 34.10800781 29.83820313 34.70898438 30.65234375 C35.32064453 31.46832031 35.93230469 32.28429687 36.5625 33.125 C37.77638126 34.74944005 38.98623782 36.37689797 40.19140625 38.0078125 C40.72967041 38.72598145 41.26793457 39.44415039 41.82250977 40.18408203 C43 42 43 42 43 44 C38.4939766 44.68002487 34.47898798 44.94482643 30 44 C26.4577785 40.81357032 24.1146907 37.25493658 22 33 C22 32.34 22 31.68 22 31 C18.73434925 33.98573783 16.85205792 36.28659803 15 40.3125 C13.80078125 42.39453125 13.80078125 42.39453125 12 44 C7.59550594 44.70278772 3.42237807 44.46619505 -1 44 C0.82217432 38.33707502 4.52351393 34.0879228 8.09960938 29.43945312 C8.58365234 28.79814453 9.06769531 28.15683594 9.56640625 27.49609375 C10.00927979 26.92044678 10.45215332 26.3447998 10.90844727 25.75170898 C12.16439104 23.73618749 12.79542531 22.37640988 13 20 C11.94535211 17.82914361 11.94535211 17.82914361 10.25390625 15.7421875 C9.66416016 14.95199219 9.07441406 14.16179687 8.46679688 13.34765625 C7.83837891 12.53167969 7.20996094 11.71570313 6.5625 10.875 C5.3306881 9.25038121 4.10261932 7.62291528 2.87890625 5.9921875 C2.05241577 4.91493408 2.05241577 4.91493408 1.20922852 3.81591797 C0 2 0 2 0 0 Z " fill="#383838" transform="translate(370,223)"/>
<path d="M0 0 C0 4.29 0 8.58 0 13 C-1.588125 13.2475 -3.17625 13.495 -4.8125 13.75 C-8.65255362 14.3393567 -8.65255362 14.3393567 -11.62304688 16.671875 C-13.36574915 19.6184014 -13.42808868 21.6660183 -13.51171875 25.078125 C-13.54716797 26.23828125 -13.58261719 27.3984375 -13.61914062 28.59375 C-13.65297852 30.40359375 -13.65297852 30.40359375 -13.6875 32.25 C-13.72166016 33.47203125 -13.75582031 34.6940625 -13.79101562 35.953125 C-13.87347162 38.96865846 -13.94263201 41.98390194 -14 45 C-17.63 45 -21.26 45 -25 45 C-25 30.48 -25 15.96 -25 1 C-21.37 1 -17.74 1 -14 1 C-13.67 2.65 -13.34 4.3 -13 6 C-12.21625 5.195625 -11.4325 4.39125 -10.625 3.5625 C-6.47942756 -0.48436834 -6.39362265 0 0 0 Z " fill="#373737" transform="translate(444,222)"/>
<path d="M0 0 C3.96 0 7.92 0 12 0 C12 14.52 12 29.04 12 44 C8.04 44 4.08 44 0 44 C0 29.48 0 14.96 0 0 Z " fill="#3F3F3F" transform="translate(450,223)"/>
<path d="M0 0 C3.8026029 2.0050088 5.61790841 3.42686262 8 7 C8.4673854 11.75175157 8.4911613 14.03586856 6.3125 18.3125 C2.95202551 22.2179163 0.69059337 23.75409551 -4.4375 24.5 C-9.6780754 23.76448065 -12.15914452 21.42658222 -15.375 17.1875 C-16.36186931 13.73345741 -16.68115809 10.51369667 -16 7 C-12.07828678 0.22083031 -7.37331472 -0.91701729 0 0 Z " fill="#F6F6F6" transform="translate(247,233)"/>
<path d="M0 0 C0.99 0 1.98 0 3 0 C3.66 0 4.32 0 5 0 C5.08086376 2.93804996 5.1404283 5.87388075 5.1875 8.8125 C5.21263672 9.64587891 5.23777344 10.47925781 5.26367188 11.33789062 C5.27817383 12.54155273 5.27817383 12.54155273 5.29296875 13.76953125 C5.31653442 14.87711792 5.31653442 14.87711792 5.34057617 16.00708008 C4.90363721 18.56387773 4.02833534 19.4329828 2 21 C-0.26171875 21.29296875 -0.26171875 21.29296875 -2.6875 21.1875 C-3.49574219 21.16042969 -4.30398438 21.13335937 -5.13671875 21.10546875 C-5.75160156 21.07066406 -6.36648438 21.03585937 -7 21 C-7.66 19.68 -8.32 18.36 -9 17 C-8.2265625 17.5259375 -8.2265625 17.5259375 -7.4375 18.0625 C-4.05993333 19.3615641 -1.49531943 18.67217681 2 18 C2.33 16.68 2.66 15.36 3 14 C2.01 14.66 1.02 15.32 0 16 C-3.33466685 15.82135713 -5.9860269 15.55604977 -8.9375 13.9375 C-10.69220303 10.73774742 -10.626852 7.5005106 -10 4 C-7.23782486 -0.24950021 -4.86497967 -0.41404082 0 0 Z " fill="#585858" transform="translate(481,281)"/>
<path d="M0 0 C2.9375 2.0625 2.9375 2.0625 5 5 C5.1526226 9.3497442 4.71471806 11.2257221 1.75 14.4375 C-1.32552706 16.18495855 -2.55894843 16.86026289 -6 16 C-9.29425985 12.92535748 -10.74342772 11.28286142 -11.625 6.875 C-11 4 -11 4 -8.875 1.625 C-5.46418575 -0.30285153 -3.85187398 -0.72222637 0 0 Z " fill="#F4F4F4" transform="translate(462,281)"/>
<path d="M0 0 C2.9375 2.0625 2.9375 2.0625 5 5 C5.1526226 9.3497442 4.71471806 11.2257221 1.75 14.4375 C-1.32552706 16.18495855 -2.55894843 16.86026289 -6 16 C-8.35867619 13.89770166 -9.64863355 12.72654553 -11 10 C-11.06577694 6.11916068 -10.88674474 4.01811433 -8.3125 1.0625 C-5.2135552 -0.3613395 -3.37817188 -0.55153827 0 0 Z " fill="#F5F5F5" transform="translate(435,281)"/>
<path d="M0 0 C3.50750393 0.66574767 5.624001 2.0181189 8.22265625 4.421875 C8.55265625 6.071875 8.88265625 7.721875 9.22265625 9.421875 C1.96265625 9.421875 -5.29734375 9.421875 -12.77734375 9.421875 C-10.9665731 2.17879239 -7.23226632 -0.43466041 0 0 Z " fill="#E9E9E9" transform="translate(346.77734375,231.578125)"/>
<path d="M0 0 C2.5 1.5625 2.5 1.5625 4 4 C4 7.82389746 3.85254277 10.05611336 1.25 12.9375 C-1.49491218 14.23370853 -3.00074212 14.52487013 -6 14 C-8.3125 12.4375 -8.3125 12.4375 -10 10 C-10.42519574 6.53769185 -10.63902633 4.1652833 -8.9375 1.0625 C-5.8347167 -0.63902633 -3.46230815 -0.42519574 0 0 Z " fill="#3D3D3D" transform="translate(459,204)"/>
<path d="M0 0 C2.875 2.25 2.875 2.25 5 5 C5 6.32 5 7.64 5 9 C0.71 9 -3.58 9 -8 9 C-7.67 10.32 -7.34 11.64 -7 13 C-1.2025577 13.24428343 -1.2025577 13.24428343 4 11 C2.25 14.875 2.25 14.875 0 16 C-2.875 16.375 -2.875 16.375 -6 16 C-9.16196359 13.25408425 -9.91691332 11.59199258 -10.5 7.4375 C-10 4 -10 4 -8.375 1.5625 C-5.24316508 -0.49791771 -3.68455227 -0.6767545 0 0 Z " fill="#606060" transform="translate(362,281)"/>
<path d="M0 0 C3.0625 0.25 3.0625 0.25 6.0625 2.25 C6.71075345 8.19232331 6.71075345 8.19232331 4.875 11.1875 C2.40200907 12.63718434 0.88365488 12.67317323 -1.9375 12.25 C-3.75 11.1875 -3.75 11.1875 -4.9375 9.25 C-5.25 5.6875 -5.25 5.6875 -4.9375 2.25 C-2.9375 0.25 -2.9375 0.25 0 0 Z " fill="#F7F7F7" transform="translate(477.9375,282.75)"/>
<path d="M0 0 C0.66 0 1.32 0 2 0 C2.33 1.98 2.66 3.96 3 6 C3.33 5.67 3.66 5.34 4 5 C9.31122653 4.53815421 9.31122653 4.53815421 11.68359375 6.12890625 C13.58672065 8.83394418 13.29280933 10.92291068 13.1875 14.1875 C13.16042969 15.27417969 13.13335937 16.36085938 13.10546875 17.48046875 C13.07066406 18.31191406 13.03585937 19.14335937 13 20 C12.34 20 11.68 20 11 20 C10.67 16.04 10.34 12.08 10 8 C8.02 8 6.04 8 4 8 C2.26043342 9.73956658 2.62809614 12.1936622 2.4375 14.5625 C2.35371094 15.57441406 2.26992188 16.58632813 2.18359375 17.62890625 C2.12300781 18.41136719 2.06242187 19.19382812 2 20 C1.34 20 0.68 20 0 20 C0 13.4 0 6.8 0 0 Z " fill="#646464" transform="translate(389,276)"/>
<path d="M0 0 C2.9375 2.0625 2.9375 2.0625 5 5 C5.1526226 9.3497442 4.71471806 11.2257221 1.75 14.4375 C-1.32552706 16.18495855 -2.55894843 16.86026289 -6 16 C-8.35867619 13.89770166 -9.64863355 12.72654553 -11 10 C-11.06577694 6.11916068 -10.88674474 4.01811433 -8.3125 1.0625 C-5.2135552 -0.3613395 -3.37817188 -0.55153827 0 0 Z M-7.9375 3.0625 C-9.66665678 6.21566824 -8.8590699 8.62508255 -8 12 C-4.77856724 14.14762184 -3.7404533 14.561068 0 14 C2.2855347 11.87208838 2.92303658 10.52591672 3.375 7.4375 C3.16269892 4.99781892 3.16269892 4.99781892 1.875 3.1875 C-1.38646439 1.12190588 -4.58060457 1.22162186 -7.9375 3.0625 Z " fill="#646464" transform="translate(435,281)"/>
<path d="M0 0 C2.9375 2.0625 2.9375 2.0625 5 5 C5.1526226 9.3497442 4.71471806 11.2257221 1.75 14.4375 C-1.32552706 16.18495855 -2.55894843 16.86026289 -6 16 C-9.29425985 12.92535748 -10.74342772 11.28286142 -11.625 6.875 C-11 4 -11 4 -8.875 1.625 C-5.46418575 -0.30285153 -3.85187398 -0.72222637 0 0 Z M-7.875 3.125 C-9.52854531 5.88090884 -9.39365568 7.85075452 -9 11 C-8.08333333 13.08333333 -8.08333333 13.08333333 -6 14 C-2.42243314 14.00082535 -2.42243314 14.00082535 1 13 C3.15502531 9.76746204 3.46856135 8.74849077 3 5 C1.98029682 3.06345052 1.98029682 3.06345052 0 2 C-3.14924548 1.60634432 -5.11909116 1.47145469 -7.875 3.125 Z " fill="#5F5F5F" transform="translate(462,281)"/>
<path d="M0 0 C3 1 3 1 4.16796875 3.06640625 C4.50441406 3.89011719 4.84085937 4.71382813 5.1875 5.5625 C5.53167969 6.38878906 5.87585938 7.21507812 6.23046875 8.06640625 C6.48441406 8.70449219 6.73835938 9.34257812 7 10 C9.32472205 7.14693203 10.7508258 4.45925163 12 1 C12.66 1 13.32 1 14 1 C9.01030928 16.98969072 9.01030928 16.98969072 5 21 C4.01 21 3.02 21 2 21 C2 20.34 2 19.68 2 19 C2.99 18.67 3.98 18.34 5 18 C4.5499504 12.71191719 3.1496189 8.69369601 0.83984375 3.91796875 C0 2 0 2 0 0 Z " fill="#5E5E5E" transform="translate(490,281)"/>
<path d="M0 0 C1.32 0 2.64 0 4 0 C5.010625 -0.061875 6.02125 -0.12375 7.0625 -0.1875 C10 0 10 0 11.671875 1.125 C13.58916406 3.83176102 13.29310766 5.91366243 13.1875 9.1875 C13.16042969 10.27417969 13.13335937 11.36085938 13.10546875 12.48046875 C13.07066406 13.31191406 13.03585937 14.14335937 13 15 C12.34 15 11.68 15 11 15 C10.67 11.04 10.34 7.08 10 3 C8.02 3 6.04 3 4 3 C2.26043342 4.73956658 2.62809614 7.1936622 2.4375 9.5625 C2.35371094 10.57441406 2.26992188 11.58632813 2.18359375 12.62890625 C2.12300781 13.41136719 2.06242187 14.19382812 2 15 C1.34 15 0.68 15 0 15 C0 10.05 0 5.1 0 0 Z " fill="#626262" transform="translate(407,281)"/>
<path d="M0 0 C0.99 0.66 1.98 1.32 3 2 C3 2.66 3 3.32 3 4 C2.37351562 3.90460938 1.74703125 3.80921875 1.1015625 3.7109375 C0.28429687 3.60007812 -0.53296875 3.48921875 -1.375 3.375 C-2.59316406 3.20097656 -2.59316406 3.20097656 -3.8359375 3.0234375 C-4.55007813 3.01570313 -5.26421875 3.00796875 -6 3 C-6.66 3.66 -7.32 4.32 -8 5 C-7.67673447 8.59679066 -7.67673447 8.59679066 -7 12 C-1.71800407 13.19988045 -1.71800407 13.19988045 3 11 C3 11.99 3 12.98 3 14 C-0.52572807 16.35048538 -1.85013645 16.66397817 -6 16 C-8.43733864 13.87381097 -9.66903057 12.79625688 -11 10 C-11.06577694 6.11916068 -10.88674474 4.01811433 -8.3125 1.0625 C-5.33544441 -0.30533635 -3.24358463 -0.34506219 0 0 Z " fill="#6B6B6B" transform="translate(381,281)"/>
<path d="M0 0 C0.66 0 1.32 0 2 0 C2 0.99 2 1.98 2 3 C3.65 3 5.3 3 7 3 C7 3.66 7 4.32 7 5 C5.68 5 4.36 5 3 5 C3 8.96 3 12.92 3 17 C3.99 17.33 4.98 17.66 6 18 C1.125 17.125 1.125 17.125 0 16 C-0.07226502 14.14712498 -0.0838122 12.29166122 -0.0625 10.4375 C-0.05347656 9.42558594 -0.04445313 8.41367187 -0.03515625 7.37109375 C-0.02355469 6.58863281 -0.01195312 5.80617188 0 5 C-0.99 5 -1.98 5 -3 5 C-3 4.34 -3 3.68 -3 3 C-2.01 3 -1.02 3 0 3 C0 2.01 0 1.02 0 0 Z " fill="#797979" transform="translate(342,278)"/>
<path d="M0 0 C1.134375 0.020625 2.26875 0.04125 3.4375 0.0625 C3.4375 0.3925 3.4375 0.7225 3.4375 1.0625 C2.365 1.31 1.2925 1.5575 0.1875 1.8125 C-3.7282808 3.11776027 -5.08279622 3.86050027 -7.5625 7.0625 C-8.20245961 10.1474946 -8.20245961 10.1474946 -8.171875 13.578125 C-8.20410156 14.82851562 -8.23632812 16.07890625 -8.26953125 17.3671875 C-8.28371094 18.66914063 -8.29789062 19.97109375 -8.3125 21.3125 C-8.34214844 22.62992188 -8.37179687 23.94734375 -8.40234375 25.3046875 C-8.47305388 28.55735343 -8.52574786 31.80930193 -8.5625 35.0625 C-8.8925 35.0625 -9.2225 35.0625 -9.5625 35.0625 C-9.68656007 31.02424934 -9.77705045 26.98674362 -9.8371582 22.94702148 C-9.86222617 21.57442898 -9.89629082 20.20196898 -9.93969727 18.82983398 C-10.00067531 16.85199304 -10.02611009 14.87315816 -10.05078125 12.89453125 C-10.07696533 11.70577393 -10.10314941 10.5170166 -10.13012695 9.29223633 C-9.40229425 5.15094651 -7.72155609 3.72687794 -4.5625 1.0625 C-3.5625 0.0625 -3.5625 0.0625 0 0 Z " fill="#A2A2A2" transform="translate(294.5625,231.9375)"/>
<path d="M0 0 C3.125 0.25 3.125 0.25 5 1.625 C6.125 3.25 6.125 3.25 6.125 5.25 C2.495 5.25 -1.135 5.25 -4.875 5.25 C-3.64166667 0.31666667 -3.64166667 0.31666667 0 0 Z " fill="#F0F0F0" transform="translate(358.875,282.75)"/>
<path d="M0 0 C0.66 0 1.32 0 2 0 C2 0.66 2 1.32 2 2 C3.65 1.34 5.3 0.68 7 0 C7 1.98 7 3.96 7 6 C4.69 6 2.38 6 0 6 C0 4.02 0 2.04 0 0 Z " fill="#F4F4F4" transform="translate(439,518)"/>
<path d="M0 0 C0.33 0 0.66 0 1 0 C1.309375 0.969375 1.61875 1.93875 1.9375 2.9375 C2.69523342 5.84065792 2.69523342 5.84065792 4 7 C7.72224599 7.29386153 8.77786243 7.14809171 12 5 C12.33 5.66 12.66 6.32 13 7 C11.4375 8.5625 11.4375 8.5625 9 10 C5.52686935 9.87813577 3.00815987 9.59859493 0 7.8125 C-1.52262484 5.05274248 -0.72429919 2.96304212 0 0 Z " fill="#747474" transform="translate(472,287)"/>
<path d="M0 0 C0.66 1.32 1.32 2.64 2 4 C7.7974423 4.24428343 7.7974423 4.24428343 13 2 C11.25 5.875 11.25 5.875 9 7 C3.67924528 7.45283019 3.67924528 7.45283019 1.125 5.75 C0 4 0 4 0 0 Z " fill="#757575" transform="translate(353,290)"/>
<path d="M0 0 C-0.33 0.66 -0.66 1.32 -1 2 C-2.423125 2.37125 -2.423125 2.37125 -3.875 2.75 C-7.27533943 3.74456463 -7.27533943 3.74456463 -8.875 7.125 C-9.24625 8.07375 -9.6175 9.0225 -10 10 C-10.33 10 -10.66 10 -11 10 C-11.3125 7.25 -11.3125 7.25 -11 4 C-7.57094571 0.16752756 -5.04653478 -0.4694451 0 0 Z " fill="#6B6B6B" transform="translate(462,281)"/>
<path d="M0 0 C2.0625 0.4375 2.0625 0.4375 4 1 C4 2.98 4 4.96 4 7 C2.35 7 0.7 7 -1 7 C-1.04254356 5.00045254 -1.04080783 2.99958364 -1 1 C-0.67 0.67 -0.34 0.34 0 0 Z " fill="#F4F4F4" transform="translate(457,517)"/>
<path d="M0 0 C0.66 0 1.32 0 2 0 C2.6875 2.3125 2.6875 2.3125 3 5 C1.8125 6.65625 1.8125 6.65625 0 8 C-2.26171875 8.29296875 -2.26171875 8.29296875 -4.6875 8.1875 C-5.89986328 8.14689453 -5.89986328 8.14689453 -7.13671875 8.10546875 C-7.75160156 8.07066406 -8.36648438 8.03585937 -9 8 C-9.66 6.68 -10.32 5.36 -11 4 C-10.484375 4.350625 -9.96875 4.70125 -9.4375 5.0625 C-6.05993333 6.3615641 -3.49531943 5.67217681 0 5 C0 3.35 0 1.7 0 0 Z " fill="#656565" transform="translate(483,294)"/>
<path d="M0 0 C3 1 3 1 4.23828125 2.92578125 C4.59277344 3.71339844 4.94726562 4.50101562 5.3125 5.3125 C5.67988281 6.09238281 6.04726563 6.87226563 6.42578125 7.67578125 C7 10 7 10 6.10546875 12.29296875 C5.74066406 12.85628906 5.37585938 13.41960937 5 14 C4.16235732 12.04350603 3.33000941 10.08474444 2.5 8.125 C2.0359375 7.03445313 1.571875 5.94390625 1.09375 4.8203125 C0 2 0 2 0 0 Z " fill="#7A7A7A" transform="translate(490,281)"/>
<path d="M0 0 C0.99 0.66 1.98 1.32 3 2 C3 2.66 3 3.32 3 4 C2.39671875 3.90460938 1.7934375 3.80921875 1.171875 3.7109375 C0.37265625 3.60007812 -0.4265625 3.48921875 -1.25 3.375 C-2.03890625 3.25898438 -2.8278125 3.14296875 -3.640625 3.0234375 C-6.32152459 2.99680605 -7.72694089 3.63407916 -10 5 C-7.66670505 -0.16658167 -5.58295061 -0.3418133 0 0 Z " fill="#626262" transform="translate(381,281)"/>
<path d="M0 0 C2.97 0 5.94 0 9 0 C9 0.33 9 0.66 9 1 C7.35 1 5.7 1 4 1 C4.7425 1.680625 4.7425 1.680625 5.5 2.375 C7 4 7 4 7 6 C4.50638429 4.79618552 2.31856917 3.54571278 0 2 C0 1.34 0 0.68 0 0 Z " fill="#46A2D1" transform="translate(44,300)"/>
<path d="M0 0 C0.99 0 1.98 0 3 0 C3.144375 0.61875 3.28875 1.2375 3.4375 1.875 C3.93152225 4.03258322 3.93152225 4.03258322 5 6 C3.35 6 1.7 6 0 6 C0 4.02 0 2.04 0 0 Z " fill="#F1F1F1" transform="translate(463,518)"/>
<path d="M0 0 C-1.17578125 1.55078125 -1.17578125 1.55078125 -3 3 C-5.48046875 2.85546875 -5.48046875 2.85546875 -8.1875 2.1875 C-9.53908203 1.86845703 -9.53908203 1.86845703 -10.91796875 1.54296875 C-11.60503906 1.36378906 -12.29210937 1.18460937 -13 1 C-13 0.67 -13 0.34 -13 0 C-11.20909747 -0.19466332 -9.41723495 -0.38051213 -7.625 -0.5625 C-6.12839844 -0.71912109 -6.12839844 -0.71912109 -4.6015625 -0.87890625 C-2 -1 -2 -1 0 0 Z " fill="#33C0D7" transform="translate(137,300)"/>
<path d="M0 0 C3.36704285 -0.2295711 5.41370268 -0.33943529 8.375 1.375 C8.91125 1.91125 9.4475 2.4475 10 3 C10 3.66 10 4.32 10 5 C9.46375 4.71125 8.9275 4.4225 8.375 4.125 C5.64719516 2.83288192 2.87387282 1.91441408 0 1 C0 0.67 0 0.34 0 0 Z " fill="#676767" transform="translate(356,281)"/>
<path d="M0 0 C0 0.33 0 0.66 0 1 C-1.5778125 1.37125 -1.5778125 1.37125 -3.1875 1.75 C-6.8133541 2.76700786 -9.19910772 4.45373429 -12 7 C-9.69656113 0.26687101 -6.85869086 -0.25881852 0 0 Z " fill="#C9C9C9" transform="translate(298,232)"/>
<path d="M0 0 C0.66 0.33 1.32 0.66 2 1 C1.67 1.33 1.34 1.66 1 2 C2.65 2.33 4.3 2.66 6 3 C6 3.33 6 3.66 6 4 C3.03 4 0.06 4 -3 4 C-2.67 3.01 -2.34 2.02 -2 1 C-1.34 0.67 -0.68 0.34 0 0 Z " fill="#55D2D3" transform="translate(47,188)"/>
</svg>
