<?xml version="1.0" encoding="UTF-8"?>
<svg version="1.1" xmlns="http://www.w3.org/2000/svg" width="524" height="524">
<path d="M0 0 C172.92 0 345.84 0 524 0 C524 172.92 524 345.84 524 524 C351.08 524 178.16 524 0 524 C0 351.08 0 178.16 0 0 Z " fill="#533DE7" transform="translate(0,0)"/>
<path d="M0 0 C5.81365317 0 8.846672 2.95391125 12.875 6.73046875 C20 14.34007353 20 14.34007353 20 19 C23.3 19 26.6 19 30 19 C30.226875 18.154375 30.45375 17.30875 30.6875 16.4375 C33.43695281 9.23655217 38.1624933 3.71101258 45 0 C46.32 0 47.64 0 49 0 C48.875 1.75 48.875 1.75 48 4 C46.00715862 5.3440093 44.00580329 6.67541292 42 8 C38.70523557 11.3102692 35.8506426 14.67888236 34 19 C34.24207553 21.58213901 34.7717545 22.74322381 36.5 24.6875 C38.77482344 28.19451946 38.74572466 31.89652212 39 36 C45.68507348 38.41295552 52.36256638 40.81162625 59.125 43 C65.22552827 45.01447925 71.11672357 47.42497545 77 50 C78.155 50.495 79.31 50.99 80.5 51.5 C83.63257777 53.37954666 85.19146058 54.80027642 87 58 C87.31594936 61.03209465 87.23808059 63.96447246 87 67 C85.68 67 84.36 67 83 67 C82.9484375 66.32453125 82.896875 65.6490625 82.84375 64.953125 C82.4847061 62.12973431 81.99142843 59.6705285 81 57 C78.08289875 54.88367164 76.34210826 54.07337784 73 53 C71.81792969 52.59265625 70.63585937 52.1853125 69.41796875 51.765625 C66.80155864 50.87203961 64.17823525 50.00475762 61.546875 49.15625 C58.3202779 48.10440777 55.14999214 46.97643503 51.984375 45.7578125 C47.67822972 44.11333969 43.3339363 42.56945855 39 41 C41.73374815 44.6365208 44.5545659 47.43945421 48.125 50.25 C53.60258888 54.64378787 58.84383294 59.23473369 64 64 C64.82371094 64.7425 64.82371094 64.7425 65.6640625 65.5 C69.05369161 68.67158279 70.78397152 71.72330248 71.22607422 76.38256836 C71.08352725 84.1258699 70.66558026 91.83704334 70.125 99.5625 C70.04636719 100.83158203 69.96773438 102.10066406 69.88671875 103.40820312 C69.80292969 104.61541016 69.71914062 105.82261719 69.6328125 107.06640625 C69.55949707 108.15896729 69.48618164 109.25152832 69.41064453 110.37719727 C69 113 69 113 67 115 C64.8125 115.5625 64.8125 115.5625 62 115 C59.37089815 112.9356217 57.20879777 110.50017109 55 108 C54.37351562 107.29359375 53.74703125 106.5871875 53.1015625 105.859375 C51.91905437 104.51221384 50.74379153 103.15863497 49.578125 101.796875 C48.03198806 99.98031867 48.03198806 99.98031867 46.296875 98.390625 C45 97 45 97 45 95 C44.34 95 43.68 95 43 95 C43 98.96 43 102.92 43 107 C39.53058454 106.54177532 36.32604951 106.10868317 33 105 C30.28072689 104.90226714 27.59359857 104.85863522 24.875 104.875 C24.11324463 104.87693359 23.35148926 104.87886719 22.56665039 104.88085938 C17.31294703 104.92119921 12.20464051 105.24296138 7 106 C7 102.37 7 98.74 7 95 C0.84351849 100.02569919 -4.48500392 105.41803589 -9.0625 111.9375 C-11 114 -11 114 -14.125 114.9375 C-15.07375 114.958125 -16.0225 114.97875 -17 115 C-19.61144231 112.38855769 -19.37524034 111.00195462 -19.6328125 107.35546875 C-19.71660156 106.20240234 -19.80039063 105.04933594 -19.88671875 103.86132812 C-20.00466797 102.0427832 -20.00466797 102.0427832 -20.125 100.1875 C-20.21136719 99.01767578 -20.29773438 97.84785156 -20.38671875 96.64257812 C-21.96743322 73.92294399 -21.96743322 73.92294399 -19 68 C-17.06374218 65.95823182 -15.16155904 64.10516492 -13.0625 62.25 C-12.48419434 61.72776855 -11.90588867 61.20553711 -11.31005859 60.66748047 C-6.80610794 56.63230583 -2.17026385 52.76899686 2.54296875 48.98046875 C5.75753947 46.38939188 8.88012108 43.70389506 12 41 C5.84766369 42.50640729 -0.25977979 44.095236 -6 46.8125 C-11.40498288 49.34913456 -17.09543056 51.05419134 -22.79296875 52.8059082 C-23.54964844 53.04656006 -24.30632813 53.28721191 -25.0859375 53.53515625 C-25.7670459 53.745354 -26.4481543 53.95555176 -27.14990234 54.17211914 C-29.29831136 55.13348823 -30.5009216 56.19530634 -32 58 C-32.57323807 60.27161255 -32.57323807 60.27161255 -32.6875 62.6875 C-32.75324219 63.49574219 -32.81898437 64.30398437 -32.88671875 65.13671875 C-32.92410156 65.75160156 -32.96148437 66.36648437 -33 67 C-34.32 67 -35.64 67 -37 67 C-37.10911227 65.43908834 -37.18609398 63.87591508 -37.25 62.3125 C-37.29640625 61.44238281 -37.3428125 60.57226562 -37.390625 59.67578125 C-36.85909623 56.03480918 -35.61657606 54.56543777 -33 52 C-29.9609375 50.41015625 -29.9609375 50.41015625 -26.375 49.0625 C-25.72837402 48.81580566 -25.08174805 48.56911133 -24.41552734 48.31494141 C-18.44197716 46.07220029 -12.37596551 44.09277921 -6.30810547 42.12280273 C-1.03109291 40.39623055 3.96122501 38.33943124 9 36 C9.66 36 10.32 36 11 36 C10.9175 34.80375 10.835 33.6075 10.75 32.375 C10.71029727 27.87271093 12.46295302 25.68281013 15 22 C15.12722652 17.16539236 12.03284377 12.60547861 9 9 C6.67047011 7.25968119 4.31902034 5.76237863 1.79296875 4.32421875 C1.20128906 3.88722656 0.60960937 3.45023438 0 3 C0 2.01 0 1.02 0 0 Z " fill="#5E40E8" transform="translate(84,174)"/>
<path d="M0 0 C5.81365317 0 8.846672 2.95391125 12.875 6.73046875 C20 14.34007353 20 14.34007353 20 19 C23.3 19 26.6 19 30 19 C30.226875 18.154375 30.45375 17.30875 30.6875 16.4375 C33.43695281 9.23655217 38.1624933 3.71101258 45 0 C46.32 0 47.64 0 49 0 C48.875 1.75 48.875 1.75 48 4 C46.00715862 5.3440093 44.00580329 6.67541292 42 8 C38.70523557 11.3102692 35.8506426 14.67888236 34 19 C34.24207553 21.58213901 34.7717545 22.74322381 36.5 24.6875 C38.77482344 28.19451946 38.74572466 31.89652212 39 36 C45.68507348 38.41295552 52.36256638 40.81162625 59.125 43 C65.22552827 45.01447925 71.11672357 47.42497545 77 50 C78.155 50.495 79.31 50.99 80.5 51.5 C83.63257777 53.37954666 85.19146058 54.80027642 87 58 C87.31594936 61.03209465 87.23808059 63.96447246 87 67 C85.68 67 84.36 67 83 67 C82.9484375 66.32453125 82.896875 65.6490625 82.84375 64.953125 C82.4847061 62.12973431 81.99142843 59.6705285 81 57 C78.08289875 54.88367164 76.34210826 54.07337784 73 53 C71.81792969 52.59265625 70.63585937 52.1853125 69.41796875 51.765625 C66.80155864 50.87203961 64.17823525 50.00475762 61.546875 49.15625 C58.3202779 48.10440777 55.14999214 46.97643503 51.984375 45.7578125 C47.67822972 44.11333969 43.3339363 42.56945855 39 41 C41.73374815 44.6365208 44.5545659 47.43945421 48.125 50.25 C53.60258888 54.64378787 58.84383294 59.23473369 64 64 C64.82371094 64.7425 64.82371094 64.7425 65.6640625 65.5 C69.05369161 68.67158279 70.78397152 71.72330248 71.22607422 76.38256836 C71.08352725 84.1258699 70.66558026 91.83704334 70.125 99.5625 C70.04636719 100.83158203 69.96773438 102.10066406 69.88671875 103.40820312 C69.80292969 104.61541016 69.71914062 105.82261719 69.6328125 107.06640625 C69.55949707 108.15896729 69.48618164 109.25152832 69.41064453 110.37719727 C69 113 69 113 67 115 C64.8125 115.5625 64.8125 115.5625 62 115 C59.37089815 112.9356217 57.20879777 110.50017109 55 108 C54.37351562 107.29359375 53.74703125 106.5871875 53.1015625 105.859375 C51.91905437 104.51221384 50.74379153 103.15863497 49.578125 101.796875 C48.03198806 99.98031867 48.03198806 99.98031867 46.296875 98.390625 C45 97 45 97 45 95 C44.34 95 43.68 95 43 95 C43 98.96 43 102.92 43 107 C39.53058454 106.54177532 36.32604951 106.10868317 33 105 C30.28072689 104.90226714 27.59359857 104.85863522 24.875 104.875 C24.11324463 104.87693359 23.35148926 104.87886719 22.56665039 104.88085938 C17.31294703 104.92119921 12.20464051 105.24296138 7 106 C7 102.37 7 98.74 7 95 C0.84351849 100.02569919 -4.48500392 105.41803589 -9.0625 111.9375 C-11 114 -11 114 -14.125 114.9375 C-15.07375 114.958125 -16.0225 114.97875 -17 115 C-19.61144231 112.38855769 -19.37524034 111.00195462 -19.6328125 107.35546875 C-19.71660156 106.20240234 -19.80039063 105.04933594 -19.88671875 103.86132812 C-20.00466797 102.0427832 -20.00466797 102.0427832 -20.125 100.1875 C-20.21136719 99.01767578 -20.29773438 97.84785156 -20.38671875 96.64257812 C-21.96743322 73.92294399 -21.96743322 73.92294399 -19 68 C-17.06374218 65.95823182 -15.16155904 64.10516492 -13.0625 62.25 C-12.48419434 61.72776855 -11.90588867 61.20553711 -11.31005859 60.66748047 C-6.80610794 56.63230583 -2.17026385 52.76899686 2.54296875 48.98046875 C5.75753947 46.38939188 8.88012108 43.70389506 12 41 C5.84766369 42.50640729 -0.25977979 44.095236 -6 46.8125 C-11.40498288 49.34913456 -17.09543056 51.05419134 -22.79296875 52.8059082 C-23.54964844 53.04656006 -24.30632813 53.28721191 -25.0859375 53.53515625 C-25.7670459 53.745354 -26.4481543 53.95555176 -27.14990234 54.17211914 C-29.29831136 55.13348823 -30.5009216 56.19530634 -32 58 C-32.57323807 60.27161255 -32.57323807 60.27161255 -32.6875 62.6875 C-32.75324219 63.49574219 -32.81898437 64.30398437 -32.88671875 65.13671875 C-32.92410156 65.75160156 -32.96148437 66.36648437 -33 67 C-34.32 67 -35.64 67 -37 67 C-37.10911227 65.43908834 -37.18609398 63.87591508 -37.25 62.3125 C-37.29640625 61.44238281 -37.3428125 60.57226562 -37.390625 59.67578125 C-36.85909623 56.03480918 -35.61657606 54.56543777 -33 52 C-29.9609375 50.41015625 -29.9609375 50.41015625 -26.375 49.0625 C-25.72837402 48.81580566 -25.08174805 48.56911133 -24.41552734 48.31494141 C-18.44197716 46.07220029 -12.37596551 44.09277921 -6.30810547 42.12280273 C-1.03109291 40.39623055 3.96122501 38.33943124 9 36 C9.66 36 10.32 36 11 36 C10.9175 34.80375 10.835 33.6075 10.75 32.375 C10.71029727 27.87271093 12.46295302 25.68281013 15 22 C15.12722652 17.16539236 12.03284377 12.60547861 9 9 C6.67047011 7.25968119 4.31902034 5.76237863 1.79296875 4.32421875 C1.20128906 3.88722656 0.60960937 3.45023438 0 3 C0 2.01 0 1.02 0 0 Z M24 37 C21.29749807 41.0163665 18.93216132 44.83263258 17.375 49.4375 C16.92125 50.613125 16.4675 51.78875 16 53 C15.01 53.33 14.02 53.66 13 54 C13.99 50.37 14.98 46.74 16 43 C10.52310221 46.89702343 5.5572258 51.15972547 0.65551758 55.74584961 C-3.62384318 59.72518887 -8.09611865 63.35617975 -12.72265625 66.9296875 C-15.91967438 69.83606761 -17.81448375 71.9193374 -18.21069336 76.36303711 C-18.2879661 83.07258696 -17.73906088 89.76073359 -17.125 96.4375 C-17.04636719 97.40365234 -16.96773437 98.36980469 -16.88671875 99.36523438 C-16.80292969 100.29529297 -16.71914062 101.22535156 -16.6328125 102.18359375 C-16.55949707 103.01431396 -16.48618164 103.84503418 -16.41064453 104.70092773 C-15.97971964 107.11354348 -15.20075001 108.87594832 -14 111 C-9.71545076 106.83265727 -5.60440077 102.58018038 -1.76953125 97.9921875 C0 96 0 96 1.92578125 94.3828125 C8.23685018 88.71199694 8.36505364 81.7059465 8.8671875 73.6796875 C9.07808289 68.39452126 8.8686691 63.22375335 8 58 C10.64 58.33 13.28 58.66 16 59 C16.25 61.75 16.25 61.75 16 65 C15.0409375 65.89332031 15.0409375 65.89332031 14.0625 66.8046875 C7.82432304 73.44456525 9.7636289 88.35932313 10 97 C11.85625 96.7525 11.85625 96.7525 13.75 96.5 C22.26875401 95.56092475 30.53007784 95.85122692 39 97 C39.0588996 93.68757688 39.09389398 90.37529149 39.125 87.0625 C39.14175781 86.13630859 39.15851563 85.21011719 39.17578125 84.25585938 C39.26504744 75.43913022 39.26504744 75.43913022 37 67 C36.01 66.67 35.02 66.34 34 66 C34 63.69 34 61.38 34 59 C36.31 59 38.62 59 41 59 C40.97679687 59.65742188 40.95359375 60.31484375 40.9296875 60.9921875 C40.86633085 64.33198816 40.93821442 67.6601464 41 71 C40.9695459 72.0202124 40.9695459 72.0202124 40.93847656 73.06103516 C40.69008221 82.63729107 42.08748613 88.85865092 48.66796875 96.07543945 C51.44555249 98.89081554 54.29246691 101.61388266 57.20996094 104.28369141 C59 106 59 106 61.3828125 108.98046875 C61.91648437 109.64691406 62.45015625 110.31335938 63 111 C63.66 111 64.32 111 65 111 C65.34128465 106.91729158 65.67152387 102.8337573 66 98.75 C66.09539062 97.61046875 66.19078125 96.4709375 66.2890625 95.296875 C66.73706351 89.66486228 67.10035792 84.03978246 67.2265625 78.390625 C67.24799316 77.44735352 67.26942383 76.50408203 67.29150391 75.53222656 C66.72714757 70.62979445 63.58078239 68.10106034 60 65 C59.49033691 64.55156738 58.98067383 64.10313477 58.45556641 63.64111328 C55.50955557 61.05343565 52.53305979 58.50630159 49.52734375 55.98828125 C45.53111191 52.63118652 41.70531719 49.10893857 37.890625 45.546875 C36.14914802 43.78892074 36.14914802 43.78892074 34 44 C34.99 47.3 35.98 50.6 37 54 C35.68 54 34.36 54 33 54 C32.938125 53.21625 32.87625 52.4325 32.8125 51.625 C31.71116008 46.7113296 29.75424551 42.22689123 27 38 C26.01 37.67 25.02 37.34 24 37 Z " fill="#F4F1F9" transform="translate(84,174)"/>
<path d="M0 0 C5.54048437 4.26831307 8.98742412 9.88308486 10.8828125 16.58984375 C11.16483021 21.29013896 11.0703125 26.00609561 11.0703125 30.71484375 C-3.4496875 30.71484375 -17.9696875 30.71484375 -32.9296875 30.71484375 C-31.4446875 33.18984375 -31.4446875 33.18984375 -29.9296875 35.71484375 C-29.9296875 36.37484375 -29.9296875 37.03484375 -29.9296875 37.71484375 C-23.84506046 40.97446538 -17.7658635 41.48987533 -10.9296875 40.71484375 C-7.62109278 38.76027598 -7.62109278 38.76027598 -4.9296875 36.71484375 C0.00960283 36.58486243 4.10879205 40.05089327 8.0703125 42.71484375 C3.3363778 49.09848296 -1.44108865 52.21864413 -8.9296875 54.71484375 C-29.48188684 55.96602555 -29.48188684 55.96602555 -38.09765625 48.94921875 C-44.42685396 43.09269336 -48.4597235 36.46997665 -49.16796875 27.796875 C-49.33545709 20.41857285 -48.67395072 15.10211631 -44.9296875 8.71484375 C-44.3315625 7.64234375 -43.7334375 6.56984375 -43.1171875 5.46484375 C-32.72016296 -7.60570139 -13.43486131 -8.94750885 0 0 Z " fill="#FBFBFC" transform="translate(351.9296875,234.28515625)"/>
<path d="M0 0 C5.28 0 10.56 0 16 0 C20.66666667 11.66666667 25.33333333 23.33333333 30 35 C32.71274204 32.28725796 33.44643749 29.15486816 34.6015625 25.5859375 C34.8428891 24.85629791 35.0842157 24.12665833 35.33285522 23.37490845 C36.10255239 21.0434219 36.86385946 18.70929229 37.625 16.375 C38.14528322 14.79408968 38.6661099 13.21335811 39.1875 11.6328125 C40.46568468 7.75755193 41.73249129 3.87883099 43 0 C48.28 0 53.56 0 59 0 C57.06615238 6.87590264 54.72900091 13.51108996 52.19506836 20.18139648 C50.33475101 25.0841862 48.60688129 30.00806422 47 35 C35.01631755 72.17043961 35.01631755 72.17043961 22.05859375 79.02734375 C17.27258586 81.05975806 13.16200075 81.27653575 8 81 C8 76.38 8 71.76 8 67 C10.10375 66.4121875 10.10375 66.4121875 12.25 65.8125 C16.50345387 64.39468204 18.67501953 62.97184163 21 59 C22.61395398 54.37379335 20.68363344 51.06321309 18.80859375 46.7890625 C18.46627213 45.98447601 18.1239505 45.17988953 17.77125549 44.35092163 C16.67062073 41.77091696 15.55436791 39.19801305 14.4375 36.625 C13.71184865 34.93143566 12.98722838 33.23742914 12.26367188 31.54296875 C9.57981156 25.26943099 6.88444061 19.001203 4.13330078 12.75683594 C3.85084 12.11096527 3.56837921 11.4650946 3.27735901 10.7996521 C2.52760292 9.0864885 1.77196661 7.37590167 1.01586914 5.66552734 C0 3 0 3 0 0 Z " fill="#FAFAFB" transform="translate(432,230)"/>
<path d="M0 0 C0 4.62 0 9.24 0 14 C-3.02734375 14.68359375 -3.02734375 14.68359375 -6.0546875 15.3671875 C-8.20719964 15.90474428 -8.20719964 15.90474428 -10 18 C-10.39764263 19.98821313 -10.73775349 21.98944339 -11 24 C-7.04 24 -3.08 24 1 24 C1 28.95 1 33.9 1 39 C-2.96 39 -6.92 39 -11 39 C-11 53.19 -11 67.38 -11 82 C-16.28 82 -21.56 82 -27 82 C-27 67.81 -27 53.62 -27 39 C-29.64 39 -32.28 39 -35 39 C-35 34.05 -35 29.1 -35 24 C-32.03 24 -29.06 24 -26 24 C-26.06960938 23.29875 -26.13921875 22.5975 -26.2109375 21.875 C-26.58287979 15.35715407 -25.98041371 11.62589269 -21.65234375 6.65625 C-14.59802777 -0.41474285 -9.67495284 -0.11517801 0 0 Z " fill="#F6F5FB" transform="translate(402,206)"/>
<path d="M0 0 C0 4.62 0 9.24 0 14 C-1.6396875 14.2165625 -1.6396875 14.2165625 -3.3125 14.4375 C-6.93122987 14.88288104 -6.93122987 14.88288104 -10 16 C-10.80212628 17.87387216 -10.80212628 17.87387216 -11.1875 20.0625 C-11.455625 21.361875 -11.72375 22.66125 -12 24 C-8.04 24 -4.08 24 0 24 C0 28.62 0 33.24 0 38 C-3.96 38 -7.92 38 -12 38 C-12 52.52 -12 67.04 -12 82 C-16.95 82 -21.9 82 -27 82 C-27 67.48 -27 52.96 -27 38 C-29.64 38 -32.28 38 -35 38 C-35 33.38 -35 28.76 -35 24 C-32.36 24 -29.72 24 -27 24 C-27.0825 23.05125 -27.165 22.1025 -27.25 21.125 C-27.2016237 15.16262156 -25.32063761 9.31596832 -21.05859375 5.0625 C-14.04635522 -0.30967538 -8.7044329 -0.09359605 0 0 Z " fill="#FCFBFC" transform="translate(231,206)"/>
<path d="M0 0 C3.47635388 1.50800739 5.86629902 3.54601895 8.625 6.125 C12.10400575 9.34114754 15.64762028 12.28397743 19.4375 15.125 C23.52693223 18.39269388 25.7554175 20.75497374 27 26 C27.43894262 34.51511795 26.71912788 43.07179185 26.125 51.5625 C26.04636719 52.83158203 25.96773438 54.10066406 25.88671875 55.40820312 C25.76103516 57.21901367 25.76103516 57.21901367 25.6328125 59.06640625 C25.55949707 60.15896729 25.48618164 61.25152832 25.41064453 62.37719727 C25 65 25 65 23 67 C20.8125 67.5625 20.8125 67.5625 18 67 C15.37089815 64.9356217 13.20879777 62.50017109 11 60 C10.37351562 59.29359375 9.74703125 58.5871875 9.1015625 57.859375 C7.91905437 56.51221384 6.74379153 55.15863497 5.578125 53.796875 C4.03198806 51.98031867 4.03198806 51.98031867 2.296875 50.390625 C1 49 1 49 1 47 C0.34 47 -0.32 47 -1 47 C-1 50.96 -1 54.92 -1 59 C-4.46941546 58.54177532 -7.67395049 58.10868317 -11 57 C-13.71927311 56.90226714 -16.40640143 56.85863522 -19.125 56.875 C-19.88675537 56.87693359 -20.64851074 56.87886719 -21.43334961 56.88085938 C-26.68705297 56.92119921 -31.79535949 57.24296138 -37 58 C-37 54.37 -37 50.74 -37 47 C-43.15648151 52.02569919 -48.48500392 57.41803589 -53.0625 63.9375 C-55 66 -55 66 -58.125 66.9375 C-59.07375 66.958125 -60.0225 66.97875 -61 67 C-63.61144231 64.38855769 -63.37524034 63.00195462 -63.6328125 59.35546875 C-63.71660156 58.20240234 -63.80039063 57.04933594 -63.88671875 55.86132812 C-63.96535156 54.64896484 -64.04398438 53.43660156 -64.125 52.1875 C-64.21136719 51.01767578 -64.29773438 49.84785156 -64.38671875 48.64257812 C-65.96744199 25.92281791 -65.96744199 25.92281791 -64 21 C-60.9375 19.75 -60.9375 19.75 -58 19 C-59.875 23.75 -59.875 23.75 -61 26 C-61.44664188 33.51360173 -60.7824324 41.02495724 -60.0625 48.5 C-59.97548828 49.47453125 -59.88847656 50.4490625 -59.79882812 51.453125 C-59.31697902 56.8080152 -59.31697902 56.8080152 -58 62 C-55.41353499 59.27378679 -52.83139748 56.54351135 -50.25 53.8125 C-49.52039063 53.04357422 -48.79078125 52.27464844 -48.0390625 51.48242188 C-46.62629094 49.98616836 -45.22139724 48.48243004 -43.82519531 46.97070312 C-42.42925399 45.46347488 -41.00240398 43.98481815 -39.5625 42.51953125 C-37.25021803 38.79097658 -37.07468719 35.19045724 -36.75 30.875 C-36.67410645 30.03348389 -36.59821289 29.19196777 -36.52001953 28.32495117 C-36.00201871 22.21524309 -35.75201146 16.13082785 -36 10 C-29.84765625 9.90234375 -29.84765625 9.90234375 -28 10 C-27 11 -27 11 -26.9375 14.0625 C-26.958125 15.031875 -26.97875 16.00125 -27 17 C-27.63550781 17.18046875 -28.27101562 17.3609375 -28.92578125 17.546875 C-31.34900072 18.90583003 -31.34900072 18.90583003 -31.79296875 22.203125 C-31.94415769 23.55001975 -32.07442267 24.89937159 -32.1875 26.25 C-32.26081543 26.95640625 -32.33413086 27.6628125 -32.40966797 28.390625 C-32.63032982 30.59232899 -32.82045536 32.7945852 -33 35 C-33.08677002 36.0509082 -33.08677002 36.0509082 -33.17529297 37.12304688 C-33.4930648 41.07963619 -33.76473863 45.0377033 -34 49 C-32.7625 48.67 -31.525 48.34 -30.25 48 C-21.49831928 46.07049559 -13.56184633 46.67751854 -5 49 C-5.14091893 45.68727224 -5.28865394 42.37488029 -5.4375 39.0625 C-5.47681641 38.13630859 -5.51613281 37.21011719 -5.55664062 36.25585938 C-5.82079121 30.46486581 -6.29764309 24.75460497 -7 19 C-8.32 18.67 -9.64 18.34 -11 18 C-11.04241723 15.66705225 -11.04092937 13.33297433 -11 11 C-10 10 -10 10 -6.5 9.875 C-3 10 -3 10 -2 11 C-1.97846585 12.64582431 -2.01059551 14.29235341 -2.0625 15.9375 C-2.04297483 18.29167788 -2.02197864 20.64584375 -2 23 C-2.03262939 24.01803711 -2.03262939 24.01803711 -2.06591797 25.05664062 C-2.3112273 34.59982496 -0.91458617 40.8632687 5.61914062 48.07543945 C8.34062057 50.851143 11.11313584 53.54886723 13.99536133 56.1574707 C16.40190717 58.36940609 18.69995153 60.6780392 21 63 C21.31771385 57.73611995 21.58655824 52.4727516 21.81176758 47.20410156 C21.89495395 45.41502926 21.99111154 43.62650851 22.10083008 41.83886719 C23.30097796 30.25009683 23.30097796 30.25009683 18.8515625 20.07421875 C16.95793254 18.38457501 16.95793254 18.38457501 15 17 C14.04996094 16.15050781 13.09992188 15.30101562 12.12109375 14.42578125 C11.23550781 13.72839844 10.34992188 13.03101563 9.4375 12.3125 C8.50164062 11.56742188 7.56578125 10.82234375 6.6015625 10.0546875 C5.74304688 9.37664062 4.88453125 8.69859375 4 8 C2.76674952 6.98410401 1.53662547 5.96437303 0.3125 4.9375 C-0.450625 4.298125 -1.21375 3.65875 -2 3 C-1.34 2.01 -0.68 1.02 0 0 Z " fill="#F6F4FA" transform="translate(128,222)"/>
<path d="M0 0 C4.95 0 9.9 0 15 0 C15 27.72 15 55.44 15 84 C10.05 84 5.1 84 0 84 C0 56.28 0 28.56 0 0 Z " fill="#FAFAFD" transform="translate(409,204)"/>
<path d="M0 0 C0 5.61 0 11.22 0 17 C-2.041875 17.12375 -2.041875 17.12375 -4.125 17.25 C-8.6602277 17.75708845 -11.47174368 18.98807387 -15 22 C-17.46055122 25.60344177 -17.34460287 29.39298767 -17.4140625 33.609375 C-17.43342865 34.33618469 -17.4527948 35.06299438 -17.4727478 35.81182861 C-17.53234271 38.12443448 -17.57884758 40.43709067 -17.625 42.75 C-17.66319836 44.32163582 -17.70225117 45.89325113 -17.7421875 47.46484375 C-17.83963062 51.30978671 -17.9193553 55.15452137 -18 59 C-22.95 59 -27.9 59 -33 59 C-33 39.86 -33 20.72 -33 1 C-28.05 1 -23.1 1 -18 1 C-17.67 3.31 -17.34 5.62 -17 8 C-16.278125 7.236875 -15.55625 6.47375 -14.8125 5.6875 C-9.45815079 0.57112187 -7.80741379 0 0 0 Z " fill="#F9F9FB" transform="translate(298,229)"/>
<path d="M0 0 C1 2 1 2 0.44140625 4.1640625 C0.15136719 4.97617188 -0.13867188 5.78828125 -0.4375 6.625 C-0.86869141 7.85089844 -0.86869141 7.85089844 -1.30859375 9.1015625 C-1.53675781 9.72804687 -1.76492187 10.35453125 -2 11 C-0.515 11.99 -0.515 11.99 1 13 C-1.31 13.66 -3.62 14.32 -6 15 C-5.97679688 15.57363281 -5.95359375 16.14726562 -5.9296875 16.73828125 C-5.86399179 19.83067233 -5.92739215 22.90756553 -6 26 C-6.0009668 26.71816895 -6.00193359 27.43633789 -6.00292969 28.17626953 C-6.08651704 37.66343394 -6.67292584 45.07841719 -13.5625 52.0625 C-15.1567106 53.5951161 -16.7757376 55.08710396 -18.42822266 56.55664062 C-20.89155242 58.81871045 -23.04291613 61.3001438 -25.25 63.8125 C-26.34054688 65.02873047 -26.34054688 65.02873047 -27.453125 66.26953125 C-27.96359375 66.84058594 -28.4740625 67.41164063 -29 68 C-30.69048001 65.00964656 -31.33165232 62.59597022 -31.6328125 59.18359375 C-31.71660156 58.25353516 -31.80039063 57.32347656 -31.88671875 56.36523438 C-31.96535156 55.39908203 -32.04398437 54.43292969 -32.125 53.4375 C-32.25455078 52.02887695 -32.25455078 52.02887695 -32.38671875 50.59179688 C-32.63429213 47.72898408 -32.8299259 44.86842119 -33 42 C-33.06413086 41.02434082 -33.12826172 40.04868164 -33.19433594 39.04345703 C-33.4216397 33.104392 -33.1451842 29.60500888 -29 25 C-26.98239401 23.03021458 -24.8686411 21.2232367 -22.6875 19.4375 C-21.44870454 18.40035346 -20.21044329 17.36256859 -18.97265625 16.32421875 C-18.32828613 15.78716309 -17.68391602 15.25010742 -17.02001953 14.69677734 C-13.51911109 11.75608196 -10.07444264 8.75072119 -6.625 5.75 C-5.34644239 4.64052333 -4.06780457 3.53113908 -2.7890625 2.421875 C-1.86867188 1.62265625 -0.94828125 0.8234375 0 0 Z " fill="#613FE8" transform="translate(99,217)"/>
<path d="M0 0 C4.76494439 2.93693845 8.93277164 6.66212517 13.1484375 10.32421875 C13.82519531 10.89398438 14.50195312 11.46375 15.19921875 12.05078125 C17.70524218 14.47905216 19.04067107 16.29121355 19.40942383 19.82592773 C19.26317744 27.60345615 18.79730783 35.32284889 18.1484375 43.07421875 C18.00535156 44.853125 18.00535156 44.853125 17.859375 46.66796875 C17.62664992 49.55375971 17.38961041 52.43912367 17.1484375 55.32421875 C13.23664611 54.02028829 11.96803406 51.99378238 9.390625 48.86328125 C7.67523633 46.92076795 6.00965352 45.25582344 4.09375 43.53515625 C-3.01549392 36.94088912 -6.17586015 31.79892845 -6.81494141 22.01416016 C-7.36703554 5.35516483 -7.36703554 5.35516483 -4.8515625 0.32421875 C-1.8515625 -0.67578125 -1.8515625 -0.67578125 0 0 Z " fill="#593CE7" transform="translate(131.8515625,229.67578125)"/>
<path d="M0 0 C5.28 0 10.56 0 16 0 C16 19.14 16 38.28 16 58 C10.72 58 5.44 58 0 58 C0 38.86 0 19.72 0 0 Z " fill="#F3F1FC" transform="translate(241,230)"/>
<path d="M0 0 C2.0625 0.4375 2.0625 0.4375 4 1 C-1.03634471 5.62120133 -6.11708573 10.14437033 -11.4375 14.4375 C-15.39891097 17.65861876 -19.30346233 20.92735121 -23.125 24.3125 C-24.03507812 25.11300781 -24.94515625 25.91351563 -25.8828125 26.73828125 C-29.14499682 30.22316081 -29.12597896 33.33945091 -29.09765625 37.984375 C-29.09282227 39.38623047 -29.09282227 39.38623047 -29.08789062 40.81640625 C-29.07951172 41.78449219 -29.07113281 42.75257813 -29.0625 43.75 C-29.05798828 44.73355469 -29.05347656 45.71710938 -29.04882812 46.73046875 C-29.03706483 49.15370791 -29.02062684 51.57682273 -29 54 C-29.33 54 -29.66 54 -30 54 C-30.495 51.525 -30.495 51.525 -31 49 C-32.051875 49.495 -32.051875 49.495 -33.125 50 C-36.34160154 51.11881793 -38.61830655 51.36757538 -42 51 C-43.66796875 49.8046875 -43.66796875 49.8046875 -45 48 C-45.29296875 45.51953125 -45.29296875 45.51953125 -45.1875 42.8125 C-45.16042969 41.91144531 -45.13335937 41.01039063 -45.10546875 40.08203125 C-45.07066406 39.39496094 -45.03585938 38.70789063 -45 38 C-45.66 38 -46.32 38 -47 38 C-47 35.69 -47 33.38 -47 31 C-45.35 30.34 -43.7 29.68 -42 29 C-43.65 28.67 -45.3 28.34 -47 28 C-47 24.7 -47 21.4 -47 18 C-46.67 18 -46.34 18 -46 18 C-46 20.97 -46 23.94 -46 27 C-44.68 27 -43.36 27 -42 27 C-42.04640625 26.39671875 -42.0928125 25.7934375 -42.140625 25.171875 C-42.43090316 18.74428727 -42.43090316 18.74428727 -40.625 15.625 C-37.45378633 13.66186773 -34.41028246 12.80834271 -30.82421875 11.83984375 C-27.87197106 10.96192777 -25.13791464 9.84896505 -22.3125 8.625 C-16.90030849 6.29944896 -11.41841341 4.40019617 -5.81176758 2.61181641 C-2.65149721 1.76844482 -2.65149721 1.76844482 0 0 Z " fill="#6B48E9" transform="translate(93,214)"/>
<path d="M0 0 C10.03798547 2.31645819 19.57497185 5.70865565 29.03125 9.77734375 C32.86446356 11.35602249 36.7738767 12.65188141 40.72265625 13.91015625 C43.45437736 15.21744645 44.52383806 16.36878927 46 19 C46.37460816 21.73713695 46.13898721 24.22025584 46 27 C46.99 27.33 47.98 27.66 49 28 C48.01 28.33 47.02 28.66 46 29 C46.825 29.37125 47.65 29.7425 48.5 30.125 C49.325 30.74375 50.15 31.3625 51 32 C51.3125 35.1875 51.3125 35.1875 51 38 C50.34 38 49.68 38 49 38 C49.04640625 38.60328125 49.0928125 39.2065625 49.140625 39.828125 C49.31088449 43.5981566 49.39967128 46.23699119 47.625 49.625 C43.46570049 51.80368069 39.50475771 50.79091166 35 50 C34.90203125 48.9378125 34.8040625 47.875625 34.703125 46.78125 C33.6012844 35.88527069 32.68255124 28.81723896 23.875 21.5625 C22.90691406 20.81355469 21.93882812 20.06460938 20.94140625 19.29296875 C17.25106403 16.41616811 13.82651362 13.29978042 10.37109375 10.1484375 C7.4271546 7.48094733 4.41963715 4.89186413 1.3984375 2.3125 C0.93695313 1.879375 0.47546875 1.44625 0 1 C0 0.67 0 0.34 0 0 Z " fill="#583BE6" transform="translate(121,214)"/>
<path d="M0 0 C3.47635388 1.50800739 5.86629902 3.54601895 8.625 6.125 C12.10400575 9.34114754 15.64762028 12.28397743 19.4375 15.125 C23.52693223 18.39269388 25.7554175 20.75497374 27 26 C27.43894262 34.51511795 26.71912788 43.07179185 26.125 51.5625 C26.04636719 52.83158203 25.96773437 54.10066406 25.88671875 55.40820312 C25.80292969 56.61541016 25.71914062 57.82261719 25.6328125 59.06640625 C25.55949707 60.15896729 25.48618164 61.25152832 25.41064453 62.37719727 C25 65 25 65 23 67 C20.8125 67.5625 20.8125 67.5625 18 67 C15.37089815 64.9356217 13.20879777 62.50017109 11 60 C10.37351563 59.29359375 9.74703125 58.5871875 9.1015625 57.859375 C7.91905437 56.51221384 6.74379153 55.15863497 5.578125 53.796875 C4.03198806 51.98031867 4.03198806 51.98031867 2.296875 50.390625 C1 49 1 49 1 47 C0.34 47 -0.32 47 -1 47 C-1 50.96 -1 54.92 -1 59 C-2.32 58.67 -3.64 58.34 -5 58 C-4.01 58 -3.02 58 -2 58 C-2 53.71 -2 49.42 -2 45 C-2.66 44.67 -3.32 44.34 -4 44 C-4 45.98 -4 47.96 -4 50 C-4.99 49.67 -5.98 49.34 -7 49 C-6.34 49 -5.68 49 -5 49 C-5.14091893 45.68727224 -5.28865394 42.37488029 -5.4375 39.0625 C-5.47681641 38.13630859 -5.51613281 37.21011719 -5.55664062 36.25585938 C-5.82079121 30.46486581 -6.29764309 24.75460497 -7 19 C-8.32 18.67 -9.64 18.34 -11 18 C-11.04241723 15.66705225 -11.04092937 13.33297433 -11 11 C-10 10 -10 10 -6.5 9.875 C-3 10 -3 10 -2 11 C-1.97846585 12.64582431 -2.01059551 14.29235341 -2.0625 15.9375 C-2.04297483 18.29167788 -2.02197864 20.64584375 -2 23 C-2.02175293 23.67869141 -2.04350586 24.35738281 -2.06591797 25.05664062 C-2.3112273 34.59982496 -0.91458617 40.8632687 5.61914062 48.07543945 C8.34062057 50.851143 11.11313584 53.54886723 13.99536133 56.1574707 C16.40190717 58.36940609 18.69995153 60.6780392 21 63 C21.31771385 57.73611995 21.58655824 52.4727516 21.81176758 47.20410156 C21.89495395 45.41502926 21.99111154 43.62650851 22.10083008 41.83886719 C23.30097796 30.25009683 23.30097796 30.25009683 18.8515625 20.07421875 C16.95793254 18.38457501 16.95793254 18.38457501 15 17 C14.04996094 16.15050781 13.09992188 15.30101562 12.12109375 14.42578125 C11.23550781 13.72839844 10.34992188 13.03101563 9.4375 12.3125 C8.50164062 11.56742188 7.56578125 10.82234375 6.6015625 10.0546875 C5.74304688 9.37664062 4.88453125 8.69859375 4 8 C2.76674952 6.98410401 1.53662547 5.96437303 0.3125 4.9375 C-0.450625 4.298125 -1.21375 3.65875 -2 3 C-1.34 2.01 -0.68 1.02 0 0 Z " fill="#EDEAF8" transform="translate(128,222)"/>
<path d="M0 0 C6.15234375 -0.09765625 6.15234375 -0.09765625 8 0 C9 1 9 1 9.125 3.8125 C9.02143268 6.45346678 8.6935793 8.48577504 8 11 C8 11.99 8 12.98 8 14 C8.66 13.67 9.32 13.34 10 13 C11.44848582 12.91657841 12.90070869 12.89267139 14.3515625 12.90234375 C15.20234375 12.90556641 16.053125 12.90878906 16.9296875 12.91210938 C17.81914063 12.92048828 18.70859375 12.92886719 19.625 12.9375 C20.5221875 12.94201172 21.419375 12.94652344 22.34375 12.95117188 C24.56252831 12.96297389 26.78127243 12.98090961 29 13 C29 8.71 29 4.42 29 0 C35.15234375 -0.09765625 35.15234375 -0.09765625 37 0 C38 1 38 1 38.0625 4.5625 C38.041875 5.696875 38.02125 6.83125 38 8 C36.68 8.33 35.36 8.66 34 9 C33.76216797 10.16015625 33.76216797 10.16015625 33.51953125 11.34375 C31.77782553 19.11887831 29.61204659 25.14715031 24.125 31 C20.85530282 32.53868102 18.56088232 32.49977296 15 32 C9.49074216 28.06481583 5.91327822 21.13975018 4.46484375 14.57421875 C4.23155635 12.72434827 4.10342509 10.8616517 4 9 C2.68 8.67 1.36 8.34 0 8 C0 5.36 0 2.72 0 0 Z " fill="#FCFCFC" transform="translate(90,285)"/>
<path d="M0 0 C5.81365317 0 8.846672 2.95391125 12.875 6.73046875 C20 14.34007353 20 14.34007353 20 19 C23.3 19 26.6 19 30 19 C30.3403125 17.7315625 30.3403125 17.7315625 30.6875 16.4375 C33.43695281 9.23655217 38.1624933 3.71101258 45 0 C46.32 0 47.64 0 49 0 C48.875 1.75 48.875 1.75 48 4 C46.00715862 5.3440093 44.00580329 6.67541292 42 8 C38.70523557 11.3102692 35.8506426 14.67888236 34 19 C34.2458387 21.62227951 34.76555252 22.74679672 36.5625 24.6875 C38.78708126 28.2661742 38.23703418 31.8914075 38 36 C37.67 36 37.34 36 37 36 C37 34.02 37 32.04 37 30 C36.34 30 35.68 30 35 30 C35 31.65 35 33.3 35 35 C34.42024414 34.83701416 33.84048828 34.67402832 33.24316406 34.50610352 C29.77326877 33.72322444 26.287377 33.89687641 22.75 33.9375 C22.00492188 33.94201172 21.25984375 33.94652344 20.4921875 33.95117188 C18.6614236 33.96290754 16.83070127 33.9808415 15 34 C15 30 15 26 15 22 C14.57743181 16.92918178 12.2293891 12.8391339 9 9 C6.67047011 7.25968119 4.31902034 5.76237863 1.79296875 4.32421875 C1.20128906 3.88722656 0.60960938 3.45023438 0 3 C0 2.01 0 1.02 0 0 Z " fill="#F0ECF7" transform="translate(84,174)"/>
<path d="M0 0 C0.7425 -0.01224609 1.485 -0.02449219 2.25 -0.03710938 C6.77177483 -0.04909288 10.36558122 0.4769715 14.625 2.1875 C14.295 3.1775 13.965 4.1675 13.625 5.1875 C14.945 5.8475 16.265 6.5075 17.625 7.1875 C15.315 7.1875 13.005 7.1875 10.625 7.1875 C10.955 11.4775 11.285 15.7675 11.625 20.1875 C8.47809225 20.97422694 6.4312379 21.30754456 3.296875 21.28515625 C2.49765625 21.28193359 1.6984375 21.27871094 0.875 21.27539062 C0.05 21.26701172 -0.775 21.25863281 -1.625 21.25 C-2.46546875 21.24548828 -3.3059375 21.24097656 -4.171875 21.23632812 C-6.23961401 21.22457961 -8.30731624 21.20664522 -10.375 21.1875 C-10.75633299 19.1960944 -11.08825582 17.19470923 -11.375 15.1875 C-11.045 14.8575 -10.715 14.5275 -10.375 14.1875 C-10.33419217 12.18791636 -10.33245644 10.18704746 -10.375 8.1875 C-12.685 7.8575 -14.995 7.5275 -17.375 7.1875 C-17.375 6.8575 -17.375 6.5275 -17.375 6.1875 C-14.735 6.1875 -12.095 6.1875 -9.375 6.1875 C-9.375 4.8675 -9.375 3.5475 -9.375 2.1875 C-10.365 1.8575 -11.355 1.5275 -12.375 1.1875 C-8.25338159 0.0387865 -4.25237225 0.00365324 0 0 Z " fill="#5D42E5" transform="translate(108.375,277.8125)"/>
<path d="M0 0 C4.41140001 5.24985185 7.21694977 10.76446313 10 17 C10.74636719 18.46373047 10.74636719 18.46373047 11.5078125 19.95703125 C12.8916318 23.37992204 13.47107336 25.31294503 13 29 C9.64542855 34.46388531 4.73803971 38.75772869 0 43 C-1.69048001 40.00964656 -2.33165232 37.59597022 -2.6328125 34.18359375 C-2.71660156 33.25353516 -2.80039063 32.32347656 -2.88671875 31.36523438 C-2.96535156 30.39908203 -3.04398437 29.43292969 -3.125 28.4375 C-3.21136719 27.49841797 -3.29773438 26.55933594 -3.38671875 25.59179688 C-5.00864397 6.83667747 -5.00864397 6.83667747 -2 2.3125 C-1.34 1.549375 -0.68 0.78625 0 0 Z " fill="#9079EE" transform="translate(70,242)"/>
<path d="M0 0 C2.49564758 2.09570406 3.8751598 3.25754441 4.42578125 6.53222656 C4.38839844 7.47549805 4.35101563 8.41876953 4.3125 9.390625 C4.27640625 10.45087891 4.2403125 11.51113281 4.203125 12.60351562 C4.13609375 13.72435547 4.0690625 14.84519531 4 16 C3.93296875 17.12599609 3.8659375 18.25199219 3.796875 19.41210938 C3.56237053 22.86127935 3.28838721 26.30494199 3 29.75 C2.85691406 31.52890625 2.85691406 31.52890625 2.7109375 33.34375 C2.47821242 36.22954096 2.24117291 39.11490492 2 42 C-1.35044034 40.88318655 -2.14916343 39.9563104 -4.375 37.3125 C-4.93960938 36.64863281 -5.50421875 35.98476563 -6.0859375 35.30078125 C-6.71757812 34.54152344 -7.34921875 33.78226562 -8 33 C-8.93714844 32.07058594 -9.87429687 31.14117187 -10.83984375 30.18359375 C-13 27 -13 27 -12.60546875 23.484375 C-12.13753906 22.25203125 -11.66960937 21.0196875 -11.1875 19.75 C-10.82241333 18.77027222 -10.82241333 18.77027222 -10.44995117 17.77075195 C-7.96446881 11.36364321 -4.90083292 4.90083292 0 0 Z " fill="#8976EE" transform="translate(147,243)"/>
<path d="M0 0 C0.33 0 0.66 0 1 0 C1 2.64 1 5.28 1 8 C1.99 8.33 2.98 8.66 4 9 C3.01 9.33 2.02 9.66 1 10 C2.2375 10.556875 2.2375 10.556875 3.5 11.125 C4.7375 12.053125 4.7375 12.053125 6 13 C6.3125 16.1875 6.3125 16.1875 6 19 C5.34 19 4.68 19 4 19 C4.04640625 19.60328125 4.0928125 20.2065625 4.140625 20.828125 C4.31088449 24.5981566 4.39967128 27.23699119 2.625 30.625 C-1.53429951 32.80368069 -5.49524229 31.79091166 -10 31 C-10.12117187 29.90300781 -10.24234375 28.80601562 -10.3671875 27.67578125 C-10.53609363 26.22131177 -10.70538481 24.76688696 -10.875 23.3125 C-10.95363281 22.59126953 -11.03226563 21.87003906 -11.11328125 21.12695312 C-11.49741055 17.89140245 -11.91459473 15.21351316 -13.1328125 12.16796875 C-14 10 -14 10 -13 7 C-12.34 7 -11.68 7 -11 7 C-11 7.99 -11 8.98 -11 10 C-10.67 9.34 -10.34 8.68 -10 8 C-9.01 8.33 -8.02 8.66 -7 9 C-7.33 9.99 -7.66 10.98 -8 12 C-7.67 12.33 -7.34 12.66 -7 13 C-6.34 11.02 -5.68 9.04 -5 7 C-4.34 8.32 -3.68 9.64 -3 11 C-2.67 10.34 -2.34 9.68 -2 9 C-1.34 9 -0.68 9 0 9 C0 6.03 0 3.06 0 0 Z " fill="#5F46E6" transform="translate(166,233)"/>
<path d="M0 0 C0.33 0 0.66 0 1 0 C1 27.06 1 54.12 1 82 C0.67 82 0.34 82 0 82 C0 67.81 0 53.62 0 39 C-0.66 39 -1.32 39 -2 39 C-2 39.99 -2 40.98 -2 42 C-5 43 -5 43 -13 43 C-12.67 56.2 -12.34 69.4 -12 83 C-13.98 83.495 -13.98 83.495 -16 84 C-16 69.81 -16 55.62 -16 41 C-12.04 41 -8.08 41 -4 41 C-4 36.05 -4 31.1 -4 26 C-3.01 26 -2.02 26 -1 26 C-0.67 17.42 -0.34 8.84 0 0 Z " fill="#4634E5" transform="translate(407,204)"/>
<path d="M0 0 C3.40814953 2.32373832 5.36295532 4.50505458 7.75 7.875 C7.75 8.865 7.75 9.855 7.75 10.875 C-1.82 10.875 -11.39 10.875 -21.25 10.875 C-18.8999183 2.64971405 -18.8999183 2.64971405 -14.3125 -0.24609375 C-9.43024265 -2.32660114 -4.89730296 -1.69522025 0 0 Z " fill="#5645E3" transform="translate(340.25,243.125)"/>
<path d="M0 0 C2.75329021 1.79562405 4.52627461 3.05254922 6 6 C6.55881444 10.09797257 6.1370529 11.76872323 4 15.375 C0.47775176 18.45696721 0.47775176 18.45696721 -3 18.6875 C-6.18845573 18.41575661 -7.2010566 17.86596227 -10 16 C-12.21963243 12.67055136 -12.75539772 10.86081066 -12.48046875 6.9375 C-10.87278432 0.45447986 -5.98096831 -0.96122705 0 0 Z " fill="#FAF9FB" transform="translate(252,205)"/>
<path d="M0 0 C3.75084726 1.03633035 7.24713995 2.66172856 10.80859375 4.21484375 C14.42516033 5.70156165 18.09387916 6.9210923 21.81640625 8.10546875 C29.03895908 10.44910783 35.988157 12.85982653 41.81640625 17.85546875 C43.77695252 21.7765613 43.52886744 25.30283863 43.19140625 29.60546875 C41.87140625 29.60546875 40.55140625 29.60546875 39.19140625 29.60546875 C39.13984375 28.93 39.08828125 28.25453125 39.03515625 27.55859375 C38.67611235 24.73520306 38.18283468 22.27599725 37.19140625 19.60546875 C34.274305 17.48914039 32.53351451 16.67884659 29.19140625 15.60546875 C28.00933594 15.198125 26.82726562 14.79078125 25.609375 14.37109375 C22.99296489 13.47750836 20.3696415 12.61022637 17.73828125 11.76171875 C13.83851945 10.49043076 10.01861827 9.07572446 6.19140625 7.60546875 C4.25626621 6.87006186 2.31861149 6.14124867 0.37890625 5.41796875 C-0.53503906 5.07378906 -1.44898437 4.72960937 -2.390625 4.375 C-4.86213495 3.45383515 -4.86213495 3.45383515 -7.80859375 3.60546875 C-7.80859375 2.94546875 -7.80859375 2.28546875 -7.80859375 1.60546875 C-4.61775089 -0.52175982 -3.64479799 -0.64678044 0 0 Z " fill="#EFEDF8" transform="translate(127.80859375,211.39453125)"/>
<path d="M0 0 C4.455 0.99 4.455 0.99 9 2 C8.67 2.99 8.34 3.98 8 5 C7.01 5 6.02 5 5 5 C6.20377605 8.61132816 6.99053109 8.79357058 10.1875 10.625 C15.07303329 13.75955816 18.81539628 17.5384907 21 23 C20.69968298 26.06687378 20.18175384 27.71979616 18.5 30.3125 C16.65540446 33.06130458 16.65540446 33.06130458 17.1875 36.9375 C17.0390625 38.9921875 17.0390625 38.9921875 16 41 C11.55995615 43.69534148 6.98475158 45.55593257 2 47 C1.34 46.67 0.68 46.34 0 46 C4.04170325 40.24363477 4.04170325 40.24363477 8.6875 39.0625 C12 39 12 39 14 40 C14 39.34 14 38.68 14 38 C13.01 37.67 12.02 37.34 11 37 C12.12451727 34.0280615 13.22293791 31.66559313 15 29 C15.66 29 16.32 29 17 29 C17.55178939 23.34415877 16.21198546 20.51414173 13 16 C10.55850018 14.6571751 8.50503258 14.11543602 5.8125 13.5 C2.56049461 12.60289507 0.78718603 9.71963092 -1 7 C-1.6875 4.25 -1.6875 4.25 -2 2 C-1.34 2 -0.68 2 0 2 C0 1.34 0 0.68 0 0 Z M3 5 C2.67 5.99 2.34 6.98 2 8 C2.66 8 3.32 8 4 8 C3.67 7.01 3.34 6.02 3 5 Z " fill="#6640E9" transform="translate(79,169)"/>
<path d="M0 0 C0.33 0 0.66 0 1 0 C1 4.95 1 9.9 1 15 C3.97 15 6.94 15 10 15 C10 29.19 10 43.38 10 58 C9.34 58 8.68 58 8 58 C8 44.47 8 30.94 8 17 C5.69 17.33 3.38 17.66 1 18 C0.87625 18.639375 0.7525 19.27875 0.625 19.9375 C0.41875 20.618125 0.2125 21.29875 0 22 C-0.66 22.33 -1.32 22.66 -2 23 C-4.73381692 17.53236617 -6.23718689 12.17815384 -6 6 C-5.34 5.34 -4.68 4.68 -4 4 C-4 4.66 -4 5.32 -4 6 C-1.7522025 3.94766315 -0.9977758 2.99332739 0 0 Z " fill="#4836E5" transform="translate(365,230)"/>
<path d="M0 0 C-8.02873343 7.36692894 -16.23336262 14.51676584 -25 21 C-25 19.33333333 -25 17.66666667 -25 16 C-24.34 15.67 -23.68 15.34 -23 15 C-22.34444881 12.47266765 -22.34444881 12.47266765 -22 10 C-24.97 10 -27.94 10 -31 10 C-28.02685074 8.01790049 -25.63495383 7.13211104 -22.25 6.0625 C-16.7410018 4.27489986 -11.56296048 2.19207464 -6.3125 -0.25 C-3.68033714 -1.10367444 -2.59084202 -0.7636166 0 0 Z " fill="#6948E6" transform="translate(97,215)"/>
<path d="M0 0 C3.61986532 0.8116877 5.12897034 2.4703572 7.16015625 5.484375 C7.16015625 7.464375 7.16015625 9.444375 7.16015625 11.484375 C0.89015625 11.484375 -5.37984375 11.484375 -11.83984375 11.484375 C-11.83984375 5.484375 -11.83984375 5.484375 -9.90234375 2.609375 C-6.32095478 0.12432959 -4.27454545 -0.25690089 0 0 Z " fill="#5D3BE8" transform="translate(110.83984375,196.515625)"/>
<path d="M0 0 C1.1446875 0.3403125 1.1446875 0.3403125 2.3125 0.6875 C1.9825 1.6775 1.6525 2.6675 1.3125 3.6875 C0.6525 3.6875 -0.0075 3.6875 -0.6875 3.6875 C-0.6875 4.3475 -0.6875 5.0075 -0.6875 5.6875 C3.9325 5.6875 8.5525 5.6875 13.3125 5.6875 C13.3125 6.0175 13.3125 6.3475 13.3125 6.6875 C8.3625 6.6875 3.4125 6.6875 -1.6875 6.6875 C-2.0175 26.1575 -2.3475 45.6275 -2.6875 65.6875 C-3.0175 65.6875 -3.3475 65.6875 -3.6875 65.6875 C-4.01828473 57.52574526 -4.33241627 49.36359295 -4.62523937 41.20039654 C-4.76173042 37.40999846 -4.90397314 33.61999786 -5.05932617 29.83032227 C-5.20900859 26.1738224 -5.34362697 22.51705116 -5.46776772 18.85959816 C-5.51781124 17.46353653 -5.57330258 16.06765931 -5.63429832 14.67203331 C-5.71872794 12.71901685 -5.78209339 10.76512404 -5.84448242 8.8112793 C-5.88667404 7.6987529 -5.92886566 6.5862265 -5.97233582 5.43998718 C-5.6875 2.6875 -5.6875 2.6875 -4.34565735 0.78523254 C-2.6875 -0.3125 -2.6875 -0.3125 0 0 Z " fill="#4C36E4" transform="translate(242.6875,222.3125)"/>
<path d="M0 0 C3.5 0.125 3.5 0.125 4.5 1.125 C4.58767112 3.19762076 4.60695873 5.27320294 4.59765625 7.34765625 C4.59443359 8.60771484 4.59121094 9.86777344 4.58789062 11.16601562 C4.57953403 12.50651109 4.57106907 13.84700588 4.5625 15.1875 C4.5574866 16.53189942 4.55292342 17.8763006 4.54882812 19.22070312 C4.53699488 22.52217941 4.52050971 25.82356803 4.5 29.125 C3.84 29.455 3.18 29.785 2.5 30.125 C1.51 23.195 0.52 16.265 -0.5 9.125 C-1.82 8.795 -3.14 8.465 -4.5 8.125 C-4.54241723 5.79205225 -4.54092937 3.45797433 -4.5 1.125 C-3.5 0.125 -3.5 0.125 0 0 Z " fill="#F0EEF9" transform="translate(121.5,231.875)"/>
<path d="M0 0 C3 1 3 1 4 3 C4.99 3 5.98 3 7 3 C7 7.62 7 12.24 7 17 C6.67 16.34 6.34 15.68 6 15 C5.443125 15.33 4.88625 15.66 4.3125 16 C1.69715478 17.1309601 -0.1806646 17.15662974 -3 17 C-3.40368295 10.54107286 -2.5915262 5.93891422 0 0 Z " fill="#603BE9" transform="translate(55,244)"/>
<path d="M0 0 C3 0.125 3 0.125 4 1.125 C4.04080783 3.12458364 4.04254356 5.12545254 4 7.125 C3.34 7.125 2.68 7.125 2 7.125 C2.04640625 7.72828125 2.0928125 8.3315625 2.140625 8.953125 C2.43363447 15.4411918 2.43363447 15.4411918 0.375 18.6875 C-2.66755584 20.52904695 -4.497696 20.57210264 -8 20.125 C-8.99 19.465 -9.98 18.805 -11 18.125 C-11 17.135 -11 16.145 -11 15.125 C-8.03 15.455 -5.06 15.785 -2 16.125 C-2 13.155 -2 10.185 -2 7.125 C-2.66 7.125 -3.32 7.125 -4 7.125 C-4.04254356 5.12545254 -4.04080783 3.12458364 -4 1.125 C-3 0.125 -3 0.125 0 0 Z " fill="#E6E2FA" transform="translate(168,244.875)"/>
<path d="M0 0 C2.31 0 4.62 0 7 0 C6.67 5.28 6.34 10.56 6 16 C8.64 15.67 11.28 15.34 14 15 C13.625 16.9375 13.625 16.9375 13 19 C10.20129973 20.39935013 8.09501208 20.25265405 5 20 C3.3203125 18.80859375 3.3203125 18.80859375 2 17 C1.70703125 14.51953125 1.70703125 14.51953125 1.8125 11.8125 C1.83957031 10.91144531 1.86664063 10.01039063 1.89453125 9.08203125 C1.92933594 8.39496094 1.96414062 7.70789063 2 7 C1.34 7 0.68 7 0 7 C0 4.69 0 2.38 0 0 Z " fill="#EEEAFA" transform="translate(46,245)"/>
<path d="M0 0 C6.15234375 -0.09765625 6.15234375 -0.09765625 8 0 C9 1 9 1 9.0625 4.5625 C9.041875 5.696875 9.02125 6.83125 9 8 C7.68 8.33 6.36 8.66 5 9 C4.34 11.97 3.68 14.94 3 18 C2.34 17.34 1.68 16.68 1 16 C-2.08347826 15.83318891 -2.08347826 15.83318891 -5 16 C-5 15.01 -5 14.02 -5 13 C-3.35 13 -1.7 13 0 13 C0 8.71 0 4.42 0 0 Z " fill="#F2F0FA" transform="translate(119,285)"/>
<path d="M0 0 C0.99 0 1.98 0 3 0 C3 1.65 3 3.3 3 5 C2.67 5 2.34 5 2 5 C2 6.98 2 8.96 2 11 C1.01 11.495 1.01 11.495 0 12 C0 9.36 0 6.72 0 4 C-4.95 4 -9.9 4 -15 4 C-15 23.14 -15 42.28 -15 62 C-10.05 62 -5.1 62 0 62 C0 62.33 0 62.66 0 63 C-5.28 63 -10.56 63 -16 63 C-16 43.2 -16 23.4 -16 3 C-10.72 3 -5.44 3 0 3 C0 2.01 0 1.02 0 0 Z " fill="#5745E0" transform="translate(280,226)"/>
<path d="M0 0 C6.15234375 -0.09765625 6.15234375 -0.09765625 8 0 C9 1 9 1 9.125 3.8125 C9.02143268 6.45346678 8.6935793 8.48577504 8 11 C8 11.99 8 12.98 8 14 C8.66 14.33 9.32 14.66 10 15 C8.35 15.66 6.7 16.32 5 17 C4.67 14.36 4.34 11.72 4 9 C2.68 8.67 1.36 8.34 0 8 C0 5.36 0 2.72 0 0 Z " fill="#F6F4F9" transform="translate(90,285)"/>
<path d="M0 0 C14.19 0 28.38 0 43 0 C43 0.33 43 0.66 43 1 C41.94039063 1.02578125 40.88078125 1.0515625 39.7890625 1.078125 C38.40099999 1.1343978 37.01298075 1.19174533 35.625 1.25 C34.57699219 1.27126953 34.57699219 1.27126953 33.5078125 1.29296875 C31.22282354 1.36035782 31.22282354 1.36035782 28 2 C26.43516506 3.91388341 26.43516506 3.91388341 26 6 C24.54119891 5.85892253 23.08296449 5.71197585 21.625 5.5625 C20.81289063 5.48128906 20.00078125 5.40007812 19.1640625 5.31640625 C17 5 17 5 15 4 C15 3.01 15 2.02 15 1 C10.05 1 5.1 1 0 1 C0 0.67 0 0.34 0 0 Z " fill="#4431E3" transform="translate(320,266)"/>
<path d="M0 0 C6.82026757 1.5739079 13.38239489 3.72795558 20 6 C19.01 7.485 19.01 7.485 18 9 C17.34 9 16.68 9 16 9 C15.67 10.32 15.34 11.64 15 13 C11.12207603 11.38419835 8.28921212 8.75734641 5.25 5.9375 C4.74339844 5.47794922 4.23679687 5.01839844 3.71484375 4.54492188 C2.45382769 3.38757425 1.22393107 2.19649813 0 1 C0 0.67 0 0.34 0 0 Z " fill="#6346E7" transform="translate(121,214)"/>
<path d="M0 0 C0.33 0.99 0.66 1.98 1 3 C2.32 2.67 3.64 2.34 5 2 C5 2.66 5 3.32 5 4 C6.32 4.33 7.64 4.66 9 5 C8.67 6.32 8.34 7.64 8 9 C8.99 9.66 9.98 10.32 11 11 C7.55055743 11.48225216 4.42760497 11.70121995 1 11 C-1.41945128 8.6709458 -2.80779809 6.12482394 -4 3 C-4 2.34 -4 1.68 -4 1 C-2 0 -2 0 0 0 Z " fill="#613CE9" transform="translate(103,182)"/>
<path d="M0 0 C-1.875 4.75 -1.875 4.75 -3 7 C-3.15004973 8.3734635 -3.24838006 9.7528526 -3.31640625 11.1328125 C-3.35830078 11.93847656 -3.40019531 12.74414062 -3.44335938 13.57421875 C-3.50233398 14.83685547 -3.50233398 14.83685547 -3.5625 16.125 C-3.60568359 16.97449219 -3.64886719 17.82398438 -3.69335938 18.69921875 C-3.79954236 20.79928223 -3.90028497 22.89961948 -4 25 C-4.66 25.33 -5.32 25.66 -6 26 C-7.37519962 18.60830204 -8.61524777 9.17943815 -6 2 C-3.85331506 0.61504198 -2.56128588 0 0 0 Z " fill="#FAF9FA" transform="translate(70,241)"/>
<path d="M0 0 C0.66 0 1.32 0 2 0 C2.66 3.63 3.32 7.26 4 11 C-1.94 10.34 -7.88 9.68 -14 9 C-13.67 8.34 -13.34 7.68 -13 7 C-10.19841184 6.47385904 -7.39913694 6.16939588 -4.56640625 5.85546875 C-1.74969399 5.24630275 -1.74969399 5.24630275 -0.65234375 2.42578125 C-0.32943359 1.22501953 -0.32943359 1.22501953 0 0 Z " fill="#5539E5" transform="translate(115,288)"/>
<path d="M0 0 C2.13093906 1.06546953 3.36587557 2.29159719 5 4 C4.01 5.32 3.02 6.64 2 8 C4.64 8.33 7.28 8.66 10 9 C10 9.33 10 9.66 10 10 C5.05 10.33 0.1 10.66 -5 11 C-5 5 -5 5 -2.5 2.125 C-1.2625 1.073125 -1.2625 1.073125 0 0 Z " fill="#6B4BE6" transform="translate(104,197)"/>
<path d="M0 0 C7.26 0.66 14.52 1.32 22 2 C19 5 19 5 16.0390625 5.36328125 C14.91242188 5.34652344 13.78578125 5.32976562 12.625 5.3125 C10.94277344 5.30669922 10.94277344 5.30669922 9.2265625 5.30078125 C6.0399433 5.00372353 3.80666117 4.52580307 1 3 C0.67 2.01 0.34 1.02 0 0 Z " fill="#4836E2" transform="translate(321,288)"/>
<path d="M0 0 C2.23079726 2.41669703 2.96940652 3.75015327 3.375 7.0625 C3 10 3 10 1.875 11.875 C-0.85252465 13.51151479 -2.87973093 13.32502803 -6 13 C-6.99 12.34 -7.98 11.68 -9 11 C-9 10.01 -9 9.02 -9 8 C-6.03 8.33 -3.06 8.66 0 9 C0 6.03 0 3.06 0 0 Z " fill="#FBFAF9" transform="translate(166,252)"/>
<path d="M0 0 C0.33 0 0.66 0 1 0 C1.33 2.31 1.66 4.62 2 7 C4.64 7 7.28 7 10 7 C9.625 8.9375 9.625 8.9375 9 11 C6.23749964 12.38125018 4.05268901 12.19079306 1 12 C-1 10 -1 10 -1.23046875 7.87109375 C-1.20919922 6.66646484 -1.20919922 6.66646484 -1.1875 5.4375 C-1.18105469 4.63183594 -1.17460938 3.82617188 -1.16796875 2.99609375 C-1 1 -1 1 0 0 Z " fill="#FCFBFA" transform="translate(50,253)"/>
<path d="M0 0 C0.66 0 1.32 0 2 0 C1.67 0.66 1.34 1.32 1 2 C0.67 1.34 0.34 0.68 0 0 Z M-0.75 1.375 C-0.1725 1.58125 0.405 1.7875 1 2 C0.58639663 6.8253726 -1.4219649 8.86921929 -5 12 C-5.33 12 -5.66 12 -6 12 C-6.33 9.03 -6.66 6.06 -7 3 C-3 1 -3 1 -0.75 1.375 Z " fill="#623BE8" transform="translate(59,228)"/>
<path d="M0 0 C0.66 0 1.32 0 2 0 C2 3.63 2 7.26 2 11 C3.32 11.33 4.64 11.66 6 12 C4.35 12.66 2.7 13.32 1 14 C0.34 11.69 -0.32 9.38 -1 7 C-2.65 7 -4.3 7 -6 7 C-5.04882866 5.8274869 -4.08882991 4.66212985 -3.125 3.5 C-2.59132813 2.8503125 -2.05765625 2.200625 -1.5078125 1.53125 C-0.76144531 0.77328125 -0.76144531 0.77328125 0 0 Z " fill="#6A4FE7" transform="translate(89,269)"/>
<path d="M0 0 C2.3828125 0.0234375 2.3828125 0.0234375 5.125 0.375 C6.03507812 0.48585938 6.94515625 0.59671875 7.8828125 0.7109375 C8.93082031 0.85402344 8.93082031 0.85402344 10 1 C6.59353476 4.0279691 5.9819505 4 1 4 C1 8.62 1 13.24 1 18 C0.67 18 0.34 18 0 18 C-0.06058594 17.09636719 -0.12117188 16.19273437 -0.18359375 15.26171875 C-0.26738281 14.08222656 -0.35117187 12.90273438 -0.4375 11.6875 C-0.51871094 10.51574219 -0.59992188 9.34398437 -0.68359375 8.13671875 C-0.8867371 4.97409042 -0.8867371 4.97409042 -2 2 C-1.34 1.34 -0.68 0.68 0 0 Z " fill="#5C51E5" transform="translate(439,293)"/>
<path d="M0 0 C0.144375 0.61875 0.28875 1.2375 0.4375 1.875 C0.93152225 4.03258322 0.93152225 4.03258322 2 6 C0.625 8 0.625 8 -1 10 C-1.66 10 -2.32 10 -3 10 C-4.66965451 10.31802943 -6.33678518 10.64984951 -8 11 C-8 11.66 -8 12.32 -8 13 C-9.32 12.67 -10.64 12.34 -12 12 C-11.46890625 11.63648438 -10.9378125 11.27296875 -10.390625 10.8984375 C-5.84855246 7.66594062 -2.76940714 4.8464625 0 0 Z " fill="#564CE5" transform="translate(466,296)"/>
<path d="M0 0 C0.66 0.66 1.32 1.32 2 2 C1.34 2.66 0.68 3.32 0 4 C0 5.32 0 6.64 0 8 C-1 9 -1 9 -4.37890625 9.09765625 C-5.77347077 9.09098369 -7.16801743 9.07902532 -8.5625 9.0625 C-9.62887695 9.05573242 -9.62887695 9.05573242 -10.71679688 9.04882812 C-12.47790013 9.03700864 -14.23896036 9.01907263 -16 9 C-16 8.67 -16 8.34 -16 8 C-12.04 8 -8.08 8 -4 8 C-4.33 7.01 -4.66 6.02 -5 5 C-4.0625 2.8125 -4.0625 2.8125 -3 1 C-2.34 1 -1.68 1 -1 1 C-0.67 0.67 -0.34 0.34 0 0 Z " fill="#4835E3" transform="translate(425,194)"/>
<path d="M0 0 C0.99 0.495 0.99 0.495 2 1 C3.86360591 6.90141871 4.22742222 12.85959995 4 19 C3.34 19.33 2.68 19.66 2 20 C0.74158054 13.25846717 -0.26404456 6.86515862 0 0 Z " fill="#FDFDFB" transform="translate(122,242)"/>
<path d="M0 0 C0.33 0 0.66 0 1 0 C1.33 2.97 1.66 5.94 2 9 C1.34 9 0.68 9 0 9 C0 9.66 0 10.32 0 11 C0.99 11 1.98 11 3 11 C2.67 11.66 2.34 12.32 2 13 C-0.64860427 13.59355614 -3.29197322 13.74209269 -6 14 C-6.33 13.34 -6.66 12.68 -7 12 C-4.82575883 9.49962266 -3.26954202 8.56371414 0 8 C0 5.36 0 2.72 0 0 Z " fill="#E1DAF5" transform="translate(95,202)"/>
<path d="M0 0 C3.73584906 1.47169811 3.73584906 1.47169811 5 4 C3.3789897 4.69685498 1.75303934 5.38222861 0.125 6.0625 C-0.77992187 6.44535156 -1.68484375 6.82820312 -2.6171875 7.22265625 C-5 8 -5 8 -7 7 C-2.25 1.125 -2.25 1.125 0 0 Z " fill="#6D4CE7" transform="translate(86,208)"/>
<path d="M0 0 C0.36265043 4.23092172 -0.39749195 6.62637846 -3 10 C-3.99 10 -4.98 10 -6 10 C-5.125 3.25 -5.125 3.25 -4 1 C-1 0 -1 0 0 0 Z " fill="#E7E1F7" transform="translate(103,218)"/>
<path d="M0 0 C0.99 0 1.98 0 3 0 C6 4.22222222 6 4.22222222 6 7 C5.01 7.495 5.01 7.495 4 8 C3.67 8.99 3.34 9.98 3 11 C2.34 10.67 1.68 10.34 1 10 C0.4375 7.6875 0.4375 7.6875 0 5 C-0.20625 4.2575 -0.4125 3.515 -0.625 2.75 C-0.74875 2.1725 -0.8725 1.595 -1 1 C-0.67 0.67 -0.34 0.34 0 0 Z " fill="#E7E1F7" transform="translate(98,186)"/>
<path d="M0 0 C1.32 0 2.64 0 4 0 C4 2.97 4 5.94 4 9 C2.68 9 1.36 9 0 9 C0 6.03 0 3.06 0 0 Z " fill="#E8E3F9" transform="translate(167,232)"/>
<path d="M0 0 C0.66 0.33 1.32 0.66 2 1 C2.6328125 3.28515625 2.6328125 3.28515625 3.125 6.0625 C3.29257813 6.98160156 3.46015625 7.90070313 3.6328125 8.84765625 C3.75398438 9.55792969 3.87515625 10.26820313 4 11 C2.68 11 1.36 11 0 11 C-2.21538462 4.6 -2.21538462 4.6 -1.125 1.5625 C-0.75375 1.046875 -0.3825 0.53125 0 0 Z " fill="#E7E2F5" transform="translate(117,217)"/>
<path d="M0 0 C2 3 2 3 2 5 C0.7625 5.8971875 0.7625 5.8971875 -0.5 6.8125 C-3.28463809 8.75364411 -3.28463809 8.75364411 -3.3125 11.75 C-3.209375 12.4925 -3.10625 13.235 -3 14 C-3.99 13.34 -4.98 12.68 -6 12 C-5.54300722 6.97307937 -3.00758252 3.85103739 0 0 Z " fill="#6B4BE8" transform="translate(123,184)"/>
<path d="M0 0 C2.64 0 5.28 0 8 0 C8 0.33 8 0.66 8 1 C7.34773438 1.17015625 6.69546875 1.3403125 6.0234375 1.515625 C0.63277496 3.01038098 -3.54753872 4.60206902 -8 8 C-8.33 7.34 -8.66 6.68 -9 6 C-8.0625 3.875 -8.0625 3.875 -7 2 C-4.69 2 -2.38 2 0 2 C0 1.34 0 0.68 0 0 Z " fill="#6A59E6" transform="translate(320,229)"/>
<path d="M0 0 C0.99 0 1.98 0 3 0 C3 1.65 3 3.3 3 5 C2.67 5 2.34 5 2 5 C2 6.98 2 8.96 2 11 C1.01 11.495 1.01 11.495 0 12 C0 9.36 0 6.72 0 4 C-4.95 4 -9.9 4 -15 4 C-15 3.67 -15 3.34 -15 3 C-10.05 3 -5.1 3 0 3 C0 2.01 0 1.02 0 0 Z " fill="#5F4EE0" transform="translate(280,226)"/>
<path d="M0 0 C0.66 0.33 1.32 0.66 2 1 C2 3.64 2 6.28 2 9 C-0.64 9 -3.28 9 -6 9 C-4.625 7.5 -4.625 7.5 -3 6 C-2.34 6 -1.68 6 -1 6 C-1.020625 5.195625 -1.04125 4.39125 -1.0625 3.5625 C-1 1 -1 1 0 0 Z " fill="#4634E6" transform="translate(373,220)"/>
<path d="M0 0 C0.103125 0.928125 0.20625 1.85625 0.3125 2.8125 C0.78835778 5.88579942 0.78835778 5.88579942 2.125 7.8125 C4.93062237 9.58939417 7.74104317 9.69255124 11 10 C11 10.33 11 10.66 11 11 C7.55055743 11.48225216 4.42760497 11.70121995 1 11 C-1.41945128 8.6709458 -2.80779809 6.12482394 -4 3 C-4 2.34 -4 1.68 -4 1 C-2 0 -2 0 0 0 Z " fill="#6948E5" transform="translate(103,182)"/>
<path d="M0 0 C1.26772989 2.0880257 2.05965732 3.40342676 1.8125 5.875 C0.72200222 8.72707112 -0.47078243 11.35327728 -2 14 C-2.99 14.33 -3.98 14.66 -5 15 C-1.92482916 4.44191344 -1.92482916 4.44191344 0 0 Z " fill="#5E56E6" transform="translate(477,268)"/>
<path d="M0 0 C0.66 0 1.32 0 2 0 C2 2.31 2 4.62 2 7 C2.66 7 3.32 7 4 7 C4.33 10.63 4.66 14.26 5 18 C4.34 18 3.68 18 3 18 C3 14.7 3 11.4 3 8 C2.01 7.67 1.02 7.34 0 7 C-1.125 2.25 -1.125 2.25 0 0 Z M-3 2 C-2.34 2.66 -1.68 3.32 -1 4 C-1.99 4.495 -1.99 4.495 -3 5 C-3 4.01 -3 3.02 -3 2 Z " fill="#6A45E8" transform="translate(44,245)"/>
<path d="M0 0 C2.31 0.66 4.62 1.32 7 2 C7.33 3.32 7.66 4.64 8 6 C8.99 6 9.98 6 11 6 C11.33 6.99 11.66 7.98 12 9 C8.0557333 9 7.17603973 7.68625863 4.3125 5.0625 C3.50425781 4.33160156 2.69601563 3.60070312 1.86328125 2.84765625 C1.24839844 2.23792969 0.63351563 1.62820312 0 1 C0 0.67 0 0.34 0 0 Z " fill="#644AE6" transform="translate(138,229)"/>
<path d="M0 0 C0.66 0.99 1.32 1.98 2 3 C1.5390625 5.26171875 1.5390625 5.26171875 0.625 7.6875 C0.32851563 8.49574219 0.03203125 9.30398437 -0.2734375 10.13671875 C-0.51320313 10.75160156 -0.75296875 11.36648438 -1 12 C-1.99 12 -2.98 12 -4 12 C-3.52309796 10.37433394 -3.04340334 8.74948689 -2.5625 7.125 C-2.29566406 6.22007812 -2.02882813 5.31515625 -1.75390625 4.3828125 C-1 2 -1 2 0 0 Z " fill="#6358E8" transform="translate(485,246)"/>
<path d="M0 0 C0 1.32 0 2.64 0 4 C0.66 4 1.32 4 2 4 C1.67 4.66 1.34 5.32 1 6 C-0.65 6 -2.3 6 -4 6 C-3.67 4.68 -3.34 3.36 -3 2 C-4.65 2.33 -6.3 2.66 -8 3 C-8 2.34 -8 1.68 -8 1 C-5.07175348 0.02391783 -3.04386724 -0.08226668 0 0 Z " fill="#7052E7" transform="translate(136,172)"/>
<path d="M0 0 C0.33 0.66 0.66 1.32 1 2 C1.66 2 2.32 2 3 2 C2.67 3.65 2.34 5.3 2 7 C0.35 6.67 -1.3 6.34 -3 6 C-2.625 3.5625 -2.625 3.5625 -2 1 C-1.34 0.67 -0.68 0.34 0 0 Z " fill="#4741E5" transform="translate(469,295)"/>
<path d="M0 0 C-0.375 1.9375 -0.375 1.9375 -1 4 C-3.70879335 5.35439668 -6.00933268 5.06501451 -9 5 C-8.25 3.0625 -8.25 3.0625 -7 1 C-4.50529228 0.03430669 -2.70254461 0 0 0 Z " fill="#EFEBF6" transform="translate(60,260)"/>
<path d="M0 0 C2.31 0 4.62 0 7 0 C7 0.33 7 0.66 7 1 C4.69 1.33 2.38 1.66 0 2 C0 1.34 0 0.68 0 0 Z M-3 1 C-2.01 1.33 -1.02 1.66 0 2 C0 3.65 0 5.3 0 7 C-1.65 6.67 -3.3 6.34 -5 6 C-4.34 4.35 -3.68 2.7 -3 1 Z " fill="#4935E5" transform="translate(290,247)"/>
<path d="M0 0 C-1.3697164 3.99500618 -3.25722422 6.80009492 -6 10 C-7.0536628 6.83901159 -7.21514551 5.99112741 -6 3 C-2.67857143 0 -2.67857143 0 0 0 Z " fill="#F8F6F9" transform="translate(123,183)"/>
<path d="M0 0 C0.99 0.495 0.99 0.495 2 1 C2 1.66 2 2.32 2 3 C8.93 3.495 8.93 3.495 16 4 C16 4.33 16 4.66 16 5 C11.05 5.33 6.1 5.66 1 6 C0.67 4.02 0.34 2.04 0 0 Z " fill="#816CE2" transform="translate(97,293)"/>
<path d="M0 0 C0.99 0.33 1.98 0.66 3 1 C2.34 2.32 1.68 3.64 1 5 C0.34 5 -0.32 5 -1 5 C-1.66 5.66 -2.32 6.32 -3 7 C-3.66 6.01 -4.32 5.02 -5 4 C-2.6875 1.9375 -2.6875 1.9375 0 0 Z " fill="#FDFCFB" transform="translate(91,263)"/>
<path d="M0 0 C2.64 0.33 5.28 0.66 8 1 C7.01 1.33 6.02 1.66 5 2 C5 2.99 5 3.98 5 5 C2.525 4.01 2.525 4.01 0 3 C0 2.01 0 1.02 0 0 Z " fill="#E9E5F4" transform="translate(157,260)"/>
<path d="M0 0 C2.5 2.3125 2.5 2.3125 5 5 C5 5.99 5 6.98 5 8 C4.01 8 3.02 8 2 8 C0.74335022 5.09399739 0 3.20395416 0 0 Z " fill="#5947E4" transform="translate(306,274)"/>
<path d="M0 0 C0.33 0 0.66 0 1 0 C1 2.64 1 5.28 1 8 C-1.97 7.505 -1.97 7.505 -5 7 C-5.33 5.35 -5.66 3.7 -6 2 C-5.01 3.485 -5.01 3.485 -4 5 C-3.01 5 -2.02 5 -1 5 C-0.67 3.35 -0.34 1.7 0 0 Z " fill="#5033E7" transform="translate(164,253)"/>
<path d="M0 0 C-2.55068845 2.35448165 -3.71017358 2.98327924 -7.25 3.1875 C-8.1575 3.125625 -9.065 3.06375 -10 3 C-10 2.34 -10 1.68 -10 1 C-6.1496895 -1.56687367 -4.41430237 -0.83288724 0 0 Z " fill="#E3DDF4" transform="translate(130,212)"/>
<path d="M0 0 C0.66 0.33 1.32 0.66 2 1 C0.68 3.64 -0.64 6.28 -2 9 C-2.66 8.67 -3.32 8.34 -4 8 C-3.50168276 4.31245243 -2.89932357 2.39509338 0 0 Z " fill="#5E4AE5" transform="translate(285,248)"/>
<path d="M0 0 C2.97 0.99 5.94 1.98 9 3 C6.38058783 4.74627478 4.96175123 5.38722388 2 6 C2.33 5.01 2.66 4.02 3 3 C2.01 2.67 1.02 2.34 0 2 C0 1.34 0 0.68 0 0 Z " fill="#6541E5" transform="translate(57,217)"/>
<path d="M0 0 C2 2 2 2 2.125 5.125 C2.08375 6.07375 2.0425 7.0225 2 8 C-0.96175123 7.38722388 -2.38058783 6.74627478 -5 5 C-3.68 5 -2.36 5 -1 5 C-0.67 3.35 -0.34 1.7 0 0 Z " fill="#6242E7" transform="translate(116,200)"/>
<path d="M0 0 C0.66 0 1.32 0 2 0 C0.125 3.875 0.125 3.875 -1 5 C-3.67058851 5.14115161 -6.32432238 5.04247107 -9 5 C-9 4.67 -9 4.34 -9 4 C-7.88625 3.71125 -6.7725 3.4225 -5.625 3.125 C-1.99708908 2.30758671 -1.99708908 2.30758671 0 0 Z " fill="#6D56E5" transform="translate(116,313)"/>
<path d="M0 0 C0.33 0 0.66 0 1 0 C1.33 2.31 1.66 4.62 2 7 C1.34 7 0.68 7 0 7 C0 7.66 0 8.32 0 9 C-0.99 9.33 -1.98 9.66 -3 10 C-2.01 6.7 -1.02 3.4 0 0 Z " fill="#715BEA" transform="translate(122,300)"/>
<path d="M0 0 C0.66 0 1.32 0 2 0 C2 0.99 2 1.98 2 3 C2.66 3.33 3.32 3.66 4 4 C3.01 4.495 3.01 4.495 2 5 C1.67 5.99 1.34 6.98 1 8 C0.34 8 -0.32 8 -1 8 C-1.93065133 5.39417629 -2.14917407 4.35801776 -1.0625 1.75 C-0.711875 1.1725 -0.36125 0.595 0 0 Z " fill="#5847E4" transform="translate(359,276)"/>
<path d="M0 0 C0.66 0 1.32 0 2 0 C2.144375 0.598125 2.28875 1.19625 2.4375 1.8125 C2.8872439 3.56150404 3.42892341 5.28677023 4 7 C3.01 7 2.02 7 1 7 C0.34 5.02 -0.32 3.04 -1 1 C-0.67 0.67 -0.34 0.34 0 0 Z " fill="#623CEB" transform="translate(97,174)"/>
<path d="M0 0 C0.33 1.32 0.66 2.64 1 4 C-2.11227195 4 -4.94152152 3.54372951 -8 3 C-5.36095629 1.58622659 -2.92879371 0.62759865 0 0 Z " fill="#684BE5" transform="translate(75,287)"/>
<path d="M0 0 C0.66 1.32 1.32 2.64 2 4 C1.34 4.66 0.68 5.32 0 6 C-0.99 6 -1.98 6 -3 6 C-2.625 3.5625 -2.625 3.5625 -2 1 C-1.34 0.67 -0.68 0.34 0 0 Z " fill="#694AE9" transform="translate(114,220)"/>
<path d="M0 0 C0 1.65 0 3.3 0 5 C-0.99 5.495 -0.99 5.495 -2 6 C-2.66 5.67 -3.32 5.34 -4 5 C-4 3.68 -4 2.36 -4 1 C-1 0 -1 0 0 0 Z " fill="#EEEAF8" transform="translate(103,218)"/>
<path d="M0 0 C2.97 1.98 2.97 1.98 6 4 C5.01 4.66 4.02 5.32 3 6 C2.01 5.67 1.02 5.34 0 5 C0 3.35 0 1.7 0 0 Z " fill="#5A48E3" transform="translate(312,281)"/>
<path d="M0 0 C2.6855594 2.6855594 3.06049974 5.37621328 4 9 C3.01 8.67 2.02 8.34 1 8 C-0.35439668 5.29120665 -0.06501451 2.99066732 0 0 Z " fill="#6A5EE8" transform="translate(444,261)"/>
<path d="M0 0 C2.64 0.66 5.28 1.32 8 2 C6.68 2.99 5.36 3.98 4 5 C2.68 3.35 1.36 1.7 0 0 Z " fill="#6C50E4" transform="translate(121,214)"/>
</svg>
