<?xml version="1.0" encoding="UTF-8"?>
<svg version="1.1" xmlns="http://www.w3.org/2000/svg" width="1280" height="800">
<path d="M0 0 C422.4 0 844.8 0 1280 0 C1280 264 1280 528 1280 800 C857.6 800 435.2 800 0 800 C0 536 0 272 0 0 Z " fill="#FEFEFE" transform="translate(0,0)"/>
<path d="M0 0 C1.46595121 20.04218429 1.46595121 20.04218429 -1.546875 26.12109375 C-3.6875 28.3125 -3.6875 28.3125 -6.1640625 30.4375 C-9.91702367 33.82860541 -12.65049833 37.69623005 -15.5625 41.8125 C-16.12533691 42.60285645 -16.68817383 43.39321289 -17.26806641 44.20751953 C-43.21539291 80.93144844 -61.50079686 125.72903265 -61.26074219 171.15014648 C-61.24999669 173.5632428 -61.2607178 175.97559757 -61.2734375 178.38867188 C-61.28201163 187.4435284 -60.73782201 196.0823523 -59 205 C-58.85401367 205.79672119 -58.70802734 206.59344238 -58.55761719 207.41430664 C-50.63705113 249.10857447 -26.44035656 281.9087161 8 306 C22.97147104 315.9860127 39.28136969 323.46729302 56 330 C56.96292969 330.37898438 57.92585937 330.75796875 58.91796875 331.1484375 C65.85480543 333.77205198 72.95849258 335.80653542 80.08203125 337.8515625 C82.50587002 338.54801744 84.86913056 339.29804717 87.2578125 340.1171875 C89.61726299 340.87678267 91.60976599 341.29854341 94.0625 341.5 C98 342 98 342 100.2109375 342.91796875 C103.91011735 344.35308474 107.67742458 345.0809717 111.5625 345.8125 C112.44655518 345.97919189 113.33061035 346.14588379 114.24145508 346.31762695 C123.52234746 348.00415056 132.84974859 349.36126442 142.1875 350.6875 C142.93492462 350.79591217 143.68234924 350.90432434 144.4524231 351.01602173 C153.31052521 352.29308066 162.0897131 353.22236229 171.03277969 353.61112404 C175.59881346 353.82291711 180.11057228 354.19892638 184.6494379 354.73479366 C194.70621188 355.92013635 204.63513525 356.33809926 214.75390625 356.37109375 C216.40713144 356.38204723 218.0603551 356.39323346 219.71357727 356.40463257 C224.99657935 356.43510752 230.27942383 356.43822108 235.5625 356.4375 C236.46568214 356.43826412 237.36886429 356.43902824 238.29941559 356.43981552 C271.4390807 356.46298344 304.06594422 354.93644483 337 351 C337.93420776 350.88918091 338.86841553 350.77836182 339.83093262 350.66418457 C356.84354583 348.62807832 373.75431587 346.0821762 390.57421875 342.796875 C394.29647197 342.08102564 397.99489695 341.65079882 401.77270508 341.35253906 C404.11098987 341.04567405 404.11098987 341.04567405 406.69091797 340.09643555 C410.82131048 338.72786592 414.98507568 337.8408214 419.23828125 336.94140625 C421.04624117 336.55151211 422.85418333 336.16153557 424.66210938 335.77148438 C427.48556185 335.16651135 430.30935068 334.56317075 433.13354492 333.96166992 C435.87773878 333.37590622 438.62054212 332.78393849 441.36328125 332.19140625 C442.61060783 331.92874718 442.61060783 331.92874718 443.88313293 331.66078186 C448.72607305 330.61149593 453.36047749 329.29571984 458.02824402 327.6280365 C460.95470825 326.69590982 463.96399447 326.43371508 467 326 C469.07978576 325.38048935 471.11569174 324.66579896 473.1640625 323.94921875 C477.49528346 322.49951256 481.88257636 321.24839444 486.26904297 319.97753906 C498.20267815 316.50809711 510.02368492 312.72094559 521.81225586 308.79101562 C524.19342475 307.99802691 526.57616098 307.20987609 528.95898438 306.421875 C536.00596416 304.08132212 542.99437056 301.70686729 549.85961914 298.8671875 C554.08521652 297.15516265 558.42136808 295.73996496 562.7421875 294.2890625 C566.93631181 292.84441968 570.82771106 291.14517835 574.76708984 289.11132812 C579.42010165 286.79550594 584.23154912 284.81417213 589 282.75 C603.14913001 276.56431298 616.77966883 269.87470376 630.15209961 262.14819336 C630.87147705 261.73835205 631.59085449 261.32851074 632.33203125 260.90625 C633.28686401 260.35420898 633.28686401 260.35420898 634.26098633 259.79101562 C636 259 636 259 639 259 C639 280.78 639 302.56 639 325 C607.74295191 341.45107794 607.74295191 341.45107794 592 348 C590.98035156 348.43183594 589.96070313 348.86367188 588.91015625 349.30859375 C582.79098443 351.88974244 576.62606581 354.32105564 570.41796875 356.6796875 C567.39897599 357.84588127 564.40187365 359.05664287 561.40722656 360.28369141 C555.09002428 362.86329654 548.74834111 365.08801842 542.19921875 367.015625 C538.99644108 368.00109505 535.88703333 369.13563488 532.75 370.3125 C524.16288126 373.42556855 515.36978313 375.75904019 506.56640625 378.17578125 C501.35865841 379.60904303 496.18174612 381.1272389 491.00878906 382.68066406 C478.48361991 386.42949659 465.86351459 389.48150232 453.1015625 392.30908203 C450.16866944 392.96242644 447.24000378 393.63155725 444.3125 394.30859375 C438.88053641 395.56432338 433.44189698 396.78811656 428 398 C427.06542969 398.21011719 426.13085938 398.42023438 425.16796875 398.63671875 C412.02025105 401.57227142 398.88378925 403.88473128 385.52685547 405.65649414 C380.7541473 406.2929706 376.045431 406.92808755 371.359375 408.046875 C366.34639459 409.23094888 361.31282197 409.64418061 356.1875 410.0625 C354.34741639 410.21722558 352.50755913 410.37467288 350.66796875 410.53515625 C349.86641357 410.600979 349.0648584 410.66680176 348.23901367 410.73461914 C346.08516349 410.98990593 344.09883595 411.46757174 342 412 C339.58067339 412.15932151 337.1718891 412.28008069 334.75 412.375 C328.95897233 412.63046115 323.21426449 413.05689701 317.453125 413.70410156 C296.55123488 416.02127622 275.83818012 416.46931194 254.8203125 416.39111328 C250.19129057 416.37407319 245.56278846 416.3841661 240.93378448 416.40144062 C201.14571328 416.52699799 161.30477037 413.94176763 122.33007812 405.49121094 C119.92845552 404.98491749 117.52182487 404.52204995 115.109375 404.0703125 C86.20333644 398.63178327 57.47582487 389.90224936 31 377 C30.28505371 376.65163086 29.57010742 376.30326172 28.83349609 375.94433594 C24.81802101 373.97542328 20.82132123 371.97222955 16.84082031 369.93359375 C15.57415502 369.2911895 14.30231311 368.65892398 13.02636719 368.03515625 C8.36104444 365.75102145 3.90210898 363.25677458 -0.5 360.5 C-1.522146 359.86022217 -1.522146 359.86022217 -2.56494141 359.20751953 C-10.36920059 354.2401971 -17.70523748 348.67953694 -25 343 C-26.00675781 342.22011719 -27.01351562 341.44023438 -28.05078125 340.63671875 C-32.29421707 337.29854924 -36.27776695 333.92343484 -40 330 C-40.75990234 329.27103516 -40.75990234 329.27103516 -41.53515625 328.52734375 C-46.84698779 323.40910971 -51.39170787 317.74840593 -56 312 C-56.68320313 311.18402344 -57.36640625 310.36804688 -58.0703125 309.52734375 C-86.31081853 275.47261589 -97.47810001 231.11428992 -97.4375 187.625 C-97.43781219 186.87143219 -97.43812439 186.11786438 -97.43844604 185.34146118 C-97.39215988 170.70681723 -96.41755742 155.91555928 -92.8125 141.6875 C-92.59819336 140.8219751 -92.38388672 139.9564502 -92.16308594 139.06469727 C-81.73902687 98.21993116 -60.90457176 61.28203116 -32.25 30.43359375 C-30.36053949 28.38995851 -28.54658082 26.31195682 -26.75 24.1875 C-23.3301792 20.25470608 -19.67568549 16.56657046 -16 12.875 C-15.41831055 12.28871826 -14.83662109 11.70243652 -14.23730469 11.09838867 C-3.09978758 0 -3.09978758 0 0 0 Z " fill="#0272C5" transform="translate(294,276)"/>
<path d="M0 0 C0.92438055 -0.00407553 1.8487611 -0.00815105 2.80115318 -0.01235008 C7.72086731 -0.03314624 12.64055433 -0.04746 17.56030273 -0.05688477 C21.5422349 -0.06562763 25.52380465 -0.08622744 29.50561523 -0.1184082 C55.8829091 -0.32681753 81.63437683 0.79051337 107.79296875 4.23828125 C109.20662453 4.42140647 110.62029542 4.60441517 112.03398132 4.78730774 C118.15893473 5.58735427 124.21183156 6.39373143 130.23046875 7.80078125 C134.02273627 8.65640623 137.74148702 9.43013027 141.60546875 9.86328125 C144.79296875 10.23828125 144.79296875 10.23828125 145.79296875 11.23828125 C147.69064646 11.46342945 149.58910894 11.68569599 151.4921875 11.859375 C154.39205813 12.33694283 157.01599728 13.2791527 159.79296875 14.23828125 C161.9349609 14.87632147 164.08108085 15.50061709 166.23046875 16.11328125 C167.45378906 16.46261719 168.67710937 16.81195313 169.9375 17.171875 C173.74756558 18.24039835 177.58259818 19.20215686 181.41796875 20.17578125 C187.07230341 21.67388848 192.33825589 23.53810378 197.69140625 25.8828125 C201.23824097 27.43287755 204.82065187 28.8729148 208.41796875 30.30078125 C210.21171522 31.01550804 212.0054224 31.73034146 213.79760742 32.44897461 C215.22541154 33.0137722 216.65854203 33.56517768 218.0949707 34.10766602 C224.59865412 36.60612216 230.64197036 39.67377926 236.73046875 43.05078125 C237.69831299 43.58413086 238.66615723 44.11748047 239.66333008 44.66699219 C257.91745331 54.79534457 274.51882455 66.99520173 289.79296875 81.23828125 C290.58316406 81.96273437 291.37335937 82.6871875 292.1875 83.43359375 C303.93768024 94.6332809 313.28948798 107.89681689 320.79296875 122.23828125 C321.68048828 123.84316406 321.68048828 123.84316406 322.5859375 125.48046875 C335.13635972 149.02982612 340.18728209 175.88521934 340.10864258 202.38964844 C340.10548012 204.60531849 340.12907614 206.81964924 340.15429688 209.03515625 C340.22431158 224.95245424 336.88221073 239.91142773 332.79296875 255.23828125 C332.49648437 256.42164063 332.2 257.605 331.89453125 258.82421875 C329.69485497 267.19050889 326.53760308 274.69346742 322.69873047 282.40332031 C321.832977 284.15722951 321.0015327 285.92794953 320.171875 287.69921875 C313.92628169 300.78950306 305.8438589 312.66388872 297.23046875 324.30078125 C296.71782471 324.99800293 296.20518066 325.69522461 295.67700195 326.41357422 C294.43348584 328.06168832 293.11951051 329.65622582 291.79296875 331.23828125 C291.13296875 331.23828125 290.47296875 331.23828125 289.79296875 331.23828125 C289.54039307 331.81392822 289.28781738 332.3895752 289.02758789 332.98266602 C281.4255015 346.87146889 264.54368037 358.23685226 251.79296875 367.23828125 C251.18598145 367.67930176 250.57899414 368.12032227 249.95361328 368.57470703 C242.14333988 374.24031232 233.96345388 378.8825022 225.35546875 383.23828125 C224.43161377 383.70766113 223.50775879 384.17704102 222.5559082 384.66064453 C221.22112427 385.31782471 221.22112427 385.31782471 219.859375 385.98828125 C219.07506104 386.375 218.29074707 386.76171875 217.48266602 387.16015625 C213.97725952 388.56524612 210.47060178 389.38024 206.79296875 390.23828125 C206.53872813 383.53134458 206.36402733 376.82565475 206.24365234 370.11499023 C206.19346201 367.83424455 206.12529022 365.55381908 206.03857422 363.27416992 C205.91677854 359.98926895 205.86046648 356.70862698 205.81640625 353.421875 C205.7647934 352.40806259 205.71318054 351.39425018 205.66000366 350.34971619 C205.6576357 347.33856186 205.78438271 345.08041841 206.79296875 342.23828125 C209.79247904 339.24358684 213.09797556 337.27144542 216.79296875 335.23828125 C217.99798126 334.43820319 219.19359945 333.62361194 220.375 332.7890625 C221.97408203 331.68111328 221.97408203 331.68111328 223.60546875 330.55078125 C230.33975967 325.78732194 236.3607284 320.44423645 242.27441406 314.70556641 C243.71007237 313.31837887 245.16886402 311.95524944 246.62890625 310.59375 C265.13655279 292.9080763 279.10114038 269.60203857 286.79296875 245.23828125 C287.14359375 244.21863281 287.49421875 243.19898438 287.85546875 242.1484375 C298.29945752 210.42482162 296.06899172 174.43146619 281.79296875 144.23828125 C281.38433594 143.35398438 280.97570313 142.4696875 280.5546875 141.55859375 C277.41476311 135.14173009 273.79783034 129.15177342 269.79296875 123.23828125 C269.17035156 122.31402344 268.54773438 121.38976562 267.90625 120.4375 C249.83761464 95.0037447 223.57315997 77.4920708 195.79296875 64.23828125 C194.1248131 63.36612329 192.45795058 62.49148298 190.79296875 61.61328125 C178.2093854 55.37366032 164.70085574 51.58128993 151.20117188 47.89794922 C149.1188553 47.32754985 147.04135873 46.7396086 144.96484375 46.1484375 C124.19891683 40.3516709 102.95495173 36.64530464 81.53125 34.43334961 C79.06061513 34.17760787 76.59085601 33.91441155 74.12109375 33.65039062 C54.79485636 31.6086731 35.65844521 31.00172394 16.23046875 30.98828125 C14.95305817 30.9866095 13.67564758 30.98493774 12.35952759 30.98321533 C-8.36114991 30.9815969 -28.83731434 31.8105111 -49.45117188 33.87109375 C-52.69664539 34.18838393 -55.93976489 34.46332739 -59.19140625 34.70703125 C-73.13414558 35.7891543 -86.84197999 38.22062488 -100.609375 40.62109375 C-103.8365547 41.17472501 -107.06599029 41.70011846 -110.30078125 42.20703125 C-133.59934022 45.87534865 -156.67888707 50.81143834 -179.4453125 56.96875 C-183.32520985 58.01763815 -187.21693245 58.94445946 -191.14453125 59.80078125 C-197.9420094 61.32619957 -204.53482283 63.44594585 -211.15869141 65.58105469 C-214.50181754 66.653724 -217.85485661 67.69431595 -221.20703125 68.73828125 C-222.54949092 69.15881666 -223.89193884 69.57938955 -225.234375 70 C-227.80704127 70.80446766 -230.38251047 71.59667398 -232.9609375 72.3828125 C-241.03078159 74.85756469 -249.03663454 77.49550571 -257.01953125 80.23828125 C-257.9619165 80.55837158 -258.90430176 80.87846191 -259.87524414 81.20825195 C-265.63997621 83.20821984 -271.15612956 85.52245211 -276.68725586 88.09619141 C-279.93771865 89.56946579 -283.20772938 90.76369331 -286.58203125 91.92578125 C-291.29583071 93.5547669 -291.29583071 93.5547669 -295.93359375 95.3828125 C-298.20703125 96.23828125 -298.20703125 96.23828125 -301.20703125 96.23828125 C-301.20703125 96.89828125 -301.20703125 97.55828125 -301.20703125 98.23828125 C-303.2675298 99.05584363 -305.33051978 99.86712859 -307.39453125 100.67578125 C-308.54308594 101.12824219 -309.69164062 101.58070313 -310.875 102.046875 C-313.67826358 103.04921426 -316.27815701 103.7584092 -319.20703125 104.23828125 C-319.20703125 104.89828125 -319.20703125 105.55828125 -319.20703125 106.23828125 C-319.82449219 106.480625 -320.44195312 106.72296875 -321.078125 106.97265625 C-330.5688002 110.72847901 -339.56399226 114.88145486 -348.484375 119.84765625 C-351.20703125 121.23828125 -351.20703125 121.23828125 -353.20703125 121.23828125 C-354.29350911 115.51750583 -355.10299832 109.87026574 -353.20703125 104.23828125 C-349.59954425 99.5930433 -343.60907221 97.31174024 -338.43652344 94.82714844 C-334.66861815 92.97338917 -330.99160512 90.98052177 -327.30859375 88.96484375 C-304.87086553 76.74839287 -304.87086553 76.74839287 -293.8515625 72.32470703 C-290.09566454 70.78170981 -286.49956093 68.97655502 -282.89453125 67.11328125 C-275.18461691 63.15516863 -267.2891643 59.84207421 -259.234375 56.64208984 C-256.05142948 55.37642437 -252.87441454 54.10129959 -249.70703125 52.796875 C-239.27193224 48.52267708 -228.65191201 44.86251448 -217.98681641 41.20947266 C-215.20539029 40.23770794 -212.44498697 39.21854862 -209.68359375 38.19140625 C-204.3024804 36.22286995 -198.8549067 34.63046651 -193.33203125 33.11328125 C-186.86283208 31.38100796 -186.86283208 31.38100796 -180.55078125 29.171875 C-177.31434491 27.88269452 -173.97285069 27.17981977 -170.58203125 26.42578125 C-165.24195352 25.20864655 -159.93651162 23.92000409 -154.65258789 22.47802734 C-117.38602969 12.33236905 -79.31693007 6.84487331 -41.0234375 2.4375 C-40.09444138 2.33048264 -39.16544525 2.22346527 -38.20829773 2.11320496 C-35.54221479 1.81146009 -32.87486946 1.52403491 -30.20703125 1.23828125 C-29.40101974 1.14320786 -28.59500824 1.04813446 -27.76457214 0.95018005 C-18.53297153 -0.04092787 -9.27362803 0.03504424 0 0 Z " fill="#0272C5" transform="translate(743.20703125,107.76171875)"/>
<path d="M0 0 C1.05147217 0.00491455 2.10294434 0.0098291 3.1862793 0.01489258 C15.83320309 0.20417419 27.07201036 2.24538556 38.3125 8.3125 C39.17617188 8.77785156 40.03984375 9.24320312 40.9296875 9.72265625 C58.2648836 19.60213731 69.07305877 35.56429171 74.625 54.5 C75.20817568 56.76561171 75.77110594 59.03654245 76.3125 61.3125 C76.59867188 62.44945312 76.88484375 63.58640625 77.1796875 64.7578125 C80.68102002 79.12994885 80.3125 92.14408914 80.3125 107.3125 C42.0325 107.3125 3.7525 107.3125 -35.6875 107.3125 C-33.74721488 119.92435325 -31.45404841 131.80214224 -20.875 139.984375 C-17.01912669 142.32544094 -12.95893873 143.90133196 -8.6875 145.3125 C-7.6975 145.6425 -6.7075 145.9725 -5.6875 146.3125 C10.96044586 147.832621 26.81221394 145.90824948 40.3125 135.3125 C40.98925781 134.5596875 41.66601562 133.806875 42.36328125 133.03125 C43.00652344 132.4640625 43.64976562 131.896875 44.3125 131.3125 C47.70897387 131.67241441 49.46405793 133.05947821 51.88671875 135.375 C52.5506665 136.00301514 53.21461426 136.63103027 53.89868164 137.27807617 C54.5921167 137.94943604 55.28555176 138.6207959 56 139.3125 C56.70954834 139.99223877 57.41909668 140.67197754 58.15014648 141.37231445 C59.5618293 142.72760086 60.97050948 144.08602269 62.37597656 145.44775391 C64.03214018 147.04253174 65.70650879 148.61141719 67.3984375 150.16796875 C68.21570313 150.93753906 69.03296875 151.70710937 69.875 152.5 C70.57753906 153.15355469 71.28007813 153.80710937 72.00390625 154.48046875 C73.3125 156.3125 73.3125 156.3125 73.32421875 158.28515625 C67.53755372 169.88082865 47.8245147 178.35830908 36.3125 182.3125 C26.40813327 185.10921509 16.98054337 185.8157768 6.75439453 185.75854492 C4.44603132 185.75003146 2.14015264 185.77893213 -0.16796875 185.81054688 C-13.38815392 185.8744108 -26.26748102 183.90635106 -38.0625 177.5625 C-38.72185547 177.21888428 -39.38121094 176.87526855 -40.06054688 176.52124023 C-60.35078482 165.61349846 -71.51911373 147.24424765 -77.98730469 125.75683594 C-83.75046586 105.63801808 -83.57138667 83.60116939 -78.6875 63.3125 C-78.49414062 62.42433594 -78.30078125 61.53617187 -78.1015625 60.62109375 C-72.84922376 39.91869367 -58.55726713 21.30572837 -40.4453125 10.390625 C-27.69938773 3.10532977 -14.61950263 -0.08112149 0 0 Z " fill="#0272C5" transform="translate(766.6875,315.6875)"/>
<path d="M0 0 C17.345625 -0.12375 34.69125 -0.2475 52.5625 -0.375 C58.01209229 -0.42962402 63.46168457 -0.48424805 69.07641602 -0.54052734 C75.80065918 -0.56762695 75.80065918 -0.56762695 78.96202087 -0.57266235 C81.14060346 -0.58179467 83.3191583 -0.60272644 85.49754333 -0.63345337 C103.71190785 -0.87722824 118.73696056 0.97878734 132.8515625 13.6640625 C144.50676502 25.73002106 147.31981975 40.48786721 147.22705078 56.59790039 C147.2264856 57.94896435 147.22680531 59.30002892 147.22793579 60.65109253 C147.22850614 64.2930602 147.2168038 67.93489429 147.20278788 71.5768311 C147.19022707 75.39247654 147.18910582 79.20812553 147.18673706 83.02378845 C147.18053794 90.23775058 147.16414849 97.45165159 147.14403808 104.66558689 C147.1216301 112.8832848 147.11067336 121.10098574 147.10064721 129.31870663 C147.07978075 146.21251243 147.04312427 163.10623412 147 180 C131.82 180 116.64 180 101 180 C100.99589111 175.97216309 100.99178223 171.94432617 100.98754883 167.79443359 C100.97036106 154.49504061 100.92612774 141.19585338 100.86790943 127.89658165 C100.833269 119.83222815 100.80790517 111.76804541 100.80444336 103.70361328 C100.80140213 96.67391728 100.78089054 89.64452548 100.73947543 82.61494696 C100.71815777 78.89338573 100.7055382 75.17225682 100.71384621 71.450634 C100.72279782 67.29397482 100.69274243 63.13846892 100.65942383 58.98193359 C100.67236229 57.13479263 100.67236229 57.13479263 100.68556213 55.25033569 C100.72251271 48.38590103 100.72251271 48.38590103 97.83378601 42.37612915 C82.77749112 29.75142811 66.51099933 36.48888635 45 36 C45 83.52 45 131.04 45 180 C30.15 180 15.3 180 0 180 C0 120.6 0 61.2 0 0 Z " fill="#0272C5" transform="translate(413,319)"/>
<path d="M0 0 C15.18 0 30.36 0 46 0 C46 16.17 46 32.34 46 49 C57.22 49 68.44 49 80 49 C80 61.54 80 74.08 80 87 C68.78 87 57.56 87 46 87 C46.08561284 98.72687042 46.17942085 110.45359753 46.28752708 122.18028259 C46.33740398 127.62585926 46.38373474 133.07141733 46.421875 138.51708984 C46.45883655 143.77563146 46.5052259 149.03401422 46.55806351 154.29241943 C46.57654977 156.29536137 46.59167886 158.29833729 46.60334396 160.30133057 C46.62030536 163.1138118 46.64936387 165.92593377 46.68115234 168.73828125 C46.68331253 169.56043625 46.68547272 170.38259125 46.68769836 171.22966003 C46.76903816 176.88877418 46.95521322 183.24398304 50.4375 187.9375 C53.72233729 190.17118936 56.91609494 190.17975972 60.76171875 190.31640625 C61.76936279 190.35451416 62.77700684 190.39262207 63.81518555 190.43188477 C65.09304932 190.47498779 66.37091309 190.51809082 67.6875 190.5625 C71.750625 190.706875 75.81375 190.85125 80 191 C80 203.87 80 216.74 80 230 C71.3375 230.1546875 71.3375 230.1546875 62.5 230.3125 C60.71400391 230.35802002 58.92800781 230.40354004 57.08789062 230.45043945 C42.16562867 230.67008254 28.66321013 228.01867586 17 218 C16.35675781 217.45472656 15.71351563 216.90945313 15.05078125 216.34765625 C6.80238661 208.74338788 3.13118191 199.83989649 1 189 C0.82628152 188.27451367 0.65256304 187.54902735 0.47358036 186.80155659 C-0.11385331 183.32647861 -0.13484061 179.92549645 -0.12025452 176.41337585 C-0.12110894 175.6577301 -0.12196337 174.90208434 -0.12284368 174.12354022 C-0.12448834 171.5962519 -0.11899372 169.06903023 -0.11352539 166.54174805 C-0.11324327 164.72822572 -0.11340173 162.91470329 -0.1139679 161.10118103 C-0.11425491 156.18013645 -0.10837354 151.25911622 -0.10139394 146.33807731 C-0.09514457 141.19444639 -0.09455535 136.05081492 -0.09336853 130.90718079 C-0.09025989 121.16795091 -0.08205278 111.42873224 -0.07201904 101.68950731 C-0.06084341 90.60133298 -0.05534379 79.51315812 -0.05032361 68.42497957 C-0.0398698 45.61664539 -0.0215301 22.8083266 0 0 Z " fill="#0473C6" transform="translate(594,269)"/>
<path d="M0 0 C15.18 0 30.36 0 46 0 C46 83.49 46 166.98 46 253 C30.19705275 251.24411697 18.22608777 246.93463175 7.7578125 234.6015625 C1.73076465 225.68153168 -0.15779428 215.81785356 -0.12025452 205.27445984 C-0.12110894 204.39630751 -0.12196337 203.51815518 -0.12284368 202.61339217 C-0.12449051 199.67152128 -0.11899013 196.72970744 -0.11352539 193.7878418 C-0.11324332 191.67875673 -0.11340164 189.56967156 -0.1139679 187.46058655 C-0.1142551 181.73378396 -0.10837077 176.00700226 -0.10139394 170.28020453 C-0.09514761 164.29575694 -0.09455559 158.31130887 -0.09336853 152.32685852 C-0.090259 140.99391087 -0.08205068 129.66097286 -0.07201904 118.32802945 C-0.0608462 105.42610464 -0.0553445 92.52417936 -0.05032361 79.62225091 C-0.03986777 53.08149404 -0.02152696 26.54075037 0 0 Z " fill="#0272C5" transform="translate(873,244)"/>
<path d="M0 0 C15.18 0 30.36 0 46 0 C46 59.73 46 119.46 46 181 C32.11242139 181 21.3729561 177.14170377 11.07421875 167.453125 C0.64419043 155.11779961 -0.31591546 140.40777854 -0.22705078 124.87792969 C-0.22648509 123.50671904 -0.2268063 122.13550779 -0.22793579 120.76429749 C-0.22850415 117.08118669 -0.21683461 113.39820905 -0.20278788 109.7151289 C-0.19019336 105.85145449 -0.1891032 101.98777624 -0.18673706 98.12408447 C-0.18054771 90.82522415 -0.16417174 83.52642452 -0.14403808 76.2275908 C-0.12159936 67.91067159 -0.1106657 59.59374931 -0.10064721 51.27680731 C-0.07980293 34.18449719 -0.04315895 17.09227055 0 0 Z " fill="#0272C5" transform="translate(326,319)"/>
<path d="M0 0 C0.85529297 -0.02449219 1.71058594 -0.04898437 2.59179688 -0.07421875 C9.81730935 -0.10728746 14.69744677 1.81912209 20.41796875 6.1640625 C29.68726344 15.45312115 33.0625 25.436292 33.0625 38.375 C9.9625 38.375 -13.1375 38.375 -36.9375 38.375 C-36.9375 27.61115633 -35.43089923 17.88954753 -27.66796875 9.8671875 C-19.10795397 2.4858655 -11.20516626 0.01681195 0 0 Z " fill="#F8FBFD" transform="translate(767.9375,353.625)"/>
<path d="M0 0 C15.18 0 30.36 0 46 0 C46 14.52 46 29.04 46 44 C30.82 44 15.64 44 0 44 C0 29.48 0 14.96 0 0 Z " fill="#0574C6" transform="translate(326,250)"/>
<path d="M0 0 C4.24052333 2.49301088 8.88300023 5.43730962 10.81640625 10.08984375 C11.87613346 16.74751928 12.18286488 23.11650515 8.12890625 28.77734375 C5.02417676 32.39551688 1.7007561 34.83115777 -3.0859375 35.48828125 C-14.87620075 35.39723675 -14.87620075 35.39723675 -19.578125 30.6953125 C-23.93050462 25.74087461 -25.66078343 21.97511928 -25.5 15.46875 C-24.80305125 10.22872795 -22.48996924 6.36272243 -18.74609375 2.71484375 C-12.91691436 -0.98170903 -6.64830181 -2.77111686 0 0 Z " fill="#EAF3FA" transform="translate(975.18359375,244.91015625)"/>
<path d="M0 0 C4.24052333 2.49301088 8.88300023 5.43730962 10.81640625 10.08984375 C11.87613346 16.74751928 12.18286488 23.11650515 8.12890625 28.77734375 C5.02417676 32.39551688 1.7007561 34.83115777 -3.0859375 35.48828125 C-14.87620075 35.39723675 -14.87620075 35.39723675 -19.578125 30.6953125 C-23.93050462 25.74087461 -25.66078343 21.97511928 -25.5 15.46875 C-24.80305125 10.22872795 -22.48996924 6.36272243 -18.74609375 2.71484375 C-12.91691436 -0.98170903 -6.64830181 -2.77111686 0 0 Z M-20.18359375 9.08984375 C-22.6094041 13.03178557 -23.14765231 17.56043069 -22.18359375 22.08984375 C-19.76444206 26.55899087 -17.03531997 30.25015574 -12.18359375 32.08984375 C-7.24555222 32.79062192 -3.29476177 32.64542776 1.19140625 30.40234375 C2.05765625 29.63921875 2.92390625 28.87609375 3.81640625 28.08984375 C4.60015625 27.42984375 5.38390625 26.76984375 6.19140625 26.08984375 C8.82061311 21.23592339 8.7627696 16.46917225 7.81640625 11.08984375 C5.8122425 7.22799999 3.15948321 4.92472943 -0.49609375 2.65234375 C-9.39287781 0.79022616 -14.11523744 2.02740462 -20.18359375 9.08984375 Z " fill="#2284CC" transform="translate(975.18359375,244.91015625)"/>
<path d="M0 0 C12.45515695 -0.36995516 12.45515695 -0.36995516 14.8984375 1.2890625 C16.72658607 4.1285273 16.29688623 6.73425143 16 10 C15.34 10.66 14.68 11.32 14 12 C14.38766305 15.58588324 15.58566252 18.69987921 17 22 C15.35 22 13.7 22 12 22 C10.58398438 19.31445312 10.58398438 19.31445312 9.16796875 16.62890625 C8.00980201 14.67732013 8.00980201 14.67732013 5 14 C5 16.64 5 19.28 5 22 C3.35 22 1.7 22 0 22 C0 14.74 0 7.48 0 0 Z " fill="#177ECA" transform="translate(960,251)"/>
<path d="M0 0 C0.28230469 0.56589844 0.56460938 1.13179688 0.85546875 1.71484375 C1.23316406 2.46894531 1.61085938 3.22304688 2 4 C2.36738281 4.74378906 2.73476563 5.48757813 3.11328125 6.25390625 C6.23830363 12.47742276 6.23830363 12.47742276 12 16 C15.32801535 16.50688234 18.63982987 16.81078654 22 17 C22 17.99 22 18.98 22 20 C11.13126492 20.57995227 11.13126492 20.57995227 6 17 C0.08920446 10.97677085 0.08920446 10.97677085 -0.09765625 6.8359375 C-0.08605469 6.02382813 -0.07445312 5.21171875 -0.0625 4.375 C-0.05347656 3.55773437 -0.04445313 2.74046875 -0.03515625 1.8984375 C-0.02355469 1.27195312 -0.01195312 0.64546875 0 0 Z " fill="#147CC9" transform="translate(951,260)"/>
<path d="M0 0 C1.98 0 3.96 0 6 0 C6.33 1.65 6.66 3.3 7 5 C4.69 5.33 2.38 5.66 0 6 C0 4.02 0 2.04 0 0 Z " fill="#EBF4FA" transform="translate(965,255)"/>
<path d="M0 0 C3.3 0 6.6 0 10 0 C10 0.33 10 0.66 10 1 C4.555 2.485 4.555 2.485 -1 4 C-0.67 2.68 -0.34 1.36 0 0 Z " fill="#0875C6" transform="translate(961,245)"/>
</svg>
