<svg xmlns="http://www.w3.org/2000/svg" width="29" height="30" viewBox="0 0 29 30" fill="none">
  <path d="M1.67083 28.0532C1.35286 27.7352 0.668933 27.4203 0 27.1623C0.70193 26.9043 1.42486 26.5773 1.75782 26.2414C1.90781 26.0884 2.0518 25.8544 2.19278 25.5784C2.33077 25.3025 2.45975 24.9845 2.57674 24.6665C2.81072 25.3055 3.09569 25.9384 3.39566 26.2414C3.72563 26.5773 4.44856 26.9013 5.15049 27.1623C4.47855 27.4203 3.79762 27.7352 3.47965 28.0532C3.15569 28.3772 2.83472 29.0761 2.57674 29.757C2.31577 29.0761 1.9948 28.3772 1.67083 28.0532ZM10.274 11.7048C8.60614 13.3937 3.22468 15.1725 0.350965 16.0334C3.15569 16.9153 8.34217 18.7031 9.971 20.335C11.6118 21.9758 13.4087 27.2043 14.2846 30C15.1605 27.2043 16.9573 21.9758 18.5981 20.335C20.23 18.7031 25.4135 16.9153 28.2182 16.0334C25.3415 15.1725 19.96 13.3937 18.2952 11.7048C16.7143 10.103 15.1005 5.06349 14.2846 2.22578C13.4687 5.06349 11.8548 10.1 10.274 11.7048ZM26.1814 2.49275C25.7314 2.0368 25.2995 0.971903 24.9725 0C24.6485 0.971903 24.2136 2.0368 23.7636 2.49275C23.2747 2.9907 22.0868 3.47665 21.0459 3.83062C22.0448 4.18758 23.1757 4.66453 23.6496 5.13849C24.1296 5.61844 24.6125 6.77032 24.9725 7.77822C25.3295 6.77032 25.8124 5.61844 26.2954 5.13849C26.7693 4.66453 27.9002 4.18458 28.8991 3.83062C27.8612 3.47665 26.6733 2.9907 26.1814 2.49275Z" fill="#FFDB66"/>
</svg>